<?xml version="1.0" encoding="UTF-8"?>
<svg width="175px" height="55px" viewBox="0 0 175 55" version="1.1" xmlns="http://www.w3.org/2000/svg" xmlns:xlink="http://www.w3.org/1999/xlink">
    <!-- Generator: Sketch 64 (93537) - https://sketch.com -->
    <title>Mag+ and Mag+Now logos-01</title>
    <desc>Created with Sketch.</desc>
    <g id="Page-1" stroke="none" stroke-width="1" fill="none" fill-rule="evenodd">
        <g id="Mag+-and-Mag+Now-logos-01" fill-rule="nonzero">
            <polygon id="Path" fill="#F26F21" points="155.104803 0.192139738 155.104803 14.1222707 141.10262 14.1222707 141.10262 19.3820961 155.104803 19.3820961 155.104803 33.6965066 160.556769 33.6965066 160.556769 19.3820961 174.462882 19.3820961 174.462882 14.1222707 160.556769 14.1222707 160.556769 0.192139738"></polygon>
            <path d="M46.3777293,42.2707424 L46.3777293,38.1637555 L49.0917031,38.1637555 C50.4847162,38.1637555 51.3733624,37.2030568 51.3733624,35.569869 L51.3733624,21.639738 C51.3733624,17.8930131 49.5240175,15.4912664 45.9213974,15.4912664 C40.9257642,15.4912664 38.0196507,20.2947598 38.0196507,28.5327511 L38.0196507,34.8733624 C38.0196507,36.9628821 38.6441048,38.0436681 40.4694323,38.0917031 L42.8231441,38.1637555 L42.8231441,42.2707424 L25.290393,42.2707424 L25.290393,38.1637555 L28.0043668,38.0917031 C29.5895197,38.0196507 30.3340611,37.0829694 30.3340611,35.4257642 L30.3340611,21.6157205 C30.3340611,17.8689956 28.4366812,15.4672489 24.8820961,15.4672489 C19.8864629,15.4672489 16.9082969,20.2227074 16.9082969,28.3165939 L16.9082969,35.0174672 C16.9082969,37.0349345 17.6528384,38.1157205 19.5021834,38.1157205 L21.9759825,38.1157205 L21.9759825,42.2707424 L3.62663755,42.2707424 L3.62663755,38.0917031 L6.79694323,38.0917031 C8.50218341,38.0917031 9.27074236,37.1310044 9.27074236,35.3777293 L9.27074236,18.2772926 C9.27074236,16.6441048 8.45414847,15.5633188 6.86899563,15.5633188 L0,15.5633188 L0,11.5043668 L16.7641921,11.5043668 L16.7641921,18.2052402 C18.4694323,13.3296943 22.720524,10.4235808 27.6441048,10.4235808 C33.2641921,10.4235808 37.0829694,12.8253275 37.6353712,18.0131004 C39.4847162,13.209607 43.639738,10.4235808 48.779476,10.4235808 C54.7358079,10.4235808 58.9628821,13.4017467 58.9628821,19.8624454 L58.9628821,34.80131 C58.9628821,36.9628821 59.731441,38.0917031 61.4847162,38.0917031 L64.19869,38.0917031 L64.19869,42.2707424 L46.3777293,42.2707424 Z" id="Path" fill="#58595B"></path>
            <path d="M86.3668122,25.7467249 C84.9737991,27.2598253 81.6834061,28.5327511 78.8973799,29.0371179 C75.6069869,29.6615721 73.9017467,31.1266376 73.9017467,33.9126638 C73.9017467,36.7707424 75.4148472,38.860262 78.8973799,38.860262 C83.268559,38.860262 86.3668122,34.489083 86.3668122,29.8777293 L86.3668122,25.7467249 Z M94.4847162,43.0152838 C89.8733624,43.0152838 87.8318777,41.2379913 86.7510917,38.0196507 C84.1572052,41.5742358 80.8668122,43.0152838 76.1834061,43.0152838 C69.7227074,43.0152838 65.4956332,39.8449782 65.4956332,34.2729258 C65.4956332,27.8122271 71.5720524,26.6834061 76.1353712,25.8427948 L79.6179039,25.2183406 C84.4934498,24.3296943 86.4628821,23.3209607 86.4628821,19.9104803 C86.4628821,15.2991266 84.1812227,13.569869 80.3864629,13.569869 C76.9039301,13.569869 74.8864629,14.650655 74.7423581,16.7401747 C76.0152838,17.0043668 77.2161572,18.0611354 77.2161572,19.8384279 C77.2161572,22.1200873 75.7030568,23.9454148 72.4606987,23.9454148 C69.7947598,23.9454148 67.5131004,22.4323144 67.5131004,18.6375546 C67.5131004,12.9934498 73.709607,9.84716157 80.9868996,9.84716157 C88.5764192,9.84716157 94.1484716,13.1375546 94.1484716,19.4781659 L94.1484716,35.0414847 C94.1484716,37.6353712 94.9650655,38.5720524 96.1179039,38.5720524 C97.4388646,38.5720524 98.279476,37.5633188 98.279476,34.8973799 L98.279476,32.0393013 L102.026201,32.0393013 L102.026201,35.3056769 C102.002183,39.6528384 99.6004367,43.0152838 94.4847162,43.0152838" id="Shape" fill="#58595B"></path>
            <path d="M119.030568,13.5218341 C114.034934,13.5218341 113.026201,17.0524017 113.026201,20.2947598 C113.026201,23.3209607 114.034934,26.8755459 119.030568,26.8755459 C124.098253,26.8755459 125.034934,23.441048 125.034934,20.2947598 C125.058952,17.1244541 124.050218,13.5218341 119.030568,13.5218341 M120.303493,41.5021834 C117.58952,41.430131 115.548035,41.430131 113.842795,41.2620087 C111.561135,41.7663755 109.351528,43.3515284 109.351528,45.8733624 C109.351528,49.4759825 112.257642,51.3733624 119.4869,51.3733624 C127.268559,51.3733624 130.246725,48.6593886 130.246725,45.9213974 C130.246725,43.2554585 128.661572,41.6222707 120.303493,41.5021834 M119.4869,54.9039301 C109.615721,54.9039301 102.69869,51.7336245 102.69869,46.7379913 C102.69869,43.5196507 104.860262,41.1659389 108.919214,40.2292576 C105.700873,39.0283843 104.30786,37.2030568 104.30786,34.5371179 C104.30786,32.1353712 106.277293,29.6615721 110.264192,28.3406114 C107.045852,26.9475983 104.572052,24.9061135 104.572052,20.1746725 C104.572052,14.6026201 109.447598,10.1834061 119.19869,10.1834061 C122.296943,10.1834061 125.227074,11 127.100437,12.0087336 C126.59607,11.1921397 126.283843,10.1113537 126.283843,8.71834061 C126.283843,5.18777293 128.829694,2.06550218 132.864629,2.06550218 C136.227074,2.06550218 137.740175,3.9628821 137.740175,6.24454148 C137.740175,8.76637555 136.227074,9.99126638 133.99345,9.99126638 C132.408297,9.99126638 131.015284,8.98253275 130.582969,7.97379913 C130.078603,8.59825328 129.934498,9.79912664 129.934498,10.8799127 C129.934498,12.2008734 130.318777,13.3537118 131.063319,14.3624454 C132.384279,15.2510917 133.537118,17.1484716 133.537118,20.0065502 C133.537118,26.7074236 127.460699,30.1419214 119.414847,30.1419214 C115.812227,30.1419214 114.419214,29.5655022 113.60262,29.5174672 C112.473799,29.6375546 111.128821,30.5982533 111.128821,31.9912664 C111.128821,35.8580786 117.20524,34.4650655 126.451965,35.1615721 C134.497817,35.7860262 137.980349,39.4606987 137.980349,44.0240175 C137.956332,51.6855895 129.934498,54.9039301 119.4869,54.9039301" id="Shape" fill="#58595B"></path>
        </g>
    </g>
</svg>