<?xml version="1.0" encoding="UTF-8"?>
<svg width="126px" height="41px" viewBox="0 0 126 41" version="1.1" xmlns="http://www.w3.org/2000/svg" xmlns:xlink="http://www.w3.org/1999/xlink">
    <title>Logo</title>
    <defs>
        <polygon id="path-1" points="0.107761404 0.157507992 25.2924008 0.157507992 25.2924008 37.9103314 0.107761404 37.9103314"></polygon>
    </defs>
    <g id="Desktop" stroke="none" stroke-width="1" fill="none" fill-rule="evenodd">
        <g id="01-Magplus-LP" transform="translate(-123.000000, -13.000000)">
            <g id="Header/Universal" transform="translate(0.000000, -1.000000)">
                <g id="Header">
                    <g id="Logo" transform="translate(123.000000, 14.000000)">
                        <polygon id="Fill-1" fill="#F26F21" points="110.782428 -1.71539961e-05 110.782428 9.94638441 100.788167 9.94638441 100.788167 13.6967626 110.782428 13.6967626 110.782428 23.9164273 114.670553 23.9164273 114.670553 13.6967626 124.617641 13.6967626 124.617641 9.94638441 114.670553 9.94638441 114.670553 -1.71539961e-05"></polygon>
                        <g id="Group-9" transform="translate(0.000000, 1.169216)">
                            <path d="M33.126322,28.8711704 L33.126322,25.9328624 L35.070899,25.9328624 C36.0675462,25.9328624 36.7007002,25.2532211 36.7007002,24.0757708 L36.7007002,14.1331431 C36.7007002,11.4632951 35.3858464,9.74686628 32.8125754,9.74686628 C29.2428288,9.74686628 27.1637645,13.1843556 27.1637645,19.0595992 L27.1637645,23.5813926 C27.1637645,25.0725895 27.6097684,25.8421177 28.9210199,25.886375 L30.595593,25.9328624 L30.595593,28.8711704 L18.0704312,28.8711704 L18.0704312,25.9328624 L20.016209,25.886375 C21.1459712,25.8421177 21.686322,25.162991 21.686322,23.98657 L21.686322,14.1331431 C21.686322,11.4632951 20.3311563,9.74686628 17.8004273,9.74686628 C14.2296515,9.74686628 12.1056437,13.1400982 12.1056437,18.9251119 L12.1056437,23.7165661 C12.1056437,25.162991 12.6456515,25.9328624 13.9584468,25.9328624 L15.721363,25.9328624 L15.721363,28.8711704 L2.60799064,28.8711704 L2.60799064,25.886375 L4.87077427,25.886375 C6.09025185,25.886375 6.63403353,25.2082776 6.63403353,23.9445427 L6.63403353,11.7344998 C6.63403353,10.5597942 6.04547992,9.79318207 4.91571774,9.79318207 L6.86159844e-05,9.79318207 L6.86159844e-05,6.8987883 L11.9711563,6.8987883 L11.9711563,11.6919579 C13.1940647,8.21021131 16.2202012,6.13046082 19.7438035,6.13046082 C23.7665871,6.13046082 26.4824078,7.85049201 26.8879283,11.5557552 C28.2003805,8.12049591 31.1841466,6.13046082 34.8456671,6.13046082 C39.0959127,6.13046082 42.1254799,8.25498324 42.1254799,12.864262 L42.1254799,23.5355914 C42.1254799,25.0725895 42.6666885,25.886375 43.9343688,25.886375 L45.8767158,25.886375 L45.8767158,28.8711704 L33.126322,28.8711704 Z" id="Fill-2" fill="#58595B"></path>
                            <path d="M67.4835634,29.4129279 C64.1850214,29.4129279 62.7346511,28.146963 61.968039,25.8411228 C60.1131774,28.3733957 57.7627368,29.4129279 54.4159922,29.4129279 C49.8049981,29.4129279 46.7766316,27.1540897 46.7766316,23.1735049 C46.7766316,18.5637115 51.1176218,17.7487251 54.3722495,17.1603431 L56.8571774,16.7081637 C60.3396101,16.0770682 61.7416062,15.3524834 61.7416062,12.910269 C61.7416062,9.60949708 60.1131774,8.39001949 57.4007875,8.39001949 C54.9148304,8.39001949 53.4666901,9.15834698 53.3759454,10.6495439 C54.2827057,10.8300039 55.1400624,11.6012476 55.1400624,12.8665263 C55.1400624,14.4934113 54.0552437,15.8058635 51.749575,15.8058635 C49.8499415,15.8058635 48.2235712,14.7208733 48.2235712,12.0069396 C48.2235712,7.98381287 52.6542768,5.7225731 57.8524522,5.7225731 C63.2782612,5.7225731 67.2561014,8.07507212 67.2561014,12.5953216 L67.2561014,23.719345 C67.2561014,25.5709474 67.8432827,26.2490448 68.658269,26.2490448 C69.6073996,26.2490448 70.1937232,25.5289201 70.1937232,23.6263704 L70.1937232,21.5907057 L72.8611696,21.5907057 L72.8611696,23.8970604 C72.8611696,27.0173723 71.1454269,29.4129279 67.4835634,29.4129279 L67.4835634,29.4129279 Z M61.6946043,17.0701131 C60.7003587,18.1556179 58.3512904,19.0596335 56.36177,19.422269 C54.011501,19.8727329 52.7897934,20.913809 52.7897934,22.903501 C52.7897934,24.9376218 53.8747836,26.4288187 56.36177,26.4288187 C59.4810526,26.4288187 61.6946043,23.3085068 61.6946043,20.0106511 L61.6946043,17.0701131 Z" id="Fill-4" fill="#58595B"></path>
                            <g id="Group-8" transform="translate(73.247563, 0.000000)">
                                <mask id="mask-2" fill="white">
                                    <use xlink:href="#path-1"></use>
                                </mask>
                                <g id="Clip-7"></g>
                                <path d="M12.0927439,37.9103657 C5.03713372,37.9103657 0.107761404,35.6508413 0.107761404,32.0759485 C0.107761404,29.7723384 1.64664639,28.0982799 4.5429271,27.4201825 C2.23622924,26.561625 1.24215517,25.2502019 1.24215517,23.3534846 C1.24215517,21.6344827 2.64089201,19.8722526 5.48999922,18.9232936 C3.18450214,17.9263033 1.42021365,16.4788491 1.42021365,13.091278 C1.42021365,9.11343782 4.90384717,5.9466386 11.8616795,5.9466386 C14.078662,5.9466386 16.1601279,6.53330526 17.5139212,7.25686082 C17.1554027,6.66847875 16.9279407,5.90066589 16.9279407,4.90539103 C16.9279407,2.37517661 18.7380304,0.157507992 21.6308803,0.157507992 C24.0269505,0.157507992 25.1119407,1.51593294 25.1119407,3.14281793 C25.1119407,4.95187836 24.0269505,5.81266589 22.4444943,5.81266589 C21.3137029,5.81266589 20.3204865,5.08756647 20.0057107,4.3652117 C19.6425606,4.81567563 19.5506152,5.67526238 19.5506152,6.44599142 C19.5506152,7.39409279 19.8218199,8.20736374 20.3630285,8.93074776 C21.3137029,9.56338713 22.1283462,10.9185528 22.1283462,12.9538745 C22.1283462,17.7458433 17.7852975,20.1870285 12.0445411,20.1870285 C9.46886862,20.1870285 8.474623,19.7803072 7.8852117,19.7360499 C7.07159766,19.8273092 6.12555478,20.5054066 6.12555478,21.4994807 C6.12555478,24.2578433 10.4607127,23.2615392 17.0634573,23.7590051 C22.8064437,24.2108413 25.2924008,26.8347166 25.2924008,30.0886581 C25.2924008,35.6050402 19.5506152,37.9103657 12.0927439,37.9103657 M12.6799251,28.3252273 C10.7331181,28.279083 9.28960936,28.279083 8.06550019,28.145968 C6.43930136,28.5074027 4.85787446,29.6371649 4.85787446,31.4460538 C4.85787446,34.0217263 6.93470877,35.3784359 12.0927439,35.3784359 C17.6506386,35.3784359 19.7758472,33.4355743 19.7758472,31.4908257 C19.7758472,29.5899914 18.6426542,28.4183735 12.6799251,28.3252273 M11.7743657,8.34528187 C8.20221754,8.34528187 7.47934815,10.8730947 7.47934815,13.1797926 C7.47934815,15.3484008 8.20221754,17.8837614 11.7743657,17.8837614 C15.392315,17.8837614 16.0704125,15.439317 16.0704125,13.1797926 C16.0704125,10.9185528 15.3475431,8.34528187 11.7743657,8.34528187" id="Fill-6" fill="#58595B" mask="url(#mask-2)"></path>
                            </g>
                        </g>
                    </g>
                </g>
            </g>
        </g>
    </g>
</svg>