<svg enable-background="new 225.9 84.4 150 67" viewBox="225.9 84.4 150 67" xmlns="http://www.w3.org/2000/svg"><path d="m266.5 120.4v-3.5h2.3c1.2 0 1.9-.8 1.9-2.2v-11.7c0-3.1-1.5-5.2-4.6-5.2-4.2 0-6.7 4.1-6.7 11v5.4c0 1.8.5 2.7 2.1 2.7l2 .1v3.5h-14.8v-3.5l2.3-.1c1.3-.1 2-.9 2-2.2v-11.7c0-3.1-1.6-5.2-4.6-5.2-4.2 0-6.7 4-6.7 10.8v5.7c0 1.7.6 2.6 2.2 2.6h2.1v3.5h-15.5v-3.5h2.7c1.4 0 2.1-.8 2.1-2.3v-14.4c0-1.4-.7-2.3-2-2.3h-5.9v-3.4h14.1v5.7c1.4-4.1 5-6.6 9.2-6.6 4.7 0 7.9 2 8.4 6.4 1.5-4.1 5.1-6.4 9.4-6.4 5 0 8.6 2.5 8.6 7.9v12.6c0 1.8.6 2.8 2.1 2.8h2.3v3.5z" fill="#fff"/><path d="m307 121c-3.9 0-5.6-1.5-6.5-4.2-2.2 3-5 4.2-8.9 4.2-5.4 0-9-2.7-9-7.4 0-5.4 5.1-6.4 9-7.1l2.9-.5c4.1-.7 5.8-1.6 5.8-4.5 0-3.9-1.9-5.3-5.1-5.3-2.9 0-4.6.9-4.7 2.7 1.1.2 2.1 1.1 2.1 2.6 0 1.9-1.3 3.5-4 3.5-2.2 0-4.2-1.3-4.2-4.5 0-4.7 5.2-7.4 11.4-7.4 6.4 0 11.1 2.8 11.1 8.1v13.1c0 2.2.7 3 1.7 3 1.1 0 1.8-.9 1.8-3.1v-2.4h3.1v2.7c-.2 3.7-2.2 6.5-6.5 6.5zm-6.8-14.5c-1.2 1.3-3.9 2.3-6.3 2.8-2.8.5-4.2 1.8-4.2 4.1 0 2.4 1.3 4.2 4.2 4.2 3.7 0 6.3-3.7 6.3-7.6z" fill="#fff"/><path d="m328.1 131.1c-8.3 0-14.1-2.7-14.1-6.9 0-2.7 1.8-4.7 5.2-5.5-2.7-1-3.9-2.6-3.9-4.8 0-2 1.7-4.1 5-5.2-2.7-1.2-4.8-2.9-4.8-6.9 0-4.7 4.1-8.4 12.3-8.4 2.6 0 5.1.7 6.7 1.5-.4-.7-.7-1.6-.7-2.8 0-3 2.1-5.6 5.5-5.6 2.8 0 4.1 1.6 4.1 3.5 0 2.1-1.3 3.1-3.1 3.1-1.3 0-2.5-.9-2.9-1.7-.4.5-.5 1.5-.5 2.5 0 1.1.3 2.1 1 2.9 1.1.7 2.1 2.3 2.1 4.7 0 5.7-5.1 8.5-11.9 8.5-3 0-4.2-.5-4.9-.5-1 .1-2.1.9-2.1 2.1 0 3.3 5.1 2.1 12.9 2.7 6.8.5 9.7 3.6 9.7 7.5-.1 6.5-6.8 9.3-15.6 9.3zm.7-11.3c-2.3-.1-4-.1-5.4-.2-1.9.4-3.8 1.8-3.8 3.9 0 3 2.5 4.6 8.5 4.6 6.6 0 9.1-2.3 9.1-4.6-.1-2.3-1.4-3.6-8.4-3.7zm-1.1-23.6c-4.2 0-5.1 3-5.1 5.7 0 2.6.9 5.5 5.1 5.5 4.3 0 5.1-2.9 5.1-5.5 0-2.7-.9-5.7-5.1-5.7z" fill="#fff"/><path d="m362.6 101.1v12h-4.6v-12h-11.8v-4.4h11.8v-11.7h4.6v11.7h11.7v4.4z" fill="#eb690b"/><g fill="#fff"><path d="m275.5 144.9v3.6h-1.3v-9.5h2.8c.6 0 1.1.1 1.6.2.4.1.8.3 1.1.6s.5.6.7.9c.1.4.2.8.2 1.2s-.1.8-.2 1.2c-.2.4-.4.7-.7.9-.3.3-.7.5-1.1.6s-.9.2-1.5.2h-1.6zm0-1h1.5c.4 0 .7 0 1-.1s.5-.2.7-.4.3-.4.4-.6.1-.5.1-.8c0-.6-.2-1.1-.6-1.4s-.9-.5-1.7-.5h-1.5v3.8z"/><path d="m284.6 141.7c.5 0 .9.1 1.3.2.4.2.7.4 1 .7s.5.7.6 1.1.2.9.2 1.4-.1 1-.2 1.4-.4.8-.6 1.1-.6.5-1 .7-.8.2-1.3.2-.9-.1-1.3-.2c-.4-.2-.7-.4-1-.7s-.5-.7-.6-1.1-.2-.9-.2-1.4.1-1 .2-1.4c.2-.4.4-.8.6-1.1.3-.3.6-.5 1-.7.3-.1.8-.2 1.3-.2zm0 6c.7 0 1.2-.2 1.5-.7.3-.4.5-1.1.5-1.9s-.2-1.4-.5-1.9c-.3-.4-.8-.7-1.5-.7-.3 0-.6.1-.9.2-.2.1-.5.3-.6.5-.2.2-.3.5-.4.8s-.1.7-.1 1.1 0 .8.1 1.1.2.6.4.8.4.4.6.5.5.2.9.2z"/><path d="m288.4 141.8h.9c.1 0 .2 0 .2.1.1 0 .1.1.1.2l1.3 4.3c0 .2.1.3.1.5 0 .1.1.3.1.4 0-.2.1-.3.1-.4s.1-.3.1-.5l1.4-4.4c0-.1.1-.1.1-.2.1 0 .1-.1.2-.1h.5c.1 0 .2 0 .2.1.1 0 .1.1.1.2l1.4 4.4c0 .2.1.3.1.5s.1.3.1.4c0-.1.1-.3.1-.5s.1-.3.1-.4l1.3-4.3c0-.1.1-.1.1-.2.1 0 .1-.1.2-.1h.9l-2.2 6.7h-.9c-.1 0-.2-.1-.2-.2l-1.5-4.6c0-.1-.1-.2-.1-.3s0-.2-.1-.3c0 .1 0 .2-.1.3 0 .1-.1.2-.1.3l-1.5 4.6c0 .2-.1.2-.3.2h-.9z"/><path d="m302.1 141.7c.4 0 .8.1 1.1.2s.6.3.9.6c.2.3.4.6.6.9.1.4.2.8.2 1.3 0 .2 0 .3-.1.4 0 .1-.1.1-.2.1h-4.5c0 .4.1.8.2 1.1s.3.6.4.8c.2.2.4.4.7.5s.5.2.9.2c.3 0 .6 0 .8-.1s.4-.1.6-.2.3-.2.4-.2c.1-.1.2-.1.3-.1s.2 0 .2.1l.3.4c-.1.2-.3.3-.5.5-.2.1-.4.2-.7.3-.2.1-.5.1-.7.2-.2 0-.5.1-.7.1-.5 0-.9-.1-1.3-.2-.4-.2-.7-.4-1-.7s-.5-.7-.7-1.1-.2-1-.2-1.5.1-.9.2-1.3.4-.8.6-1.1c.3-.3.6-.5 1-.7.2-.4.7-.5 1.2-.5zm0 .8c-.6 0-1 .2-1.3.5s-.5.8-.6 1.4h3.7c0-.3 0-.5-.1-.8-.1-.2-.2-.4-.3-.6s-.3-.3-.5-.4c-.4 0-.6-.1-.9-.1z"/><path d="m306.3 148.5v-6.7h.7c.1 0 .2 0 .3.1 0 0 .1.1.1.3l.1 1c.2-.5.5-.8.9-1.1.3-.3.7-.4 1.2-.4.2 0 .4 0 .5.1.1 0 .3.1.4.2l-.2.9c0 .1-.1.2-.2.2s-.2 0-.3-.1c-.1 0-.3-.1-.5-.1-.4 0-.8.1-1 .4-.3.2-.5.6-.7 1v4.3h-1.3z"/><path d="m314.4 141.7c.4 0 .8.1 1.1.2s.6.3.9.6c.2.3.4.6.6.9.1.4.2.8.2 1.3 0 .2 0 .3-.1.4 0 .1-.1.1-.2.1h-4.5c0 .4.1.8.2 1.1s.3.6.4.8c.2.2.4.4.7.5s.5.2.9.2c.3 0 .6 0 .8-.1s.4-.1.6-.2.3-.2.4-.2c.1-.1.2-.1.3-.1s.2 0 .2.1l.3.4c-.1.2-.3.3-.5.5-.2.1-.4.2-.7.3-.2.1-.5.1-.7.2-.2 0-.5.1-.7.1-.5 0-.9-.1-1.3-.2s-.7-.4-1-.7-.5-.7-.7-1.1-.2-1-.2-1.5.1-.9.2-1.3.4-.8.6-1.1c.3-.3.6-.5 1-.7.2-.4.7-.5 1.2-.5zm0 .8c-.6 0-1 .2-1.3.5s-.5.8-.6 1.4h3.7c0-.3 0-.5-.1-.8-.1-.2-.2-.4-.3-.6s-.3-.3-.5-.4c-.4 0-.6-.1-.9-.1z"/><path d="m323.4 148.5c-.2 0-.3-.1-.3-.2l-.1-.8c-.3.3-.6.6-1 .8s-.8.3-1.3.3c-.4 0-.7-.1-1-.2s-.6-.4-.8-.7-.4-.6-.5-1.1c-.1-.4-.2-.9-.2-1.5 0-.5.1-1 .2-1.4s.3-.8.6-1.1.6-.6.9-.7c.4-.2.8-.3 1.2-.3s.8.1 1.1.2.6.3.8.6v-3.7h1.2v9.8zm-2.3-.9c.4 0 .7-.1 1-.3s.6-.4.8-.7v-3.3c-.2-.3-.5-.5-.7-.6-.3-.1-.5-.2-.9-.2-.6 0-1.1.2-1.4.7-.3.4-.5 1.1-.5 1.9 0 .4 0 .8.1 1.1s.2.6.3.8.3.3.5.4c.3.2.5.2.8.2z"/><path d="m328.7 148.5v-9.8h1.2v4c.3-.3.6-.6 1-.8s.8-.3 1.2-.3.7.1 1.1.2c.3.1.6.4.8.7s.4.6.5 1.1c.1.4.2.9.2 1.5 0 .5-.1 1-.2 1.4s-.3.8-.6 1.1-.6.6-.9.7c-.4.2-.8.3-1.2.3s-.8-.1-1.1-.3-.6-.4-.8-.7l-.1.6c0 .2-.1.3-.3.3zm3-5.9c-.4 0-.7.1-1 .3s-.6.4-.8.7v3.3c.2.3.4.5.7.6s.5.2.9.2c.6 0 1.1-.2 1.4-.7.3-.4.5-1.1.5-1.9 0-.4 0-.8-.1-1.1s-.2-.6-.3-.8-.3-.3-.5-.4c-.3-.1-.6-.2-.8-.2z"/><path d="m337.8 150.5c0 .1-.1.2-.1.2-.1.1-.2.1-.3.1h-.9l1.2-2.7-2.8-6.3h1c.1 0 .2 0 .2.1.1.1.1.1.1.2l1.8 4.2c0 .1.1.2.1.3s.1.2.1.3c0-.1.1-.2.1-.3s.1-.2.1-.3l1.7-4.2c0-.1.1-.1.1-.2.1 0 .1-.1.2-.1h.9z"/></g><path d="m349.8 138.5 1.9 6 1.9-6h2.4l1.3 10h-2l-.9-7.1-2.2 7.1h-1l-2.2-7.1-.9 7.1h-2l1.2-10z" fill="#e4251d"/><path d="m362.3 138.5c1.8 0 3.1 1.2 3.1 2.9 0 1-.4 1.9-1.1 2.4-.5.4-1.4.8-2 .8h-1.2v3.9h-2.1v-10zm-1.3 4.3h.8c.7 0 1.3-.6 1.3-1.3 0-.8-.6-1.3-1.7-1.3-.1 0-.3 0-.5 0v2.6z" fill="#e4251d"/><path d="m371.4 140.9c-.8-.5-1.2-.6-1.5-.6-.5 0-.9.4-.9.9s.4.9 1.3 1.3c.8.3 1.2.5 1.5.8.7.5 1.2 1.4 1.2 2.2 0 1.7-1.6 3.2-3.5 3.2-.5 0-1-.1-1.4-.3-.6-.2-.9-.5-1.6-1.1l1.4-1.6c.7.7 1.2 1 1.8 1 .2 0 .5-.1.8-.4.2-.2.3-.5.3-.7 0-.5-.5-1-1.6-1.4s-1.3-.5-1.8-1.2c-.3-.6-.5-1-.5-1.5 0-1.8 1.3-3 3.1-3 .5 0 1.1.1 1.5.2.5.2.7.3 1.3.8z" fill="#e4251d"/></svg>