<?xml version="1.0" encoding="UTF-8"?>
<svg width="342px" height="75px" viewBox="0 0 342 75" version="1.1" xmlns="http://www.w3.org/2000/svg" xmlns:xlink="http://www.w3.org/1999/xlink">
    <title>Magplus Now</title>
    <g id="Desktop" stroke="none" stroke-width="1" fill="none" fill-rule="evenodd">
        <g id="11-Magplus-Now-LP" transform="translate(-139.000000, -321.000000)">
            <g id="WIMPP" transform="translate(-1.000000, 0.000000)">
                <g id="Headline" transform="translate(131.000000, 249.000000)">
                    <g id="Magplus-Now" transform="translate(9.000000, 72.928819)">
                        <polygon id="Fill-1" fill="#F26F21" points="179.356901 2.07118115 179.356901 18.2907094 163 18.2907094 163 24.4062963 179.356901 24.4062963 179.356901 41.0711812 185.72004 41.0711812 185.72004 24.4062963 202 24.4062963 202 18.2907094 185.72004 18.2907094 185.72004 2.07118115"></polygon>
                        <g id="Group-30" transform="translate(0.000000, 0.071181)">
                            <path d="M53.7239216,51.9284119 L53.7239216,47.139341 L56.8776168,47.139341 C58.4938205,47.139341 59.5209176,46.0313085 59.5209176,44.1123727 L59.5209176,27.9067082 C59.5209176,23.5553378 57.3882856,20.7576935 53.2151726,20.7576935 C47.4255816,20.7576935 44.053851,26.360424 44.053851,35.9366363 L44.053851,43.3067062 C44.053851,45.7372114 44.7770699,46.9913278 46.9039424,47.0635428 L49.6196473,47.139341 L49.6196473,51.9284119 L29.3067123,51.9284119 L29.3067123,47.139341 L32.4620531,47.0635428 C34.2943723,46.9913278 35.1706273,45.8843978 35.1706273,43.9671157 L35.1706273,27.9067082 C35.1706273,23.5553378 32.9729962,20.7576935 28.8684476,20.7576935 C23.0774853,20.7576935 19.6328021,26.2884846 19.6328021,35.7175105 L19.6328021,43.5269346 C19.6328021,45.8843978 20.5087828,47.139341 22.6373009,47.139341 L25.4967171,47.139341 L25.4967171,51.9284119 L4.22936343,51.9284119 L4.22936343,47.0635428 L7.89948693,47.0635428 C9.87688869,47.0635428 10.7589031,45.9585422 10.7589031,43.8984838 L10.7589031,23.9974482 C10.7589031,22.0829224 9.80421026,20.8334918 7.97216536,20.8334918 L2.7425822e-05,20.8334918 L2.7425822e-05,16.1158091 L19.4144925,16.1158091 L19.4144925,23.9282651 C21.397928,18.2530439 26.3055046,14.8633465 32.0202231,14.8633465 C38.5440034,14.8633465 42.9485904,17.666779 43.6065358,23.7061074 C45.7350539,18.10696 50.5740659,14.8633465 56.5123049,14.8633465 C63.4052367,14.8633465 68.3185727,18.3260859 68.3185727,25.8389321 L68.3185727,43.2317349 C68.3185727,45.7372114 69.196199,47.0635428 71.2523129,47.0635428 L74.4021686,47.0635428 L74.4021686,51.9284119 L53.7239216,51.9284119 Z" id="Fill-2" fill="#58595B"></path>
                            <path d="M109.444141,52.8115579 C104.09446,52.8115579 101.742422,50.7481919 100.498935,46.9897015 C97.4908711,51.1172604 93.6792303,52.8115579 88.2513859,52.8115579 C80.773187,52.8115579 75.8617708,49.1299683 75.8617708,42.6419143 C75.8617708,35.1282411 82.9019793,33.7999803 88.180353,32.8410636 L92.2103033,32.104029 C97.8578285,31.0756536 100.131703,29.8943035 100.131703,25.913931 C100.131703,20.5339095 97.4908711,18.5463418 93.0917692,18.5463418 C89.0601734,18.5463418 86.711426,19.7985288 86.5641493,22.2290339 C88.0349962,22.5231311 89.4254853,23.7802794 89.4254853,25.8425429 C89.4254853,28.4941032 87.6661188,30.6332675 83.9268823,30.6332675 C80.8461397,30.6332675 78.2083241,28.8651012 78.2083241,24.4415157 C78.2083241,17.8840029 85.3938895,14.1985545 93.8245872,14.1985545 C102.623888,14.1985545 109.07499,18.0331188 109.07499,25.4004324 L109.07499,43.5313722 C109.07499,46.5492448 110.027489,47.654521 111.348865,47.654521 C112.88855,47.654521 113.839129,46.4808886 113.839129,43.3797757 L113.839129,40.0622933 L118.165278,40.0622933 L118.165278,43.8210593 C118.165278,48.9069836 115.38238,52.8115579 109.444141,52.8115579 L109.444141,52.8115579 Z M100.05546,32.6938772 C98.4433698,34.463146 94.6333747,35.9366639 91.4067267,36.5276145 C87.595086,37.2618928 85.6135703,38.9589465 85.6135703,42.2017332 C85.6135703,45.5172862 87.3732111,47.9477913 91.4067267,47.9477913 C96.4654196,47.9477913 100.05546,42.861867 100.05546,37.4865312 L100.05546,32.6938772 Z" id="Fill-4" fill="#58595B"></path>
                            <path d="M138.403807,66.6614405 C126.961206,66.6614405 118.966853,62.9787484 118.966853,57.1519307 C118.966853,53.3970235 121.462603,50.6685624 126.159549,49.5635618 C122.418941,48.1641884 120.806577,46.026678 120.806577,42.9349365 C120.806577,40.1334334 123.074967,37.2608178 127.695669,35.7145337 C123.956433,34.089695 121.095371,31.7303024 121.095371,26.2088827 C121.095371,19.7255144 126.744816,14.5637918 138.02917,14.5637918 C141.624696,14.5637918 145.000266,15.5202278 147.195977,16.6993729 C146.614276,15.7401805 146.245398,14.4888205 146.245398,12.866738 C146.245398,8.74276234 149.181058,5.12815083 153.872245,5.12815083 C157.758484,5.12815083 159.518125,7.34228643 159.518125,9.9938468 C159.518125,12.9425363 157.758484,14.3454929 155.19225,14.3454929 C153.358011,14.3454929 151.747567,13.1635915 151.236898,11.9861003 C150.647791,12.7203785 150.498869,14.1216813 150.498869,15.3777271 C150.498869,16.9229088 150.938505,18.2484133 151.816405,19.4275584 C153.358011,20.4589657 154.679661,22.6675887 154.679661,25.9850711 C154.679661,33.7953221 147.635613,37.7740408 138.325644,37.7740408 C134.148142,37.7740408 132.536053,37.1111508 131.579988,37.0389357 C130.260532,37.1877759 128.726332,38.2930521 128.726332,39.9134807 C128.726332,44.4092813 135.757215,42.7852694 146.465353,43.5961728 C155.779162,44.3323805 159.811033,48.6090552 159.811033,53.9130028 C159.811033,62.903777 150.498869,66.6614405 138.403807,66.6614405 M139.356306,51.0384578 C136.198771,50.9637621 133.857703,50.9637621 131.872622,50.7465657 C129.235081,51.3353113 126.670492,53.1770708 126.670492,56.1254847 C126.670492,60.3233292 130.038383,62.5347085 138.403807,62.5347085 C147.417578,62.5347085 150.864181,59.3679957 150.864181,56.198251 C150.864181,53.10017 149.026102,51.1903299 139.356306,51.0384578 M137.887379,18.4733274 C132.094223,18.4733274 130.922043,22.5934443 130.922043,26.3530372 C130.922043,29.887716 132.094223,34.0202362 137.887379,34.0202362 C143.755134,34.0202362 144.854635,30.0360049 144.854635,26.3530372 C144.854635,22.6675887 143.682181,18.4733274 137.887379,18.4733274" id="Fill-6" fill="#58595B"></path>
                            <polygon id="Fill-8" fill="#58595B" points="237.507975 52.8936681 215.347088 22.4349019 215.347088 52.8936681 210.619425 52.8936681 210.619425 14.7062374 215.461179 14.7062374 237.337112 44.5346378 237.337112 14.7062374 242.064775 14.7062374 242.064775 52.8936681"></polygon>
                            <path d="M282.228685,33.828508 C282.228685,24.8972699 276.759976,18.313021 268.271958,18.313021 C259.727169,18.313021 254.315232,24.8972699 254.315232,33.828508 C254.315232,42.7026907 259.727169,49.3442706 268.271958,49.3442706 C276.759976,49.3442706 282.228685,42.7026907 282.228685,33.828508 M249.41506,33.828508 C249.41506,22.5494537 256.991992,14.0757614 268.271958,14.0757614 C279.494879,14.0757614 287.128856,22.5494537 287.128856,33.828508 C287.128856,45.1075622 279.494879,53.5807033 268.271958,53.5807033 C256.991992,53.5807033 249.41506,45.1075622 249.41506,33.828508" id="Fill-10" fill="#58595B"></path>
                            <polygon id="Fill-12" fill="#58595B" points="322.450902 52.8936681 314.075878 22.0917426 305.702226 52.8936681 300.574969 52.8936681 289.751368 14.7062374 294.992169 14.7062374 303.422866 46.5384677 312.138518 14.7062374 316.069736 14.7062374 324.785662 46.5384677 333.160685 14.7062374 338.401485 14.7062374 327.57761 52.8936681"></polygon>
                            <polygon id="Fill-14" fill="#929497" points="307.317964 9.42649006 308.954188 11.9385817 256.274121 10.6825359"></polygon>
                            <polygon id="Fill-16" fill="#929497" points="341.928062 1.69189948 311.783518 1.69189948 341.066343 0.524055274"></polygon>
                            <polygon id="Fill-18" fill="#929497" points="316.959566 60.8807357 312.246165 64.3977742 198.273499 62.6392549"></polygon>
                            <polygon id="Fill-20" fill="#929497" points="298.161113 56.3524935 300.337077 58.8645851 230.275072 57.6088149"></polygon>
                            <polygon id="Fill-22" fill="#A6A8AB" points="272.969508 69.5289018 275.525594 72.2149159 220.395578 71.5142645"></polygon>
                            <polygon id="Fill-24" fill="#A6A8AB" points="251.855108 68.3609749 221.710564 68.3609749 250.993389 67.1931307"></polygon>
                            <polygon id="Fill-26" fill="#A6A8AB" points="333.872796 2.36804738 336.429157 5.05433713 281.299141 4.35368573"></polygon>
                            <polygon id="Fill-28" fill="#A6A8AB" points="312.758643 1.20012048 282.6141 1.20012048 311.896924 0.0322762702"></polygon>
                        </g>
                    </g>
                </g>
            </g>
        </g>
    </g>
</svg>