<?xml version="1.0" encoding="UTF-8"?>
<svg width="190px" height="276px" viewBox="0 0 190 276" version="1.1" xmlns="http://www.w3.org/2000/svg" xmlns:xlink="http://www.w3.org/1999/xlink">
    <title>Illustration</title>
    <defs>
        <polygon id="path-1" points="0.0636344783 0.159809644 74.8618421 0.159809644 74.8618421 37.727591 0.0636344783 37.727591"></polygon>
    </defs>
    <g id="Desktop" stroke="none" stroke-width="1" fill="none" fill-rule="evenodd">
        <g id="14-Try-For-Free---Sign-Up-with-Email---Thank-You-Screen" transform="translate(-628.000000, -227.000000)">
            <g id="Sign-Up-with-Email---Form" transform="translate(573.000000, 227.000000)">
                <g id="Illustration" transform="translate(55.958368, -0.000000)">
                    <path d="M95.0416319,244 C139.22436,244 175.041632,251.163655 175.041632,260.000283 C175.041632,268.836345 139.22436,276 95.0416319,276 C50.8589035,276 15.0416319,268.836345 15.0416319,260.000283 C15.0416319,251.163655 50.8589035,244 95.0416319,244" id="Fill-1" fill="#EFEEEE"></path>
                    <path d="M132.801213,250 C127.469458,250 122.673264,246.788313 120.691746,241.887271 C115.442909,228.903868 106.24069,204.83393 109.865239,204.127033 C114.835221,203.157509 123.167366,232.152671 125.360155,227.063235 C127.552944,221.974362 115.273665,184.432323 124.044822,186.05082 C132.814844,187.669316 131.64547,216.13304 133.253856,215.72476 C134.861674,215.315918 135.96176,200.616728 139.139346,207.966323 C142.316931,215.315918 136.134412,226.43282 140.321782,226.085276 C144.50972,225.73717 152.03824,186.208283 156.528886,196.625036 C161.020668,207.041789 153.313817,234.219375 155.635528,235.551627 C157.957806,236.883315 167.876755,219.491505 171.395668,224.713097 C173.529393,227.880357 169.95539,236.506528 166.811313,242.805619 C164.612277,247.211777 160.079603,250 155.115869,250 L132.801213,250 Z" id="Fill-3" fill="#F7D7C6"></path>
                    <path d="M91.89599,180.265769 C80.7300785,164.608572 81.6391164,199.033726 75.320651,197.639929 C69.0021855,196.246697 77.6349265,146.543446 65.7391761,147.140626 C53.8434257,147.738936 62.9803056,175.650475 56.1911593,175.523355 C49.4020129,175.396235 52.8130316,121.030798 39.9917978,124.127434 C39.3515584,124.281673 38.7986502,124.566986 38.3228655,124.964165 C29.2710484,132.529201 44.4723396,169.396749 41.5512827,173.187742 C38.7408075,176.835796 27.9775266,145.853609 22.7229134,156.309631 C17.467733,166.765653 43.2394959,194.493574 35.0383069,195.540476 C26.8365508,196.587942 26.8830518,177.655577 16.3936732,188.56471 C6.1396351,199.229773 31.6210503,243.886653 50.2673852,251.356209 C50.9359789,251.624007 68.3596777,252.712152 74.750163,251.262422 C84.6344615,249.02116 102.227719,194.752899 91.89599,180.265769" id="Fill-5" fill="#FBCAAE"></path>
                    <path d="M73.1770376,28.0672327 L34.3381435,36.5300958 C32.764901,36.8728781 31.7669866,38.4301539 32.1086761,40.0084279 L38.4395488,69.2487778 C38.7812383,70.8270519 40.3335495,71.8281577 41.9062263,71.4853755 L54.9090954,68.652314 L57.6912625,71.7243015 L62.0313979,76.5175782 C62.7911479,77.3558057 64.1703515,77.05502 64.5143038,75.9761638 L66.4818469,69.8089204 L67.7428169,65.8555738 L80.7451204,63.0225123 C82.3183629,62.67973 83.3162772,61.1224542 82.9745877,59.5447477 L76.6437151,30.3038303 C76.3020256,28.7261238 74.7502801,27.7244504 73.1770376,28.0672327" id="Fill-7" fill="#CD4027"></path>
                    <path d="M76.1770376,27.0672327 L37.3381435,35.5300958 C35.764901,35.8728781 34.7669866,37.4301539 35.1086761,39.0084279 L41.4395488,68.2487778 C41.7812383,69.8270519 43.3329838,70.8281577 44.9062263,70.4853755 L57.9090954,67.652314 L60.6906968,70.7243015 L65.0313979,75.5175782 C65.7905822,76.3558057 67.1697858,76.05502 67.5143038,74.9761638 L69.4818469,68.8089204 L70.7428169,64.8555738 L83.7451204,62.0225123 C85.3183629,61.67973 86.3162772,60.1224542 85.9745877,58.5447477 L79.6437151,29.3038303 C79.3020256,27.7261238 77.7497144,26.7244504 76.1770376,27.0672327" id="Fill-9" fill="#F58522"></path>
                    <path d="M71.7542041,45.8474834 C73.2194049,52.5923297 68.9388276,59.2473469 62.1939743,60.7125462 C55.4491209,62.1777454 48.7940967,57.8977204 47.3288959,51.1528741 C45.8642428,44.4080279 50.1442724,37.7524629 56.8891257,36.2872637 C63.6339791,34.8226121 70.2890033,39.1026372 71.7542041,45.8474834" id="Fill-11" fill="#FEFEFE"></path>
                    <path d="M66.8788395,47 C67.7087443,50.5613692 65.2839986,54.0753518 61.4632729,54.8482806 C57.6419823,55.6217359 53.8715367,53.3619197 53.0416319,49.8010769 L66.8788395,47 Z" id="Fill-13" fill="#F58522"></path>
                    <path d="M64.9053481,42.6923671 C65.2498902,44.3401985 64.9186442,45.8138151 64.1653919,45.9838246 C63.4121396,46.154435 62.5224578,44.9559575 62.1779157,43.3081262 C61.8333736,41.6596941 62.1646196,40.1860775 62.9178719,40.0160679 C63.6711243,39.8460583 64.560806,41.0445358 64.9053481,42.6923671" id="Fill-15" fill="#F58522"></path>
                    <path d="M53.1779157,45.3076329 C53.5224578,46.9554642 54.4121396,48.1539417 55.1653919,47.9839321 C55.9186442,47.8139225 56.2498902,46.3403059 55.9053481,44.6918738 C55.560806,43.0440425 54.6711243,41.845565 53.9178719,42.0161754 C53.1646196,42.1855842 52.8333736,43.6598015 53.1779157,45.3076329" id="Fill-17" fill="#F58522"></path>
                    <path d="M60.5413508,49.145875 L55.0416319,50.2917499 L55.6820101,51.1432024 C56.1604666,51.7795 56.7530554,52.0884819 57.2832368,51.9779386 L61.0074382,51.2019791 L64.7316396,50.4265587 C65.261821,50.3160155 65.6671878,49.7988889 65.8268606,49.0299394 L66.0416319,48 L60.5413508,49.145875 Z" id="Fill-19" fill="#FEFEFE"></path>
                    <g id="Group-23" transform="translate(113.041632, 9.000000)">
                        <mask id="mask-2" fill="white">
                            <use xlink:href="#path-1"></use>
                        </mask>
                        <g id="Clip-22"></g>
                        <path d="M5.9193609,37.727591 L68.9825188,37.727591 C74.4327068,37.727591 76.9567669,30.8575313 72.768609,27.3490537 C72.4099624,27.0478896 72.0112782,26.7631731 71.5703008,26.4994418 C65.4789474,22.8548448 62.9577068,29.9869343 62.9577068,29.9869343 C62.9577068,29.9869343 64.8484962,1.70075522 52.4554511,0.235770149 C40.062406,-1.22921493 34.7097744,18.9816806 34.7097744,18.9816806 C34.7097744,18.9816806 32.0802632,10.0777701 24.9389098,14.2481284 C17.7964286,18.4184866 15.7663534,29.2450836 15.7663534,29.2450836 C15.7663534,29.2450836 10.9906015,25.7388746 5.60357143,25.9606358 C-1.98721805,26.2737104 -1.67763158,37.727591 5.9193609,37.727591" id="Fill-21" fill="#EFEEEE" mask="url(#mask-2)"></path>
                    </g>
                    <path d="M149.590965,9.6364319 C151.468998,10.3548405 153.603672,9.98184188 155.174307,8.75359488 C157.404793,7.00888823 160.082972,3.85716008 155.65565,0.870412097 C149.89323,-3.01682964 143.317547,7.23566699 149.590965,9.6364319" id="Fill-24" fill="#EFEEEE"></path>
                    <path d="M4.60595816,95.9725102 C12.6339803,91.6992092 16.2241446,95.8816709 16.2241446,95.8816709 C16.2241446,95.8816709 20.1937201,89.1413947 28.8592215,88.137758 C37.5247228,87.1341214 45.4553285,91.6469078 47.7864857,100.614674 C50.4600244,110.902638 31.4547132,111.293522 22.0110201,111.608982 C12.5667573,111.924993 5.79888169,113.206653 1.89368074,108.384462 C-1.1131246,104.671062 -0.629460765,98.7593499 4.60595816,95.9725102" id="Fill-26" fill="#EFEEEE"></path>
                    <path d="M116.041632,245.468421 C116.041632,245.468421 113.25321,251.95562 114.202208,253.80763 C113.757265,254.381008 112.997958,254.946933 111.715252,254.993376 C110.253063,255.047274 107.451744,254.769759 105.041632,254.251998 C105.68809,251.53132 105.402746,245.53608 105.484426,244 L116.041632,245.468421 Z" id="Fill-28" fill="#FEFEFE"></path>
                    <path d="M112.502236,260.124752 C117.129897,260.367418 122.333685,259.940263 124.912704,259.67873 C124.979354,259.93607 125.029624,260.214376 125.041632,260.542996 C125.099098,262.091758 108.171676,262.568703 105.270704,261.170363 C104.490673,260.794572 104.109976,259.985337 104.041632,259 C106.235436,259.454932 109.250504,259.954415 112.502236,260.124752" id="Fill-30" fill="#FEFEFE"></path>
                    <path d="M112.561317,259.920384 C109.291283,259.73204 106.259246,259.179757 104.053095,258.676733 C103.987774,257.646345 104.204186,256.440941 104.636442,255.297547 C104.730163,255.050671 104.813093,254.760331 104.890342,254.449708 C107.437867,254.972436 110.398903,255.252924 111.944458,255.199028 C113.300866,255.151508 114.102896,254.579521 114.573208,254 C114.596497,254.042305 114.618649,254.08519 114.643641,254.122279 C115.127018,254.851316 116.485698,255.359556 118.359563,256.088013 C121.066698,257.388458 124.363996,256.567277 125.041632,259.427212 C122.448098,259.716393 117.215023,260.188702 112.561317,259.920384" id="Fill-32" fill="#180F0E"></path>
                    <path d="M85.0416319,245.468421 C85.0416319,245.468421 82.2532098,251.95562 83.2027457,253.80763 C82.7572646,254.381008 81.9979582,254.946933 80.7152518,254.993376 C79.2530633,255.047274 76.4517443,254.769759 74.0416319,254.251998 C74.6880901,251.53132 74.4032831,245.53608 74.4844263,244 L85.0416319,245.468421 Z" id="Fill-34" fill="#FEFEFE"></path>
                    <path d="M81.5020097,260.124752 C86.1295466,260.367418 91.3331957,259.940263 93.9121452,259.67873 C93.9787935,259.93607 94.0290621,260.214376 94.0416319,260.542996 C94.0985345,262.091758 77.171566,262.568703 74.2706714,261.170363 C73.4906606,260.794572 73.1099746,259.985337 73.0416319,259 C75.235377,259.454932 78.2503644,259.954415 81.5020097,260.124752" id="Fill-36" fill="#FEFEFE"></path>
                    <path d="M81.5613168,259.920384 C78.2912834,259.73204 75.2592462,259.179757 73.0530955,258.676733 C72.9877743,257.646345 73.2041861,256.440941 73.6364417,255.297547 C73.7301634,255.050671 73.8130928,254.760331 73.8903422,254.449708 C76.4378669,254.972436 79.3989029,255.252924 80.944458,255.199028 C82.3008658,255.151508 83.1028959,254.579521 83.5737762,254 C83.5964966,254.042305 83.618649,254.08519 83.6436414,254.122279 C84.1270179,254.851316 85.4856977,255.359556 87.3595626,256.088013 C90.0666981,257.388458 93.363996,256.567277 94.0416319,259.427212 C91.4480984,259.716393 86.2150225,260.188702 81.5613168,259.920384" id="Fill-38" fill="#180F0E"></path>
                    <path d="M74.7834254,107 C74.7834254,107 70.9923976,114.056401 70.1942567,118.727029 C69.1817742,124.647239 77.0842144,158.345721 75.1918028,171.348412 C74.0738416,179.030738 73.1217132,206.549341 71.4910241,223.245219 C70.1147247,237.331374 68.764372,246.952708 72.2564496,250.568788 C74.0168718,252.391001 80.7065892,251.953874 83.1811077,251.954441 C92.7678224,251.954441 100.244963,175.03196 100.244963,165.558603 C100.244963,156.085813 104.041632,113.161736 104.041632,113.161736 L74.7834254,107 Z" id="Fill-40" fill="#C75627"></path>
                    <path d="M99.0800831,108 C99.0800831,108 95.6473601,115.217579 95.0824746,119.907762 C94.3665018,125.854011 103.317289,158.722033 102.074766,171.764325 C101.341317,179.470312 101.087062,205.648733 100.289908,222.356343 C99.6179083,236.452328 98.026983,246.940655 101.692538,250.366857 C103.540537,252.093243 111.118573,252.075153 113.588961,251.95079 C123.158754,251.470297 123.374674,174.665376 122.903372,165.231873 C122.431507,155.798936 118.387106,108.814578 118.387106,108.814578 L99.0800831,108 Z" id="Fill-42" fill="#C75627"></path>
                    <path d="M113.532609,251.951252 C123.159785,251.471368 123.376999,174.854142 122.902304,165.444257 C122.641987,160.274375 121.296167,143.799322 120.136936,130 C118.799057,132.738323 117.349451,137.189227 115.038361,143.63579 C109.777017,158.308038 114.653274,170.173729 114.525101,180.636425 C114.39636,191.098557 110.675365,229.573804 107.467629,237.484265 C105.415155,242.545314 105.988532,248.303349 106.668531,251.795614 C109.30686,252.054446 112.18055,252.018356 113.532609,251.951252" id="Fill-44" fill="#9C2D20"></path>
                    <path d="M73.8943248,140.815908 C69.3575929,139.106284 67.109432,123.137524 71.139047,96.9806734 C73.0331938,84.6848585 65.4087979,65.6983489 73.228983,61.4647785 C83.4675063,55.9225163 107.049292,57.8552578 113.639533,61.5157445 C122.878621,66.6474478 121.446059,83.1343615 123.438669,107.112135 C123.884317,112.47545 127.813761,137.831003 121.427846,140.126169 C106.621856,145.448711 84.7429819,144.903376 73.8943248,140.815908" id="Fill-46" fill="#3E120E"></path>
                    <path d="M175.989493,68 L107.09377,68 C104.303775,68 102.041632,70.2626848 102.041632,73.0533482 L102.041632,124.769842 C102.041632,127.560505 104.303775,129.82319 107.09377,129.82319 L130.159501,129.82319 L133.744944,136.035832 L139.340178,145.728616 C140.318539,147.423795 142.764725,147.423795 143.743651,145.728616 L149.33832,136.035832 L152.924327,129.82319 L175.989493,129.82319 C178.779489,129.82319 181.041632,127.560505 181.041632,124.769842 L181.041632,73.0533482 C181.041632,70.2626848 178.779489,68 175.989493,68" id="Fill-48" fill="#CECECD"></path>
                    <path d="M179.989493,68 L111.09377,68 C108.303775,68 106.041632,70.2626848 106.041632,73.0533482 L106.041632,124.769842 C106.041632,127.560505 108.303775,129.82319 111.09377,129.82319 L134.158936,129.82319 L137.744944,136.035832 L143.340178,145.728616 C144.318539,147.423795 146.764725,147.423795 147.743086,145.728616 L153.33832,136.035832 L156.924327,129.82319 L179.989493,129.82319 C182.779489,129.82319 185.041632,127.560505 185.041632,124.769842 L185.041632,73.0533482 C185.041632,70.2626848 182.779489,68 179.989493,68" id="Fill-50" fill="#EFEEEE"></path>
                    <path d="M105.184958,49.102582 C105.184958,49.102582 107.431238,48.5906124 106.982307,45.5109875 C106.689526,43.5038216 103.473275,40.8458186 102.189919,41.0069942 C100.906564,41.1681698 101.499716,42.2133015 101.34465,42.8490806 C100.504261,46.2973459 96.7805233,43.6136887 95.257521,48.1851638 C94.2007993,51.3568094 97.3096974,55.5970101 98.3984082,54.9299997 C99.4876612,54.2624316 105.184958,49.102582 105.184958,49.102582" id="Fill-52" fill="#3E120E"></path>
                    <path d="M98.177805,51 L95.0418873,59.3347899 C94.9942391,60.5559926 101.627315,64.1325266 103.648486,62.6430703 C104.239656,62.2071582 104.113333,61.0319264 103.606378,59.7485277 L100.571297,52.7501382 L98.177805,51 Z" id="Fill-54" fill="#FBCAAE"></path>
                    <path d="M101.766187,54.776507 C100.190487,54.4599691 98.0416319,54 98.0416319,54 C98.0416319,54 98.1065174,56.4544049 100.259825,58.3598145 C101.399138,59.368779 102.749647,59.8751159 104.041632,60 L101.766187,54.776507 Z" id="Fill-56" fill="#F58522"></path>
                    <path d="M100.175628,47.9721719 L98.2057277,52.6037877 C97.6760377,54.1820037 98.4692577,55.9072551 100.000993,56.4900306 C101.225539,56.955285 102.038748,57.0347056 103.663586,56.9885558 C105.017531,56.9504553 105.823901,55.7054839 105.986964,53.9153008 C106.198945,51.5933216 105.747104,49.3931565 105.440967,48.2297522 C104.742429,45.5777483 101.676328,45.049172 100.175628,47.9721719" id="Fill-58" fill="#FBCAAE"></path>
                    <path d="M100.338304,49.7509492 C100.146345,49.4871457 100.000599,49.1999534 99.8738115,48.9051461 C99.632086,48.3449036 99.1314536,47.5632837 98.4021299,48.3008457 C97.3410261,49.3745532 98.8061906,52.2959732 100.412954,51.9756015 C101.606177,51.7373625 100.821162,50.4156253 100.338304,49.7509492" id="Fill-60" fill="#FBCAAE"></path>
                    <path d="M103.041632,53 C103.041632,53 104.260345,53.2938862 106.041632,53.2573557 C106.041632,53.2573557 106.014391,53.6751994 105.281269,53.9066964 C104.547554,54.1377829 103.330617,53.9768843 103.041632,53" id="Fill-62" fill="#FEFEFE"></path>
                    <path d="M104.685935,56.0563226 C103.110959,55.5575747 101.665071,58.0107464 99.0258308,55.2908996 C98.5337214,54.7837995 98.3493917,53.6634064 98.2637094,53 L98.2174861,53.1127552 C97.6498409,54.8667253 98.4998994,56.7847571 100.141392,57.4326522 C101.453684,57.9504909 102.325726,58.0381895 104.06643,57.9874794 C104.951438,57.9612295 105.616603,57.4344419 106.041632,56.5771443 C105.751327,56.5974283 105.166771,56.2084527 104.685935,56.0563226" id="Fill-64" fill="#FBCAAE"></path>
                    <path d="M70.9477143,63.5410079 C67.5646345,66.3866517 39.9825304,111.456421 63.3500958,127.887448 C91.1844147,147.459733 122.27769,130.277048 119.914805,124.543129 C114.948723,112.494159 83.5017799,119.019563 77.5279717,109.381508 C73.8938106,103.517451 82.4062039,83.5558741 82.6504839,72.4453544 C82.7683731,67.0709974 76.9708319,58.4746064 70.9477143,63.5410079" id="Fill-66" fill="#9C2D20"></path>
                    <path d="M118.110065,119.309994 C118.644153,117.628213 118.342417,115.2848 119.379936,116.208802 C120.417992,117.132804 119.747827,118.833598 120.408311,119.552266 C121.069333,120.271478 125.871824,116.756902 126.254775,117.781398 C126.509179,118.461499 123.481604,119.792909 123.633817,119.946638 C123.786567,120.100367 126.636113,118.48377 126.915796,119.346933 C127.258409,120.406194 126.898585,121.689802 125.870748,122.630644 C126.295114,122.545903 126.66193,122.549162 126.754441,122.775681 C127.002391,123.384621 116.983262,127.13821 117.041888,123.281954 C117.0591,122.139581 117.288225,121.898939 118.110065,119.309994" id="Fill-68" fill="#FBCAAE"></path>
                    <path d="M102.041632,153.001755 C100.313169,152.903988 98.041874,156.904511 97.7722013,161.572446 C97.391521,168.155591 88.9747099,205.461209 86.4349043,213.361096 C83.8956799,221.260983 79.1950053,244.229372 79.045058,250.417495 C79.0194856,251.464107 79.1386298,252.308404 79.3501834,252.993901 C81.096663,253.019897 82.7402717,252.954342 83.7300404,252.954907 C93.6079662,252.954907 101.312237,176.281528 101.312237,166.838849 C101.312237,164.233621 101.610388,159.08646 102.041632,153.001755" id="Fill-70" fill="#9C2D20"></path>
                    <path d="M185.966645,104.736471 C184.72586,103.638485 181.044927,102.552723 181.279026,103.188874 C181.513124,103.824494 184.516866,105.320008 184.516866,105.320008 C184.516866,105.320008 180.827146,104.5866 179.812301,105.024519 C178.797455,105.462438 178.866492,108.997144 179.546194,109.679532 C180.225896,110.362452 183.404113,112.578618 185.02523,112.971363 C186.128569,113.239217 186.66141,111.567791 186.889232,110.472463 C187.00785,109.90168 187.053038,109.322926 187.039231,108.738857 C187.012244,107.572314 186.836513,105.506017 185.966645,104.736471" id="Fill-72" fill="#FBCAAE"></path>
                    <polygon id="Fill-74" fill="#FF8616" points="130.749345 90.4354472 127.041632 90.4354472 127.041632 87 138.041632 87 138.041632 90.4354472 134.311325 90.4354472 134.311325 111 130.749345 111"></polygon>
                    <polygon id="Fill-76" fill="#FF8616" points="139.041632 87 142.617199 87 142.617199 96.4746264 146.466065 96.4746264 146.466065 87 150.041632 87 150.041632 111 146.466065 111 146.466065 99.878378 142.617199 99.878378 142.617199 111 139.041632 111"></polygon>
                    <polygon id="Fill-78" fill="#FF8616" points="161.21902 111 159.009877 102.320697 158.97648 102.320697 156.616228 111 153.041632 111 157.004402 98.7919245 153.22121 87 157.036157 87 159.098571 94.9426741 159.131969 94.9426741 161.173578 87 164.781572 87 161.0159 98.2413608 165.041632 111"></polygon>
                </g>
            </g>
        </g>
    </g>
</svg>