<svg enable-background="new 0 0 129.368 124.42" height="124.42" viewBox="0 0 129.368 124.42" width="129.368" xmlns="http://www.w3.org/2000/svg"><g fill="#fff"><path clip-rule="evenodd" d="m42.683 29.572h13.667v-10.2h-13.646l-.021-5.4-20.233 10.5 20.212 10.5zm42.655 5.4 20.212-10.5-20.233-10.5-.021 5.4h-13.646v10.2h13.667zm.712 18.599c-2.888 2.46-9.9 10.5-9.9 10.5s-5.063 1.676-5.7-2.699c-.745-8.026-2.188-41.404-2.1-44.101.089-2.696-5.7-7.2-8.1-.6-.6 4.8-1.8 31.8-1.8 31.8l-19.8 8.4s-3.6 1.5-2.7 8.399c.9 6.9 3 22.8 3 22.8s1.088 6.012 6 6.301c1.178.068 20.4.6 20.4.6s6-.3 8.7-5.1c4.875-6.702 18-32.101 18-32.101s.162-6.316-6-4.199z" fill-rule="evenodd"/><path d="m19.629 109.739c0 .328.056.608.168.841.112.231.268.422.468.569.2.148.43.257.69.324.26.068.542.103.846.103.328 0 .608-.038.84-.114s.42-.174.564-.294.248-.258.312-.414.096-.314.096-.475c0-.327-.074-.569-.222-.726-.148-.156-.311-.266-.486-.33-.304-.112-.658-.218-1.062-.318s-.902-.229-1.494-.39c-.368-.096-.674-.222-.918-.378s-.438-.33-.582-.522c-.144-.191-.246-.396-.306-.611s-.09-.437-.09-.66c0-.432.09-.806.27-1.122.18-.315.417-.578.714-.786.296-.208.632-.361 1.008-.462.376-.1.756-.15 1.14-.15.448 0 .87.059 1.266.175.396.115.744.29 1.044.521.3.232.538.519.714.858.176.34.264.733.264 1.182h-1.5c-.04-.552-.228-.941-.564-1.17-.336-.228-.764-.342-1.284-.342-.176 0-.356.018-.54.054s-.352.096-.504.18-.278.198-.378.343c-.1.144-.15.323-.15.54 0 .304.094.542.282.714s.434.302.738.39c.032.008.158.042.378.103.22.06.466.126.738.197.272.072.538.143.798.21.26.068.446.118.558.15.28.088.524.208.732.36.208.151.382.325.522.521s.244.406.312.63c.068.225.102.448.102.672 0 .48-.098.891-.294 1.23-.196.34-.454.618-.774.834s-.684.374-1.092.474c-.408.101-.824.15-1.248.15-.488 0-.948-.061-1.38-.18-.432-.12-.808-.305-1.128-.553-.32-.247-.576-.565-.768-.954-.192-.388-.292-.846-.3-1.374z"/><path d="m25.581 104.027h1.524l1.548 6.553h.024l1.728-6.553h1.536l1.68 6.553h.024l1.596-6.553h1.524l-2.364 8.568h-1.524l-1.716-6.552h-.024l-1.752 6.552h-1.548z"/><path d="m37.749 104.027h1.5v8.568h-1.5z"/><path d="m41.084 104.027h3.78c.608 0 1.104.089 1.488.265s.68.396.888.66.35.552.426.863c.076.312.114.601.114.864s-.038.55-.114.858-.218.594-.426.857c-.208.265-.504.482-.888.654s-.88.258-1.488.258h-2.28v3.288h-1.5zm1.5 4.057h2.196c.168 0 .34-.024.516-.072s.338-.126.486-.234c.148-.107.268-.252.36-.432s.138-.406.138-.678c0-.28-.04-.512-.12-.696s-.188-.33-.324-.438-.292-.183-.468-.223-.364-.06-.564-.06h-2.22z"/><path d="m49.088 104.027h6.168v1.296h-4.668v2.244h4.32v1.225h-4.32v2.508h4.752v1.296h-6.252z"/><path d="m59.168 104.027h6.936v1.296h-2.724v7.272h-1.5v-7.272h-2.712z"/><path d="m70.748 103.823c.64 0 1.214.12 1.722.36s.938.564 1.29.972.622.885.81 1.429.282 1.12.282 1.728c0 .616-.094 1.196-.282 1.74s-.458 1.02-.81 1.428-.782.73-1.29.966-1.083.354-1.722.354c-.64 0-1.214-.118-1.722-.354-.508-.235-.938-.558-1.29-.966s-.622-.884-.81-1.428-.282-1.124-.282-1.74c0-.607.094-1.184.282-1.728s.458-1.021.81-1.429c.352-.407.782-.731 1.29-.972s1.082-.36 1.722-.36zm0 1.225c-.456 0-.85.092-1.182.275-.332.185-.602.431-.81.738-.208.309-.362.658-.462 1.05-.1.393-.15.792-.15 1.2s.05.809.15 1.2.254.742.462 1.05c.208.309.478.555.81.738s.726.276 1.182.276.85-.093 1.182-.276c.332-.184.602-.43.81-.738s.362-.658.462-1.05.15-.792.15-1.2-.05-.808-.15-1.2-.254-.741-.462-1.05c-.208-.308-.478-.554-.81-.738-.332-.183-.726-.275-1.182-.275z"/><path d="m78.584 104.027h1.56l2.148 6.78h.024l2.196-6.78h1.524l-2.928 8.568h-1.668z"/><path d="m86.888 104.027h1.5v8.568h-1.5z"/><path d="m90.224 104.027h6.168v1.296h-4.668v2.244h4.32v1.225h-4.32v2.508h4.752v1.296h-6.252z"/><path d="m96.944 104.027h1.524l1.548 6.553h.024l1.728-6.553h1.536l1.68 6.553h.024l1.596-6.553h1.524l-2.364 8.568h-1.524l-1.716-6.552h-.024l-1.752 6.552h-1.548z"/></g></svg>