<svg height="68" viewBox="0 0 323 68" width="323" xmlns="http://www.w3.org/2000/svg"><g fill="none"><g transform="translate(0 2.585551)"><path d="m169.379468.15513308v15.22889732h-15.280609v5.7140685h15.280609v15.6425855h5.946768v-15.6425855h15.203042v-5.7140685h-15.203042v-15.22889732z" fill="#f26f21"/><g fill="#58595b"><path d="m50.6509506 46.1003802v-4.4988593h2.973384c1.5254753 0 2.4821293-1.0342205 2.4821293-2.8441065v-15.2030418c0-4.0851711-2.0167301-6.6965779-5.9467681-6.6965779-5.4555133 0-8.6357414 5.2486692-8.6357414 14.2463878v6.9034221c0 2.2752851.6722433 3.4646387 2.6889734 3.5163498l2.5596958.0775665v4.4988593h-19.1589354v-4.4988593l2.973384-.0775665c1.7323194-.0775666 2.5596959-1.1117871 2.5596959-2.8958175v-15.0737643c0-4.0851711-2.0684411-6.6965779-5.9467681-6.6965779-5.4555133 0-8.713308 5.1969582-8.713308 14.0395437v7.3171103c0 2.2235741.8273764 3.3870722 2.8441065 3.3870722h2.6889734v4.4988593h-20.03802285v-4.5764258h3.46463878c1.86159696 0 2.68897337-1.0342206 2.68897337-2.9733841v-18.6676806c0-1.7840304-.90494295-2.973384-2.63726234-2.973384h-7.49809886v-4.4212928h18.3057034v7.3171103c1.861597-5.3262357 6.4897339-8.5064639 11.8935361-8.5064639 6.1536122 0 10.2904943 2.6372624 10.9110267 8.2996198 2.01673-5.2486692 6.5673003-8.2996198 12.1779467-8.2996198 6.4897339 0 11.1178708 3.2577947 11.1178708 10.2904943v16.3148289c0 2.3528517.8273764 3.5939164 2.7665399 3.5939164h2.973384v4.5764258h-19.495057z"/><path d="m94.3209125 28.0532319c-1.5254752 1.6547529-5.1193916 3.0509506-8.1444866 3.5939164-3.5939164.6980988-5.4555134 2.2752852-5.4555134 5.3262357 0 3.1026616 1.6547529 5.3779468 5.4555134 5.3779468 4.7574144 0 8.1444866-4.78327 8.1444866-9.8250951zm8.8425855 18.8745248c-5.041825 0-7.2653991-1.9391635-8.4288972-5.4555134-2.8441065 3.878327-6.4380229 5.4555134-11.5574145 5.4555134-7.0585551 0-11.686692-3.4646388-11.686692-9.5406845 0-7.0585551 6.6448669-8.2996197 11.6091255-9.2045627l3.8007604-.6980989c5.3262358-.9566539 7.4722434-2.068441 7.4722434-5.8174904 0-5.0418251-2.4821293-6.9034221-6.6448669-6.9034221-3.8007605 0-6.0243346 1.1634981-6.1536122 3.4646388 1.3961977.2844106 2.6889734 1.4479087 2.6889734 3.3870722 0 2.4821293-1.6547529 4.4988593-5.1711027 4.4988593-2.8958175 0-5.4038023-1.6547528-5.4038023-5.8174905 0-6.1536121 6.7741445-9.6182509 14.7117871-9.6182509 8.2996198 0 14.375665 3.5939163 14.375665 10.4973384v17.0129278c0 2.8182509.904943 3.878327 2.146008 3.878327 1.447909 0 2.352852-1.1117871 2.352852-4.0076046v-3.1026616h4.085361v3.5163498c.025665 4.78327-2.585742 8.4547529-8.196388 8.4547529"/><path d="m129.975665 14.7117871c-5.455513 0-6.5673 3.8524715-6.5673 7.3946768 0 3.3095057 1.111787 7.1878327 6.5673 7.1878327 5.53308 0 6.567301-3.7490495 6.567301-7.1878327 0-3.4646388-1.085932-7.3946768-6.567301-7.3946768m1.396198 30.5353612c-2.973384-.0775666-5.171103-.0775666-7.058555-.2844107-2.482129.5429658-4.912548 2.2752852-4.912548 5.0418251 0 3.9300381 3.180229 6.0243346 11.06616 6.0243346 8.506464 0 11.738403-2.973384 11.738403-5.946768 0-2.8958175-1.732319-4.6798479-10.83346-4.834981m-.904943 14.660076c-10.781749 0-18.331559-3.4646387-18.331559-8.9201521 0-3.5163498 2.352852-6.0760456 6.774145-7.1102661-3.51635-1.3186312-5.041825-3.3095057-5.041825-6.2053232 0-2.6372624 2.146007-5.3262358 6.489733-6.7741445-3.516349-1.5254753-6.231178-3.7490494-6.231178-8.9201521 0-6.0760456 5.326235-10.9110266 15.952851-10.9110266 3.387073 0 6.567301.904943 8.635742 1.9908745-.542966-.9049429-.904943-2.068441-.904943-3.59391633 0-3.878327 2.76654-7.26539924 7.187833-7.26539924 3.671483 0 5.326235 2.06844107 5.326235 4.57642586 0 2.76653992-1.654752 4.08517111-4.085171 4.08517111-1.732319 0-3.257794-1.11178708-3.723194-2.22357416-.542965.69809886-.698099 1.99087456-.698099 3.18022816 0 1.4479087.413689 2.6889734 1.241065 3.8007604 1.447909.956654 2.688974 3.0509506 2.688974 6.1536122 0 7.3171103-6.644867 11.0661597-15.409886 11.0661597-3.930038 0-5.455514-.6205323-6.360457-.6980989-1.241064.1292776-2.688973 1.1634981-2.688973 2.6889734 0 4.2144487 6.619011 2.6889734 16.728517 3.4646388 8.790875.6980989 12.591862 4.7057034 12.591862 9.669962.051484 8.4288973-8.73939 11.9452471-20.141672 11.9452471"/></g></g><g fill="#58595b" transform="translate(198.570342 12.927757)"><path d="m25.338403 36.6631179-20.89125471-28.57034223v28.57034223h-4.44714829v-35.83574147h4.57642586l20.63269964 27.97566537v-27.97566537h4.4471483v35.80988597h-4.3178708z"/><path d="m36.5596958 18.7711027c0-10.57490498 7.1361217-18.53840308 17.7885932-18.53840308 10.5749049 0 17.7885931 7.93764259 17.7885931 18.53840308 0 10.5749049-7.1878327 18.538403-17.7885931 18.538403-10.6524715 0-17.7885932-7.9634981-17.7885932-18.538403zm30.9231939 0c0-8.3771864-5.1452471-14.55665403-13.1604562-14.55665403-8.0669202 0-13.1604563 6.17946763-13.1604563 14.55665403 0 8.3254752 5.0935361 14.556654 13.1604563 14.556654 8.0152091 0 13.1604562-6.2311788 13.1604562-14.556654z"/><path d="m105.412928 36.6631179-7.8859318-28.90646391-7.8859316 28.90646391h-4.8349809l-10.2129278-35.80988596h4.938403l7.9376426 29.86311786 8.2220533-29.86311786h3.6973384l8.2220528 29.86311786 7.885932-29.86311786h4.938403l-10.212928 35.80988596z"/></g><g transform="translate(186.676806)"><path d="m103.034221 8.81673004 1.55133 2.35285166-49.6684407-1.18935356z" fill="#929497"/><path d="m135.663878 1.5513308h-28.415209l27.613688-1.08593156z" fill="#929497"/><g transform="translate(0 52.745247)"><path d="m112.135361 4.34372624-4.447148 3.28365019-107.45551338-1.65475286z" fill="#929497"/><path d="m94.3984791.07756654 2.0684411 2.35285171-66.0608365-1.1634981z" fill="#929497"/><g fill="#a6a8ab" transform="translate(20.942966 10.08365)"><path d="m49.7201521 2.35285171 2.4045627 2.53384031-51.96958172-.67224335z"/><path d="m29.8114068 1.26692015h-28.41520908l27.58783268-1.08593156z"/></g></g><g fill="#a6a8ab" transform="translate(78.342205)"><path d="m49.7201521 2.19771863 2.4304182 2.50798479-51.99543722-.64638783z"/><path d="m29.8114068 1.08593156h-28.41520908l27.61368818-1.08593156z"/></g></g></g></svg>