<?xml version="1.0" encoding="UTF-8"?>
<svg width="95px" height="80px" viewBox="0 0 95 80" version="1.1" xmlns="http://www.w3.org/2000/svg" xmlns:xlink="http://www.w3.org/1999/xlink">
    <!-- Generator: Sketch 64 (93537) - https://sketch.com -->
    <title>Icon</title>
    <desc>Created with Sketch.</desc>
    <g id="Desktop" stroke="none" stroke-width="1" fill="none" fill-rule="evenodd">
        <g id="04-Services---App-Submission-Services-LP-" transform="translate(-178.000000, -2187.000000)" fill-rule="nonzero">
            <g id="HIW" transform="translate(0.000000, 1374.000000)">
                <g id="Steps" transform="translate(179.000000, 508.000000)">
                    <g id="2" transform="translate(0.000000, 306.000000)">
                        <g id="Icon">
                            <path d="M8.6875,73 C8.308,73 8,72.667027 8,72.2567568 L8,23.2874324 C8,20.3724324 10.1615,18 12.819375,18 L18.3125,18 C18.692,18 19,18.332973 19,18.7432432 C19,19.1535135 18.692,19.4864865 18.3125,19.4864865 L12.819375,19.4864865 C10.9205,19.4864865 9.375,21.1914865 9.375,23.2874324 L9.375,72.2567568 C9.375,72.667027 9.067,73 8.6875,73 Z" id="Path" stroke="#333333" fill="#333333"></path>
                            <path d="M51.3125,20 L41.6875,20 C41.308,20 41,19.552 41,19 C41,18.448 41.308,18 41.6875,18 L51.3125,18 C51.692,18 52,18.448 52,19 C52,19.552 51.692,20 51.3125,20 Z" id="Path" stroke="#333333" fill="#333333"></path>
                            <path d="M85.25,73 C84.836,73 84.5,72.667027 84.5,72.2567568 L84.5,23.2874324 C84.5,21.1914865 82.814,19.4864865 80.7425,19.4864865 L74.75,19.4864865 C74.336,19.4864865 74,19.1535135 74,18.7432432 C74,18.332973 74.336,18 74.75,18 L80.7425,18 C83.642,18 86,20.3724324 86,23.2874324 L86,72.2567568 C86,72.667027 85.664,73 85.25,73 Z" id="Path" stroke="#333333" fill="#333333"></path>
                            <path d="M80.3,31 C79.9136,31 79.6,30.664 79.6,30.25 L79.6,23.5 L74.7,23.5 C74.3136,23.5 74,23.164 74,22.75 C74,22.336 74.3136,22 74.7,22 L80.3,22 C80.6864,22 81,22.336 81,22.75 L81,30.25 C81,30.664 80.6864,31 80.3,31 Z" id="Path" stroke="#333333" fill="#333333"></path>
                            <path d="M51.3125,24 L41.6875,24 C41.308,24 41,23.552 41,23 C41,22.448 41.308,22 41.6875,22 L51.3125,22 C51.692,22 52,22.448 52,23 C52,23.552 51.692,24 51.3125,24 Z" id="Path" stroke="#333333" fill="#333333"></path>
                            <path d="M80.25,69 L12.75,69 C12.336,69 12,68.6603871 12,68.2419355 L12,22.7580645 C12,22.3396129 12.336,22 12.75,22 L18.75,22 C19.164,22 19.5,22.3396129 19.5,22.7580645 C19.5,23.1765161 19.164,23.516129 18.75,23.516129 L13.5,23.516129 L13.5,67.483871 L79.5,67.483871 L79.5,51.5645161 C79.5,51.1460645 79.836,50.8064516 80.25,50.8064516 C80.664,50.8064516 81,51.1460645 81,51.5645161 L81,68.2419355 C81,68.6603871 80.664,69 80.25,69 Z" id="Path" stroke="#333333" fill="#333333"></path>
                            <path d="M80,45 C79.448,45 79,44.664 79,44.25 L79,36.75 C79,36.336 79.448,36 80,36 C80.552,36 81,36.336 81,36.75 L81,44.25 C81,44.664 80.552,45 80,45 Z" id="Path" stroke="#333333" fill="#333333"></path>
                            <path d="M87.753,78 L5.2485,78 C2.3535,78 0,75.6465 0,72.7515 C0,72.3375 0.336,72.0015 0.75,72.0015 L38.25,72 L38.25,73.5 L1.575,73.5 C1.923,75.21 3.438,76.5 5.247,76.5 L87.7515,76.5 C89.5605,76.5 91.0755,75.21 91.4235,73.5015 L54.75,73.5 C54.336,73.5 54,73.164 54,72.75 C54,72.336 54.336,72 54.75,72 L92.25,72 C92.664,72 93,72.336 93,72.75 C93,75.645 90.6465,78 87.753,78 Z" id="Path" stroke="#333333" fill="#333333"></path>
                            <path d="M53.75,75 L40.25,75 C39.0095,75 38,73.9905 38,72.75 C38,72.336 38.336,72 38.75,72 C39.164,72 39.5,72.336 39.5,72.75 C39.5,73.164 39.836,73.5 40.25,73.5 L53.75,73.5 C54.1625,73.5 54.5,73.164 54.5,72.75 C54.5,72.336 54.836,72 55.25,72 C55.664,72 56,72.336 56,72.75 C56,73.9905 54.9905,75 53.75,75 Z" id="Path" stroke="#333333" fill="#333333"></path>
                            <path d="M37.25,36 L23.75,36 C23.336,36 23,35.6416 23,35.2 L23,28.8 C23,28.3584 23.336,28 23.75,28 L37.25,28 C37.664,28 38,28.3584 38,28.8 L38,35.2 C38,35.6416 37.664,36 37.25,36 Z M24.5,34.4 L36.5,34.4 L36.5,29.6 L24.5,29.6 L24.5,34.4 Z" id="Shape" fill="#000000"></path>
                            <path d="M51.7505283,27 C51.5644996,27 51.3784708,26.9296633 51.2329483,26.78899 C50.9329019,26.4984689 50.9209,26.0137574 51.2074443,25.7079457 L57.2083727,19.2966042 C57.3478942,19.1482855 57.539924,19.0626582 57.7409551,19.0596001 C57.9524878,19.0794779 58.1385166,19.1375821 58.2795384,19.2828426 L62.187643,23.2660396 L67.6634901,16.2874174 C67.7970107,16.1176919 67.9950413,16.013716 68.2080743,16.0014835 C68.4136061,15.987722 68.6296395,16.0702911 68.7796627,16.224726 L74.7805911,22.3409593 C75.0731363,22.6391257 75.0731363,23.1238372 74.7805911,23.4220035 C74.4880458,23.7201699 74.0124722,23.7201699 73.719927,23.4220035 L68.3115903,17.9097483 L62.8357432,24.8883705 C62.7022226,25.0580959 62.5041919,25.1620719 62.291159,25.1743044 C62.0856272,25.1880659 61.8695937,25.1054967 61.7195705,24.9510618 L57.7619583,20.917406 L52.2906119,26.762996 C52.1465896,26.920489 51.948559,27 51.7505283,27 Z" id="Path" fill="#000000"></path>
                            <path d="M62,18 C60.3455,18 59,16.6545 59,15 C59,13.3455 60.3455,12 62,12 C63.6545,12 65,13.3455 65,15 C65,16.6545 63.6545,18 62,18 Z M62,13.5 C61.172,13.5 60.5,14.1735 60.5,15 C60.5,15.8265 61.172,16.5 62,16.5 C62.828,16.5 63.5,15.8265 63.5,15 C63.5,14.1735 62.828,13.5 62,13.5 Z" id="Shape" fill="#000000"></path>
                            <path d="M74.25,35 L51.75,35 C51.336,35 51,34.6591304 51,34.2391304 L51,0.760869565 C51,0.340869565 51.336,0 51.75,0 L74.25,0 C74.664,0 75,0.340869565 75,0.760869565 L75,34.2391304 C75,34.6591304 74.664,35 74.25,35 Z M52.5,33.4782609 L73.5,33.4782609 L73.5,1.52173913 L52.5,1.52173913 L52.5,33.4782609 Z" id="Shape" stroke="#F36F21" fill="#F36F21"></path>
                            <path d="M38.994,51 L21.006,51 C19.3485,51 18,49.6515 18,47.994 L18,15.006 C18,13.3485 19.3485,12 21.006,12 L38.9925,12 C40.6515,12 42,13.3485 42,15.006 L42,47.9925 C42,49.6515 40.6515,51 38.994,51 Z M21.006,13.5 C20.1765,13.5 19.5,14.1765 19.5,15.006 L19.5,47.9925 C19.5,48.8235 20.1765,49.5 21.006,49.5 L38.9925,49.5 C39.8235,49.5 40.5,48.8235 40.5,47.994 L40.5,15.006 C40.5,14.1765 39.8235,13.5 38.994,13.5 L21.006,13.5 Z" id="Shape" stroke="#F36F21" fill="#F36F21"></path>
                            <path d="M63.5,64 C59.3645,64 56,60.6355 56,56.5 C56,52.3645 59.3645,49 63.5,49 C67.6355,49 71,52.3645 71,56.5 C71,60.6355 67.6355,64 63.5,64 Z M63.5,50.5 C60.191,50.5 57.5,53.191 57.5,56.5 C57.5,59.809 60.191,62.5 63.5,62.5 C66.809,62.5 69.5,59.809 69.5,56.5 C69.5,53.191 66.809,50.5 63.5,50.5 Z" id="Shape" stroke="#F36F21" fill="#F36F21"></path>
                            <path d="M74.25,42 L45.75,42 C45.336,42 45,41.552 45,41 C45,40.448 45.336,40 45.75,40 L74.25,40 C74.664,40 75,40.448 75,41 C75,41.552 74.664,42 74.25,42 Z" id="Path" stroke="#E8E6E6" fill="#E8E6E6"></path>
                            <path d="M64,43 C63.448,43 63,42.6266667 63,42.1666667 L63,38.8333333 C63,38.3733333 63.448,38 64,38 C64.552,38 65,38.3733333 65,38.8333333 L65,42.1666667 C65,42.6266667 64.552,43 64,43 Z" id="Path" stroke="#F36F21" fill="#F36F21"></path>
                            <path d="M52.2391304,59 L18.7608696,59 C18.3408696,59 18,58.552 18,58 C18,57.448 18.3408696,57 18.7608696,57 L52.2391304,57 C52.6591304,57 53,57.448 53,58 C53,58.552 52.6591304,59 52.2391304,59 Z" id="Path" stroke="#E8E6E6" fill="#E8E6E6"></path>
                            <path d="M29,60 C28.448,60 28,59.6266667 28,59.1666667 L28,55.8333333 C28,55.3733333 28.448,55 29,55 C29.552,55 30,55.3733333 30,55.8333333 L30,59.1666667 C30,59.6266667 29.552,60 29,60 Z" id="Path" stroke="#F36F21" fill="#F36F21"></path>
                        </g>
                    </g>
                </g>
            </g>
        </g>
    </g>
</svg>