<?xml version="1.0" encoding="UTF-8"?>
<svg width="71px" height="75px" viewBox="0 0 71 75" version="1.1" xmlns="http://www.w3.org/2000/svg" xmlns:xlink="http://www.w3.org/1999/xlink">
    <!-- Generator: Sketch 64 (93537) - https://sketch.com -->
    <title>Icon</title>
    <desc>Created with Sketch.</desc>
    <g id="Desktop" stroke="none" stroke-width="1" fill="none" fill-rule="evenodd">
        <g id="04-Services---App-Submission-Services-LP-" transform="translate(-1068.000000, -1885.000000)" fill-rule="nonzero">
            <g id="HIW" transform="translate(0.000000, 1374.000000)">
                <g id="Steps" transform="translate(179.000000, 508.000000)">
                    <g id="4" transform="translate(889.000000, 3.000000)">
                        <g id="Icon">
                            <path d="M65.5737352,0 L5.50269107,0 C2.44564047,0 0,2.45901639 0,5.53278689 L0,52.3309426 C0,55.4047131 2.44564047,57.8637295 5.50269107,57.8637295 L25.679225,57.8637295 C26.7491927,57.8637295 27.5898816,57.0184426 27.5898816,55.942623 C27.5898816,54.8668033 26.7491927,54.0215164 25.679225,54.0215164 L5.50269107,54.0215164 C4.58557589,54.0215164 3.82131324,53.2530738 3.82131324,52.3309426 L3.82131324,17.289959 L67.1786868,17.289959 L67.1786868,52.2540984 C67.1786868,53.1762295 66.4144241,53.9446721 65.4973089,53.9446721 L45.5500538,53.9446721 C44.4800861,53.9446721 43.6393972,54.789959 43.6393972,55.8657787 C43.6393972,56.9415984 44.4800861,57.7868852 45.5500538,57.7868852 L65.4973089,57.7868852 C68.5543595,57.7868852 71,55.3278689 71,52.2540984 L71,5.45594262 C71,2.45901639 68.5543595,0 65.5737352,0 Z M3.8977395,13.4477459 L3.8977395,5.45594262 C3.8977395,4.53381148 4.66200215,3.76536885 5.57911733,3.76536885 L65.5737352,3.76536885 C66.4908504,3.76536885 67.255113,4.53381148 67.255113,5.45594262 L67.255113,13.4477459 L3.8977395,13.4477459 L3.8977395,13.4477459 Z M18.7244349,8.68340164 C18.7244349,9.9897541 17.6544672,10.9887295 16.4316469,10.9887295 C15.2088267,10.9887295 14.138859,9.91290984 14.138859,8.68340164 C14.138859,7.37704918 15.2088267,6.37807377 16.4316469,6.37807377 C17.6544672,6.37807377 18.7244349,7.37704918 18.7244349,8.68340164 Z M26.3670614,8.68340164 C26.3670614,9.9897541 25.2970936,10.9887295 24.0742734,10.9887295 C22.7750269,10.9887295 21.7814855,9.91290984 21.7814855,8.68340164 C21.7814855,7.37704918 22.8514532,6.37807377 24.0742734,6.37807377 C25.2970936,6.30122951 26.3670614,7.37704918 26.3670614,8.68340164 Z M11.0818084,8.68340164 C11.0818084,9.9897541 10.0118407,10.9887295 8.78902045,10.9887295 C7.56620022,10.9887295 6.49623251,9.91290984 6.49623251,8.68340164 C6.49623251,7.37704918 7.56620022,6.37807377 8.78902045,6.37807377 C10.0118407,6.37807377 11.0818084,7.37704918 11.0818084,8.68340164 Z" id="Shape" fill="#000000"></path>
                            <g id="Path-2" transform="translate(25.793864, 34.848873)" fill="#F36F21">
                                <path d="M0.573196986,11.1039959 C-0.191065662,10.3355533 -0.191065662,9.10604508 0.573196986,8.41444672 L8.368676,0.576331967 C9.13293864,-0.192110656 10.3557589,-0.192110656 11.0435953,0.576331967 L18.9155005,8.41444672 C19.6797632,9.18288934 19.6797632,10.4123975 18.9155005,11.1039959 C18.5333692,11.4882172 18.0748116,11.6419057 17.5398278,11.6419057 C17.0048439,11.6419057 16.5462863,11.4882172 16.164155,11.1039959 L11.6550054,6.57018443 L11.6550054,38.2300205 C11.6550054,39.3058402 10.8143165,40.151127 9.74434876,40.151127 C8.67438105,40.151127 7.83369214,39.3058402 7.83369214,38.2300205 L7.83369214,6.57018443 L3.32454252,11.1039959 C2.56027987,11.8724385 1.33745963,11.8724385 0.573196986,11.1039959 Z" id="Path-3"></path>
                            </g>
                            <g id="Path-4" transform="translate(16.813778, 26.972336)" fill="#E8E6E6">
                                <path d="M35.5382131,3.84221311 L1.91065662,3.84221311 C0.840688913,3.84221311 -3.97903932e-13,2.99692623 -3.97903932e-13,1.92110656 C-3.97903932e-13,0.845286885 0.840688913,1.95399252e-13 1.91065662,1.95399252e-13 L35.5382131,1.95399252e-13 C36.6081808,1.95399252e-13 37.4488698,0.845286885 37.4488698,1.92110656 C37.4488698,2.99692623 36.6081808,3.84221311 35.5382131,3.84221311 Z" id="Path"></path>
                            </g>
                        </g>
                    </g>
                </g>
            </g>
        </g>
    </g>
</svg>