<?xml version="1.0" encoding="UTF-8"?>
<svg width="80px" height="80px" viewBox="0 0 80 80" version="1.1" xmlns="http://www.w3.org/2000/svg" xmlns:xlink="http://www.w3.org/1999/xlink">
    <!-- Generator: Sketch 64 (93537) - https://sketch.com -->
    <title>Icon</title>
    <desc>Created with Sketch.</desc>
    <g id="Desktop" stroke="none" stroke-width="1" fill="none" fill-rule="evenodd">
        <g id="05-Services---App-Updation-Services-LP" transform="translate(-180.000000, -2210.000000)" fill-rule="nonzero">
            <g id="HIW" transform="translate(0.000000, 1374.000000)">
                <g id="Steps" transform="translate(179.000000, 507.000000)">
                    <g id="2" transform="translate(0.000000, 329.000000)">
                        <g id="Icon" transform="translate(1.000000, 0.000000)">
                            <g id="Group">
                                <path d="M78.6666667,0 L1.33333333,0 C0.596,0 0,0.596 0,1.33333333 L0,62.6666667 C0,63.404 0.596,64 1.33333333,64 L30.6666667,64 L30.6666667,77.3333333 L26.6666667,77.3333333 L26.6666667,80 L32,80 L48,80 L48,77.3333333 L33.3333333,77.3333333 L33.3333333,64 L46.6666667,64 L46.6666667,61.3333333 L32,61.3333333 L2.66666667,61.3333333 L2.66666667,50.6666667 L6.66666667,50.6666667 L45.3333333,50.6666667 L46.6666667,50.6666667 L46.6666667,48 L45.3333333,48 L8,48 L8,8 L72,8 L72,29.3333333 L74.6666667,29.3333333 L74.6666667,6.66666667 C74.6666667,5.92933333 74.0706667,5.33333333 73.3333333,5.33333333 L6.66666667,5.33333333 C5.92933333,5.33333333 5.33333333,5.92933333 5.33333333,6.66666667 L5.33333333,48 L2.66666667,48 L2.66666667,2.66666667 L77.3333333,2.66666667 L77.3333333,29.3333333 L80,29.3333333 L80,1.33333333 C80,0.596 79.404,0 78.6666667,0 Z" id="Path" fill="#000000"></path>
                                <path d="M78.6666667,34.6666667 L52,34.6666667 C51.2626667,34.6666667 50.6666667,35.2626667 50.6666667,36 L50.6666667,78.6666667 C50.6666667,79.404 51.2626667,80 52,80 L78.6666667,80 C79.404,80 80,79.404 80,78.6666667 L80,36 C80,35.2626667 79.404,34.6666667 78.6666667,34.6666667 Z M77.3333333,37.3333333 L77.3333333,42.6666667 L53.3333333,42.6666667 L53.3333333,37.3333333 L77.3333333,37.3333333 Z M77.3333333,45.3333333 L77.3333333,70.6666667 L53.3333333,70.6666667 L53.3333333,45.3333333 L77.3333333,45.3333333 Z M53.3333333,77.3333333 L53.3333333,73.3333333 L77.3333333,73.3333333 L77.3333333,77.3333333 L53.3333333,77.3333333 Z" id="Shape" fill="#000000"></path>
                                <rect id="Rectangle" fill="#000000" x="62.6666667" y="38.6666667" width="5.33333333" height="2.66666667"></rect>
                                <path d="M57.3333333,58.6666667 L73.3333333,58.6666667 C74.0706667,58.6666667 74.6666667,58.0706667 74.6666667,57.3333333 L74.6666667,49.3333333 C74.6666667,48.596 74.0706667,48 73.3333333,48 L57.3333333,48 C56.596,48 56,48.596 56,49.3333333 L56,57.3333333 C56,58.0706667 56.596,58.6666667 57.3333333,58.6666667 Z M58.6666667,50.6666667 L72,50.6666667 L72,56 L58.6666667,56 L58.6666667,50.6666667 Z" id="Shape" fill="#F36F21"></path>
                                <rect id="Rectangle" fill="#E8E6E6" x="56" y="61.3333333" width="18.6666667" height="2.66666667"></rect>
                                <rect id="Rectangle" fill="#E8E6E6" x="56" y="65.3333333" width="18.6666667" height="2.66666667"></rect>
                                <path d="M69.3333333,25.3333333 L69.3333333,12 C69.3333333,11.2626667 68.7373333,10.6666667 68,10.6666667 L12,10.6666667 C11.2626667,10.6666667 10.6666667,11.2626667 10.6666667,12 L10.6666667,25.3333333 C10.6666667,26.0706667 11.2626667,26.6666667 12,26.6666667 L68,26.6666667 C68.7373333,26.6666667 69.3333333,26.0706667 69.3333333,25.3333333 Z M66.6666667,24 L13.3333333,24 L13.3333333,13.3333333 L66.6666667,13.3333333 L66.6666667,24 Z" id="Shape" fill="#000000"></path>
                                <path d="M12,29.3333333 C11.2626667,29.3333333 10.6666667,29.9293333 10.6666667,30.6666667 L10.6666667,44 C10.6666667,44.7373333 11.2626667,45.3333333 12,45.3333333 L28,45.3333333 C28.7373333,45.3333333 29.3333333,44.7373333 29.3333333,44 L29.3333333,30.6666667 C29.3333333,29.9293333 28.7373333,29.3333333 28,29.3333333 L12,29.3333333 Z M26.6666667,42.6666667 L13.3333333,42.6666667 L13.3333333,32 L26.6666667,32 L26.6666667,42.6666667 Z" id="Shape" fill="#F36F21"></path>
                                <rect id="Rectangle" fill="#E8E6E6" x="32" y="30.6666667" width="10.6666667" height="2.66666667"></rect>
                                <rect id="Rectangle" fill="#E8E6E6" x="32" y="36" width="13.3333333" height="2.66666667"></rect>
                                <rect id="Rectangle" fill="#E8E6E6" x="32" y="41.3333333" width="13.3333333" height="2.66666667"></rect>
                            </g>
                        </g>
                    </g>
                </g>
            </g>
        </g>
    </g>
</svg>