<?xml version="1.0" encoding="UTF-8"?>
<svg width="76px" height="76px" viewBox="0 0 76 76" version="1.1" xmlns="http://www.w3.org/2000/svg" xmlns:xlink="http://www.w3.org/1999/xlink">
    <!-- Generator: Sketch 64 (93537) - https://sketch.com -->
    <title>Icon</title>
    <desc>Created with Sketch.</desc>
    <g id="Desktop" stroke="none" stroke-width="1" fill="none" fill-rule="evenodd">
        <g id="05-Services---App-Updation-Services-LP" transform="translate(-1067.000000, -1884.000000)" fill-rule="nonzero">
            <g id="HIW" transform="translate(0.000000, 1374.000000)">
                <g id="Steps" transform="translate(179.000000, 507.000000)">
                    <g id="4" transform="translate(889.000000, 4.000000)">
                        <g id="Icon">
                            <path d="M66.3846154,24 C66.0449231,24 65.7692308,23.7352727 65.7692308,23.4090909 L65.7692308,12.1818182 L51.6153846,12.1818182 C51.2756923,12.1818182 51,11.9170909 51,11.5909091 C51,11.2647273 51.2756923,11 51.6153846,11 L66.3846154,11 C66.7243077,11 67,11.2647273 67,11.5909091 L67,23.4090909 C67,23.7352727 66.7243077,24 66.3846154,24 Z" id="Path" stroke="#E8E6E6" fill="#E8E6E6"></path>
                            <path d="M7.59210526,32 C7.26526316,32 7,31.7345185 7,31.4074074 L7,0.592592593 C7,0.265481481 7.26526316,0 7.59210526,0 L51.4078947,0 C51.7347368,0 52,0.265481481 52,0.592592593 L52,23.1111111 C52,23.4382222 51.7347368,23.7037037 51.4078947,23.7037037 C51.0810526,23.7037037 50.8157895,23.4382222 50.8157895,23.1111111 L50.8157895,1.18518519 L8.18421053,1.18518519 L8.18421053,31.4074074 C8.18421053,31.7345185 7.91894737,32 7.59210526,32 Z" id="Path" stroke="#333333" fill="#333333"></path>
                            <path d="M69.8261613,74 L4.17383871,74 C1.87148387,74 0,72.139093 0,69.8523953 L0,31.8953488 C0,31.568 0.267354839,31.3023256 0.596774194,31.3023256 L29.5322581,31.3023256 C29.8616774,31.3023256 30.1290323,31.568 30.1290323,31.8953488 C30.1290323,32.2226977 29.8616774,32.4883721 29.5322581,32.4883721 L1.19354839,32.4883721 L1.19354839,69.8523953 C1.19354839,71.4855814 2.53032258,72.8139535 4.17383871,72.8139535 L69.8261613,72.8139535 C71.4696774,72.8139535 72.8064516,71.4855814 72.8064516,69.8523953 L72.8064516,24.1860465 L48.6454516,24.1860465 L42.8567419,32.2404884 C42.7445484,32.3958605 42.563129,32.4883721 42.3709677,32.4883721 L28.0483871,32.4883721 C27.7189677,32.4883721 27.4516129,32.2226977 27.4516129,31.8953488 C27.4516129,31.568 27.7189677,31.3023256 28.0483871,31.3023256 L42.0642258,31.3023256 L47.8529355,23.2478837 C47.965129,23.0925116 48.1465484,23 48.3387097,23 L73.4032258,23 C73.7326452,23 74,23.2656744 74,23.5930233 L74,69.8523953 C74,72.139093 72.1285161,74 69.8261613,74 Z" id="Path" stroke="#333333" fill="#333333"></path>
                            <path d="M47.4,9 L12.6,9 C12.2688,9 12,8.70133333 12,8.33333333 L12,5.66666667 C12,5.29866667 12.2688,5 12.6,5 L47.4,5 C47.7312,5 48,5.29866667 48,5.66666667 L48,8.33333333 C48,8.70133333 47.7312,9 47.4,9 Z M13.2,7.66666667 L46.8,7.66666667 L46.8,6.33333333 L13.2,6.33333333 L13.2,7.66666667 Z" id="Shape" stroke="#E8E6E6" fill="#E8E6E6"></path>
                            <path d="M28.3928571,29 L12.6071429,29 C12.272,29 12,28.728 12,28.3928571 L12,12.6071429 C12,12.272 12.272,12 12.6071429,12 L28.3928571,12 C28.728,12 29,12.272 29,12.6071429 L29,28.3928571 C29,28.728 28.728,29 28.3928571,29 Z M13.2142857,27.7857143 L27.7857143,27.7857143 L27.7857143,13.2142857 L13.2142857,13.2142857 L13.2142857,27.7857143 Z" id="Shape" stroke="#F36F21" fill="#F36F21"></path>
                            <path d="M47.3846154,13 L32.6153846,13 C32.2756923,13 32,12.776 32,12.5 C32,12.224 32.2756923,12 32.6153846,12 L47.3846154,12 C47.7243077,12 48,12.224 48,12.5 C48,12.776 47.7243077,13 47.3846154,13 Z" id="Path" stroke="#333333" fill="#333333"></path>
                            <path d="M47.3846154,18 L32.6153846,18 C32.2756923,18 32,17.776 32,17.5 C32,17.224 32.2756923,17 32.6153846,17 L47.3846154,17 C47.7243077,17 48,17.224 48,17.5 C48,17.776 47.7243077,18 47.3846154,18 Z" id="Path" stroke="#333333" fill="#333333"></path>
                            <path d="M44.4090909,23 L32.5909091,23 C32.2647273,23 32,22.776 32,22.5 C32,22.224 32.2647273,22 32.5909091,22 L44.4090909,22 C44.7352727,22 45,22.224 45,22.5 C45,22.776 44.7352727,23 44.4090909,23 Z" id="Path" stroke="#333333" fill="#333333"></path>
                            <path d="M42.3888889,27 L32.6111111,27 C32.2737778,27 32,26.776 32,26.5 C32,26.224 32.2737778,26 32.6111111,26 L42.3888889,26 C42.7262222,26 43,26.224 43,26.5 C43,26.776 42.7262222,27 42.3888889,27 Z" id="Path" stroke="#333333" fill="#333333"></path>
                            <path d="M37,65 C30.3832,65 25,59.6168 25,53 C25,46.3832 30.3832,41 37,41 C43.6168,41 49,46.3832 49,53 C49,59.6168 43.6168,65 37,65 Z M37,42.2 C31.0444,42.2 26.2,47.0456 26.2,53 C26.2,58.9544 31.0444,63.8 37,63.8 C42.9556,63.8 47.8,58.9544 47.8,53 C47.8,47.0456 42.9556,42.2 37,42.2 Z" id="Shape" stroke="#F36F21" fill="#F36F21"></path>
                            <path d="M34.4178717,60 C34.26714,60 34.1164083,59.9415596 34.0010044,59.8258716 L28.1719283,53.9222018 C28.0612347,53.8100917 28,53.6586239 28,53.5 C28,53.3413761 28.0624123,53.1899083 28.1719283,53.0777982 L29.8370422,51.3913761 C30.0666724,51.1588073 30.4399688,51.1588073 30.6695991,51.3913761 L34.4178717,55.186422 L42.3289289,47.1741284 C42.4396225,47.0620183 42.5891766,47 42.7457962,47 L42.7457962,47 C42.9024158,47 43.0519699,47.063211 43.1626634,47.1741284 L44.8277773,48.8617431 C45.0574076,49.0943119 45.0574076,49.4723853 44.8277773,49.7049541 L34.8359165,59.8246789 C34.719335,59.9415596 34.5686033,60 34.4178717,60 Z" id="Shape" fill="#F36F21"></path>
                        </g>
                    </g>
                </g>
            </g>
        </g>
    </g>
</svg>