<?xml version="1.0" encoding="UTF-8"?>
<svg width="78px" height="78px" viewBox="0 0 78 78" version="1.1" xmlns="http://www.w3.org/2000/svg" xmlns:xlink="http://www.w3.org/1999/xlink">
    <!-- Generator: Sketch 64 (93537) - https://sketch.com -->
    <title>Icon</title>
    <desc>Created with Sketch.</desc>
    <g id="Desktop" stroke="none" stroke-width="1" fill="none" fill-rule="evenodd">
        <g id="04-Services---App-Submission-Services-LP-" transform="translate(-184.000000, -1882.000000)" fill-rule="nonzero">
            <g id="HIW" transform="translate(0.000000, 1374.000000)">
                <g id="Steps" transform="translate(179.000000, 508.000000)">
                    <g id="1">
                        <g id="Icon" transform="translate(5.000000, 0.000000)">
                            <g id="Group">
                                <path d="M76.8181818,0 L1.18181818,0 C0.472727273,0 0,0.472727273 0,1.18181818 L0,76.8181818 C0,77.5272727 0.472727273,78 1.18181818,78 L76.8181818,78 C77.5272727,78 78,77.5272727 78,76.8181818 L78,1.18181818 C78,0.472727273 77.5272727,0 76.8181818,0 Z M75.6363636,2.36363636 L75.6363636,15.8363636 L2.36363636,15.8363636 L2.36363636,2.36363636 L75.6363636,2.36363636 Z M2.36363636,75.6363636 L2.36363636,18.2 L75.6363636,18.2 L75.6363636,75.6363636 L2.36363636,75.6363636 Z" id="Shape" fill="#333333"></path>
                                <path d="M8.98181818,13.5909091 C11.4636364,13.5909091 13.3545455,11.5818182 13.3545455,9.21818182 C13.3545455,6.73636364 11.3454545,4.84545455 8.98181818,4.84545455 C6.5,4.84545455 4.60909091,6.85454545 4.60909091,9.21818182 C4.60909091,11.7 6.5,13.5909091 8.98181818,13.5909091 Z M8.98181818,7.20909091 C10.1636364,7.20909091 10.9909091,8.15454545 10.9909091,9.21818182 C10.9909091,10.4 10.0454545,11.2272727 8.98181818,11.2272727 C7.91818182,11.2272727 6.97272727,10.4 6.97272727,9.21818182 C6.97272727,8.03636364 7.8,7.20909091 8.98181818,7.20909091 Z" id="Shape" fill="#010101"></path>
                                <path d="M20.0909091,13.5909091 C22.5727273,13.5909091 24.4636364,11.5818182 24.4636364,9.21818182 C24.4636364,6.73636364 22.4545455,4.84545455 20.0909091,4.84545455 C17.6090909,4.84545455 15.7181818,6.85454545 15.7181818,9.21818182 C15.7181818,11.7 17.7272727,13.5909091 20.0909091,13.5909091 Z M20.0909091,7.20909091 C21.2727273,7.20909091 22.1,8.15454545 22.1,9.21818182 C22.1,10.4 21.1545455,11.2272727 20.0909091,11.2272727 C18.9090909,11.2272727 18.0818182,10.2818182 18.0818182,9.21818182 C18.0818182,8.03636364 19.0272727,7.20909091 20.0909091,7.20909091 Z" id="Shape" fill="#010101"></path>
                                <path d="M31.3181818,13.5909091 C33.8,13.5909091 35.6909091,11.5818182 35.6909091,9.21818182 C35.6909091,6.73636364 33.6818182,4.84545455 31.3181818,4.84545455 C28.8363636,4.84545455 26.9454545,6.85454545 26.9454545,9.21818182 C26.9454545,11.7 28.8363636,13.5909091 31.3181818,13.5909091 Z M31.3181818,7.20909091 C32.5,7.20909091 33.3272727,8.15454545 33.3272727,9.21818182 C33.3272727,10.4 32.3818182,11.2272727 31.3181818,11.2272727 C30.1363636,11.2272727 29.3090909,10.2818182 29.3090909,9.21818182 C29.3090909,8.03636364 30.1363636,7.20909091 31.3181818,7.20909091 Z" id="Shape" fill="#010101"></path>
                                <path d="M41.6,13.1181818 L71.6181818,13.1181818 C72.3272727,13.1181818 72.8,12.6454545 72.8,11.9363636 L72.8,6.5 C72.8,5.79090909 72.3272727,5.31818182 71.6181818,5.31818182 L41.6,5.31818182 C40.8909091,5.31818182 40.4181818,5.79090909 40.4181818,6.5 L40.4181818,11.9363636 C40.4181818,12.6454545 40.8909091,13.1181818 41.6,13.1181818 Z M42.7818182,7.68181818 L70.4363636,7.68181818 L70.4363636,10.7545455 L42.7818182,10.7545455 L42.7818182,7.68181818 Z" id="Shape" fill="#E8E6E6"></path>
                                <path d="M67.6,41.0090909 L62.2818182,41.0090909 L62.2818182,37.1090909 C62.2818182,37.1090909 62.2818182,37.1090909 62.2818182,37.1090909 C62.2818182,37.1090909 62.2818182,37.1090909 62.2818182,37.1090909 C62.2818182,36.4 61.8090909,35.9272727 61.1,35.9272727 L40.1818182,35.9272727 L40.1818182,33.2090909 L51.8818182,33.2090909 C52.5909091,33.2090909 53.0636364,32.7363636 53.0636364,32.0272727 L53.0636364,22.9272727 C53.0636364,22.2181818 52.5909091,21.7454545 51.8818182,21.7454545 L25.8818182,21.7454545 C25.1727273,21.7454545 24.7,22.2181818 24.7,22.9272727 L24.7,32.0272727 C24.7,32.7363636 25.1727273,33.2090909 25.8818182,33.2090909 L37.8181818,33.2090909 L37.8181818,35.9272727 L16.6636364,35.9272727 C15.9545455,35.9272727 15.4818182,36.4 15.4818182,37.1090909 C15.4818182,37.1090909 15.4818182,37.1090909 15.4818182,37.1090909 L15.4818182,41.0090909 L10.6363636,41.0090909 C9.92727273,41.0090909 9.45454545,41.4818182 9.45454545,42.1909091 L9.45454545,48.6909091 C9.45454545,49.4 9.92727273,49.8727273 10.6363636,49.8727273 L15.4818182,49.8727273 L15.4818182,52.5909091 L10.5181818,52.5909091 C9.80909091,52.5909091 9.33636364,53.0636364 9.33636364,53.7727273 L9.33636364,60.2727273 C9.33636364,60.9818182 9.80909091,61.4545455 10.5181818,61.4545455 L15.4818182,61.4545455 L15.4818182,64.1727273 L10.4,64.1727273 C9.69090909,64.1727273 9.21818182,64.6454545 9.21818182,65.3545455 L9.21818182,71.8545455 C9.21818182,72.5636364 9.69090909,73.0363636 10.4,73.0363636 L23.1636364,73.0363636 C23.8727273,73.0363636 24.3454545,72.5636364 24.3454545,71.8545455 L24.3454545,65.3545455 C24.3454545,64.6454545 23.8727273,64.1727273 23.1636364,64.1727273 L17.8454545,64.1727273 L17.8454545,61.4545455 L23.2818182,61.4545455 C23.9909091,61.4545455 24.4636364,60.9818182 24.4636364,60.2727273 L24.4636364,53.7727273 C24.4636364,53.0636364 23.9909091,52.5909091 23.2818182,52.5909091 L17.8454545,52.5909091 L17.8454545,49.8727273 L23.2818182,49.8727273 C23.9909091,49.8727273 24.4636364,49.4 24.4636364,48.6909091 L24.4636364,42.1909091 C24.4636364,41.4818182 23.9909091,41.0090909 23.2818182,41.0090909 L17.8454545,41.0090909 L17.8454545,38.2909091 L37.8181818,38.2909091 L37.8181818,41.0090909 L32.7363636,41.0090909 C32.0272727,41.0090909 31.5545455,41.4818182 31.5545455,42.1909091 L31.5545455,48.6909091 C31.5545455,49.4 32.0272727,49.8727273 32.7363636,49.8727273 L37.8181818,49.8727273 L37.8181818,52.5909091 L32.6181818,52.5909091 C31.9090909,52.5909091 31.4363636,53.0636364 31.4363636,53.7727273 L31.4363636,60.2727273 C31.4363636,60.9818182 31.9090909,61.4545455 32.6181818,61.4545455 L37.8181818,61.4545455 L37.8181818,64.1727273 L32.5,64.1727273 C31.7909091,64.1727273 31.3181818,64.6454545 31.3181818,65.3545455 L31.3181818,71.8545455 C31.3181818,72.5636364 31.7909091,73.0363636 32.5,73.0363636 L45.2636364,73.0363636 C45.9727273,73.0363636 46.4454545,72.5636364 46.4454545,71.8545455 L46.4454545,65.3545455 C46.4454545,64.6454545 45.9727273,64.1727273 45.2636364,64.1727273 L40.1818182,64.1727273 L40.1818182,61.4545455 L45.3818182,61.4545455 C46.0909091,61.4545455 46.5636364,60.9818182 46.5636364,60.2727273 L46.5636364,53.7727273 C46.5636364,53.0636364 46.0909091,52.5909091 45.3818182,52.5909091 L40.1818182,52.5909091 L40.1818182,49.8727273 L45.5,49.8727273 C46.2090909,49.8727273 46.6818182,49.4 46.6818182,48.6909091 L46.6818182,42.1909091 C46.6818182,41.4818182 46.2090909,41.0090909 45.5,41.0090909 L40.1818182,41.0090909 L40.1818182,38.2909091 L59.9181818,38.2909091 L59.9181818,41.0090909 L54.8363636,41.0090909 C54.1272727,41.0090909 53.6545455,41.4818182 53.6545455,42.1909091 L53.6545455,48.6909091 C53.6545455,49.4 54.1272727,49.8727273 54.8363636,49.8727273 L59.9181818,49.8727273 L59.9181818,52.5909091 L54.7181818,52.5909091 C54.0090909,52.5909091 53.5363636,53.0636364 53.5363636,53.7727273 L53.5363636,60.2727273 C53.5363636,60.9818182 54.0090909,61.4545455 54.7181818,61.4545455 L59.9181818,61.4545455 L59.9181818,64.1727273 L54.6,64.1727273 C53.8909091,64.1727273 53.4181818,64.6454545 53.4181818,65.3545455 L53.4181818,71.8545455 C53.4181818,72.5636364 53.8909091,73.0363636 54.6,73.0363636 L67.3636364,73.0363636 C68.0727273,73.0363636 68.5454545,72.5636364 68.5454545,71.8545455 L68.5454545,65.3545455 C68.5454545,64.6454545 68.0727273,64.1727273 67.3636364,64.1727273 L62.2818182,64.1727273 L62.2818182,61.4545455 L67.4818182,61.4545455 C68.1909091,61.4545455 68.6636364,60.9818182 68.6636364,60.2727273 L68.6636364,53.7727273 C68.6636364,53.0636364 68.1909091,52.5909091 67.4818182,52.5909091 L62.2818182,52.5909091 L62.2818182,49.8727273 L67.6,49.8727273 C68.3090909,49.8727273 68.7818182,49.4 68.7818182,48.6909091 L68.7818182,42.1909091 C68.7818182,41.6 68.1909091,41.0090909 67.6,41.0090909 Z M27.0636364,24.2272727 L50.7,24.2272727 L50.7,30.9636364 L27.0636364,30.9636364 L27.0636364,24.2272727 Z M21.9818182,70.6727273 L11.5818182,70.6727273 L11.5818182,66.5363636 L16.6636364,66.5363636 C16.6636364,66.5363636 16.6636364,66.5363636 16.6636364,66.5363636 C16.6636364,66.5363636 16.6636364,66.5363636 16.6636364,66.5363636 L21.9818182,66.5363636 L21.9818182,70.6727273 Z M22.1,59.0909091 L11.7,59.0909091 L11.7,54.9545455 L16.6636364,54.9545455 C16.6636364,54.9545455 16.6636364,54.9545455 16.6636364,54.9545455 C16.6636364,54.9545455 16.6636364,54.9545455 16.6636364,54.9545455 L21.9818182,54.9545455 L21.9818182,59.0909091 L22.1,59.0909091 Z M22.2181818,47.5090909 L16.7818182,47.5090909 C16.7818182,47.5090909 16.7818182,47.5090909 16.7818182,47.5090909 C16.7818182,47.5090909 16.7818182,47.5090909 16.7818182,47.5090909 L11.8181818,47.5090909 L11.8181818,43.3727273 L22.2181818,43.3727273 L22.2181818,47.5090909 Z M44.0818182,70.6727273 L33.6818182,70.6727273 L33.6818182,66.5363636 L39,66.5363636 C39,66.5363636 39,66.5363636 39,66.5363636 C39,66.5363636 39,66.5363636 39,66.5363636 L44.0818182,66.5363636 L44.0818182,70.6727273 Z M44.2,59.0909091 L39,59.0909091 C39,59.0909091 39,59.0909091 39,59.0909091 C39,59.0909091 39,59.0909091 39,59.0909091 L33.8,59.0909091 L33.8,54.9545455 L44.2,54.9545455 L44.2,59.0909091 L44.2,59.0909091 Z M44.3181818,47.5090909 L39,47.5090909 C39,47.5090909 39,47.5090909 39,47.5090909 C39,47.5090909 39,47.5090909 39,47.5090909 L33.9181818,47.5090909 L33.9181818,43.3727273 L44.3181818,43.3727273 L44.3181818,47.5090909 Z M66.1818182,70.6727273 L55.7818182,70.6727273 L55.7818182,66.5363636 L61.1,66.5363636 C61.1,66.5363636 61.1,66.5363636 61.1,66.5363636 C61.1,66.5363636 61.1,66.5363636 61.1,66.5363636 L66.1818182,66.5363636 L66.1818182,70.6727273 Z M66.3,59.0909091 L61.1,59.0909091 C61.1,59.0909091 61.1,59.0909091 61.1,59.0909091 C61.1,59.0909091 61.1,59.0909091 61.1,59.0909091 L55.9,59.0909091 L55.9,54.9545455 L66.3,54.9545455 L66.3,59.0909091 L66.3,59.0909091 Z M66.4181818,47.5090909 L61.1,47.5090909 C61.1,47.5090909 61.1,47.5090909 61.1,47.5090909 C61.1,47.5090909 61.1,47.5090909 61.1,47.5090909 L56.0181818,47.5090909 L56.0181818,43.3727273 L66.4181818,43.3727273 L66.4181818,47.5090909 Z" id="Shape" fill="#F36F21"></path>
                            </g>
                        </g>
                    </g>
                </g>
            </g>
        </g>
    </g>
</svg>