<?xml version="1.0" encoding="UTF-8"?>
<svg width="58px" height="61px" viewBox="0 0 58 61" version="1.1" xmlns="http://www.w3.org/2000/svg" xmlns:xlink="http://www.w3.org/1999/xlink">
    <!-- Generator: Sketch 64 (93537) - https://sketch.com -->
    <title>Icon</title>
    <desc>Created with Sketch.</desc>
    <defs>
        <path d="M46.6203387,8.05527342 C32.7846218,-5.94287901 20.999575,0.423302016 18.9489049,11.0878962 C16.8982348,21.7524904 -2.15127202,23.8818449 0.200762019,36.4783084 C2.55279606,49.0747718 28.1727162,41.5956217 28.1727162,53.0111667 C28.1727162,64.4267117 57.7945484,64.0330722 57.7945484,49.0747718 C57.7945484,34.1164715 60.4560557,22.0534258 46.6203387,8.05527342 Z" id="path-1"></path>
    </defs>
    <g id="Desktop" stroke="none" stroke-width="1" fill="none" fill-rule="evenodd">
        <g id="04-Services---App-Submission-Services-LP-" transform="translate(-225.000000, -1020.000000)">
            <g id="VP-1" transform="translate(-1.000000, 66.000000)">
                <g id="Key-Offerings" transform="translate(215.000000, 803.000000)">
                    <g id="Offering-1" transform="translate(10.000000, 151.000000)">
                        <g id="Icon" transform="translate(1.000000, 0.000000)">
                            <mask id="mask-2" fill="white">
                                <use xlink:href="#path-1"></use>
                            </mask>
                            <use id="bgicon" fill="#ECEDEE" xlink:href="#path-1"></use>
                            <g id="Group" transform="translate(5.000000, 6.000000)" fill-rule="nonzero">
                                <path d="M21.5,8.5 C21.96,8.5 22.3333333,8.87333333 22.3333333,9.33333333 L24,9.33333333 C24,8.24833333 23.3008333,7.33166667 22.3333333,6.98666667 L22.3333333,6 L20.6666667,6 L20.6666667,6.98666667 C19.6991667,7.33166667 19,8.24833333 19,9.33333333 C19,10.7116667 20.1216667,11.8333333 21.5,11.8333333 C21.96,11.8333333 22.3333333,12.2066667 22.3333333,12.6666667 C22.3333333,13.1266667 21.96,13.5 21.5,13.5 C21.04,13.5 20.6666667,13.1266667 20.6666667,12.6666667 L19,12.6666667 C19,13.7516667 19.6991667,14.6683333 20.6666667,15.0133333 L20.6666667,16 L22.3333333,16 L22.3333333,15.0133333 C23.3008333,14.6683333 24,13.7516667 24,12.6666667 C24,11.2883333 22.8783333,10.1666667 21.5,10.1666667 C21.04,10.1666667 20.6666667,9.79333333 20.6666667,9.33333333 C20.6666667,8.87333333 21.04,8.5 21.5,8.5 Z" id="Path" fill="#000000"></path>
                                <path d="M21.5589086,4.65357586 C24.7494833,4.65357586 27.3464241,7.25051674 27.3464241,10.4410914 C27.3464241,11.7325341 26.9247623,12.9586606 26.1260852,13.9855312 L27.4324101,15 C28.4584539,13.6804465 29,12.1045887 29,10.4410914 C29,6.33774287 25.6622571,3 21.5589086,3 C19.8954113,3 18.3195535,3.54154609 17,4.56758991 L18.0144688,5.87391484 C19.0413394,5.0752377 20.2674659,4.65357586 21.5589086,4.65357586 Z" id="Path" fill="#000000"></path>
                                <path d="M21.4410914,18 C23.1045887,18 24.6804465,17.4584539 26,16.4324101 L24.9855312,15.1260852 C23.9586606,15.9247623 22.7325341,16.3464241 21.4410914,16.3464241 C18.2505167,16.3464241 15.6535759,13.7494833 15.6535759,10.5589086 C15.6535759,9.26746589 16.0752377,8.0413394 16.8739148,7.01446879 L15.5675899,6 C14.5415461,7.31955353 14,8.89541133 14,10.5589086 C14,14.6622571 17.3377429,18 21.4410914,18 Z" id="Path" fill="#000000"></path>
                                <path d="M37.3333333,40.3 L35.6666667,40.3 L35.6666667,28.4 L30.6666667,28.4 L30.6666667,40.3 L29,40.3 L29,31.8 L24,31.8 L24,40.3 L22.3333333,40.3 L22.3333333,33.5 L17.3333333,33.5 L17.3333333,40.3 L15.6666667,40.3 L15.6666667,36.9 L10.6666667,36.9 L10.6666667,40.3 L9,40.3 L9,42 L44,42 L44,40.3 L42.3333333,40.3 L42.3333333,25 L37.3333333,25 L37.3333333,40.3 Z M32.3333333,30.1 L34,30.1 L34,40.3 L32.3333333,40.3 L32.3333333,30.1 Z M25.6666667,33.5 L27.3333333,33.5 L27.3333333,40.3 L25.6666667,40.3 L25.6666667,33.5 Z M19,35.2 L20.6666667,35.2 L20.6666667,40.3 L19,40.3 L19,35.2 Z M12.3333333,38.6 L14,38.6 L14,40.3 L12.3333333,40.3 L12.3333333,38.6 Z M40.6666667,26.7 L40.6666667,40.3 L39,40.3 L39,26.7 L40.6666667,26.7 Z" id="Shape" fill="#F36F21"></path>
                                <rect id="Rectangle" fill="#F36F21" x="40" y="22" width="2" height="2"></rect>
                                <rect id="Rectangle" fill="#F36F21" x="40" y="18" width="2" height="2"></rect>
                                <path d="M50.3225806,43.6129032 L50.3225806,15.9354839 C50.3225806,13.6231613 48.4413548,11.7419355 46.1290323,11.7419355 L41.9354839,11.7419355 L41.9354839,10.0645161 L44.5195484,10.0645161 L39.4193548,3.68948387 L34.3191613,10.0645161 L36.9032258,10.0645161 L36.9032258,11.7419355 L32.6669032,11.7419355 C32.6887097,11.4643226 32.7096774,11.1867097 32.7096774,10.9032258 C32.7096774,4.89135484 27.8183226,0 21.8064516,0 C15.7945806,0 10.9032258,4.89135484 10.9032258,10.9032258 C10.9032258,11.1867097 10.9241935,11.4643226 10.946,11.7419355 L5.87096774,11.7419355 C3.55864516,11.7419355 1.67741935,13.6231613 1.67741935,15.9354839 L1.67741935,43.6129032 L0,43.6129032 L0,47.8064516 C0,50.1187742 1.88122581,52 4.19354839,52 L47.8064516,52 C50.1187742,52 52,50.1187742 52,47.8064516 L52,43.6129032 L50.3225806,43.6129032 Z M46.1290323,13.4193548 C47.5162581,13.4193548 48.6451613,14.5482581 48.6451613,15.9354839 L48.6451613,43.6129032 L46.9677419,43.6129032 L46.9677419,16.7741935 C46.9677419,15.8490968 46.2154194,15.0967742 45.2903226,15.0967742 L41.9354839,15.0967742 L41.9354839,13.4193548 L46.1290323,13.4193548 Z M39.4193548,6.37503226 L41.0288387,8.38709677 L40.2580645,8.38709677 L40.2580645,16.7741935 L45.2903226,16.7741935 L45.2903226,43.6129032 L6.70967742,43.6129032 L6.70967742,16.7741935 L12.6334839,16.7741935 C14.5742581,19.7952258 17.9567742,21.8064516 21.8064516,21.8064516 C25.656129,21.8064516 29.0386452,19.7952258 30.9794194,16.7741935 L36.9032258,16.7741935 L36.9032258,23.483871 L38.5806452,23.483871 L38.5806452,8.38709677 L37.809871,8.38709677 L39.4193548,6.37503226 Z M20.1290323,45.2903226 L31.8709677,45.2903226 L31.8709677,46.1290323 C31.8709677,46.592 31.4952258,46.9677419 31.0322581,46.9677419 L20.9677419,46.9677419 C20.5047742,46.9677419 20.1290323,46.592 20.1290323,46.1290323 L20.1290323,45.2903226 Z M36.9032258,13.4193548 L36.9032258,15.0967742 L31.8684516,15.0967742 C32.0932258,14.5591613 32.2676774,13.9963871 32.4052258,13.4193548 L36.9032258,13.4193548 Z M21.8064516,1.67741935 C26.8932258,1.67741935 31.0322581,5.81645161 31.0322581,10.9032258 C31.0322581,15.99 26.8932258,20.1290323 21.8064516,20.1290323 C16.7196774,20.1290323 12.5806452,15.99 12.5806452,10.9032258 C12.5806452,5.81645161 16.7196774,1.67741935 21.8064516,1.67741935 Z M3.35483871,15.9354839 C3.35483871,14.5482581 4.48374194,13.4193548 5.87096774,13.4193548 L11.2076774,13.4193548 C11.3443871,13.9963871 11.5188387,14.5591613 11.7444516,15.0967742 L6.70967742,15.0967742 C5.78458065,15.0967742 5.03225806,15.8490968 5.03225806,16.7741935 L5.03225806,43.6129032 L3.35483871,43.6129032 L3.35483871,15.9354839 Z M50.3225806,47.8064516 C50.3225806,49.1936774 49.1936774,50.3225806 47.8064516,50.3225806 L4.19354839,50.3225806 C2.80632258,50.3225806 1.67741935,49.1936774 1.67741935,47.8064516 L1.67741935,45.2903226 L18.4516129,45.2903226 L18.4516129,46.1290323 C18.4516129,47.5162581 19.5805161,48.6451613 20.9677419,48.6451613 L31.0322581,48.6451613 C32.4194839,48.6451613 33.5483871,47.5162581 33.5483871,46.1290323 L33.5483871,45.2903226 L50.3225806,45.2903226 L50.3225806,47.8064516 Z" id="Shape" fill="#000000"></path>
                            </g>
                        </g>
                    </g>
                </g>
            </g>
        </g>
    </g>
</svg>