<?xml version="1.0" encoding="UTF-8"?>
<svg width="58px" height="61px" viewBox="0 0 58 61" version="1.1" xmlns="http://www.w3.org/2000/svg" xmlns:xlink="http://www.w3.org/1999/xlink">
    <!-- Generator: Sketch 64 (93537) - https://sketch.com -->
    <title>Icon</title>
    <desc>Created with Sketch.</desc>
    <defs>
        <path d="M46.6203387,8.05527342 C32.7846218,-5.94287901 20.999575,0.423302016 18.9489049,11.0878962 C16.8982348,21.7524904 -2.15127202,23.8818449 0.200762019,36.4783084 C2.55279606,49.0747718 28.1727162,41.5956217 28.1727162,53.0111667 C28.1727162,64.4267117 57.7945484,64.0330722 57.7945484,49.0747718 C57.7945484,34.1164715 60.4560557,22.0534258 46.6203387,8.05527342 Z" id="path-1"></path>
    </defs>
    <g id="Desktop" stroke="none" stroke-width="1" fill="none" fill-rule="evenodd">
        <g id="04-Services---App-Submission-Services-LP-" transform="translate(-1022.000000, -1020.000000)">
            <g id="VP-1" transform="translate(-1.000000, 66.000000)">
                <g id="Key-Offerings" transform="translate(215.000000, 803.000000)">
                    <g id="Offering-4" transform="translate(808.000000, 151.000000)">
                        <g id="Icon">
                            <mask id="mask-2" fill="white">
                                <use xlink:href="#path-1"></use>
                            </mask>
                            <use id="bgicon" fill="#ECEDEE" xlink:href="#path-1"></use>
                            <g id="Group" mask="url(#mask-2)" fill-rule="nonzero">
                                <g transform="translate(6.000000, 8.000000)">
                                    <path d="M47.9999994,33 C47.9966939,30.2399468 45.7600532,28.0033061 42.9999994,28 L35.9999994,28 L35.9999994,24.107 C36.0187574,22.6143543 34.9657775,21.3225585 33.4999994,21.04 C32.6289504,20.8927655 31.7372854,21.1369283 31.0627595,21.7073845 C30.3882336,22.2778407 29.9994228,23.1165946 29.9999994,24 L29.9999994,38 C30.0036768,39.0854693 30.3641933,40.1396111 31.026,41 L30.9999994,41 C30.4477153,41 29.9999994,41.4477153 29.9999994,42 L29.9999994,47 C29.9999994,47.5522847 30.4477153,48 30.9999994,48 L46.9999994,48 C47.5522847,48 47.9999994,47.5522847 47.9999994,47 L47.9999994,42 C47.9999994,41.4477153 47.5522847,41 46.9999994,41 L46.974,41 C47.6358067,40.1396111 47.9963232,39.0854693 47.9999994,38 L47.9999994,33 Z M46,46 L32,46 L32,43 L46,43 L46,46 Z M35,41 C33.3431458,41 32,39.6568542 32,38 L32,24 C32,23.4477153 32.4477153,23 33,23 C33.0586513,23 33.1171922,23.0050885 33.175,23.015 C33.6742947,23.1370998 34.0189842,23.5933433 34,24.107 L34,29 C34,29.5522847 34.4477153,30 35,30 L43,30 C44.6568542,30 46,31.3431458 46,33 L46,38 C46,39.6568542 44.6568542,41 43,41 L35,41 Z" id="Shape" fill="#F36F21"></path>
                                    <path d="M18.707,31.293 C17.2106605,29.8011184 14.7893395,29.8011184 13.293,31.293 L9,35.586 L9,3 C9,2.44771525 9.44771525,2 10,2 L40,2 C40.5522847,2 41,2.44771525 41,3 L41,27 L43,27 L43,3 C43,1.34314575 41.6568542,0 40,0 L10,0 C8.34314575,0 7,1.34314575 7,3 L7,21.08 C3.55907331,21.5766526 1.00407452,24.5234178 1,28 L1,42 C0.44771525,42 -4.4408921e-16,42.4477153 -4.4408921e-16,43 L-4.4408921e-16,47 C-4.4408921e-16,47.5522847 0.44771525,48 1,48 L14,48 C14.5522847,48 15,47.5522847 15,47 L15,43 C15,42.4477153 14.5522847,42 14,42 L13.414,42 L17.414,38 L28,38 L28,36 L19.253,36 C20.1806774,34.4933645 19.9549354,32.5472699 18.707,31.293 Z M13,46 L2,46 L2,44 L13,44 L13,46 Z M3,42 L3,28 C3.00261226,25.6247614 4.67337089,23.578082 7,23.1 L7,38 C7.00008635,38.4043959 7.2437275,38.7689341 7.61734544,38.923678 C7.99096338,39.0784219 8.42100575,38.9929079 8.707,38.707 L14.707,32.707 C15.4253904,32.0188251 16.5620775,32.0310327 17.2655224,32.7344776 C17.9689673,33.4379225 17.9811749,34.5746096 17.293,35.293 L10.586,42 L3,42 Z" id="Shape" fill="#000000"></path>
                                    <path d="M19,9 L19,7 C19,5.34314575 17.6568542,4 16,4 L14,4 C12.3431458,4 11,5.34314575 11,7 L11,9 C11,10.6568542 12.3431458,12 14,12 L16,12 C17.6568542,12 19,10.6568542 19,9 L19,9 Z M17,9 C17,9.55228475 16.5522847,10 16,10 L14,10 C13.4477153,10 13,9.55228475 13,9 L13,7 C13,6.44771525 13.4477153,6 14,6 L16,6 C16.5522847,6 17,6.44771525 17,7 L17,9 Z" id="Shape" fill="#000000"></path>
                                    <path d="M26,4 L24,4 C22.3431458,4 21,5.34314575 21,7 L21,9 C21,10.6568542 22.3431458,12 24,12 L26,12 C27.6568542,12 29,10.6568542 29,9 L29,7 C29,5.34314575 27.6568542,4 26,4 Z M27,9 C27,9.55228475 26.5522847,10 26,10 L24,10 C23.4477153,10 23,9.55228475 23,9 L23,7 C23,6.44771525 23.4477153,6 24,6 L26,6 C26.5522847,6 27,6.44771525 27,7 L27,9 Z" id="Shape" fill="#000000"></path>
                                    <path d="M39,7 C39,5.34314575 37.6568542,4 36,4 L34,4 C32.3431458,4 31,5.34314575 31,7 L31,9 C31,10.6568542 32.3431458,12 34,12 L36,12 C37.6568542,12 39,10.6568542 39,9 L39,7 Z M37,9 C37,9.55228475 36.5522847,10 36,10 L34,10 C33.4477153,10 33,9.55228475 33,9 L33,7 C33,6.44771525 33.4477153,6 34,6 L36,6 C36.5522847,6 37,6.44771525 37,7 L37,9 Z" id="Shape" fill="#000000"></path>
                                    <path d="M16,28 L16,24.816 C17.1981296,24.3985886 18.0009455,23.2687579 18.0009455,22 C18.0009455,20.7312421 17.1981296,19.6014114 16,19.184 L16,14 L14,14 L14,19.184 C12.8018704,19.6014114 11.9990545,20.7312421 11.9990545,22 C11.9990545,23.2687579 12.8018704,24.3985886 14,24.816 L14,28 L16,28 Z M15,21 C15.5522847,21 16,21.4477153 16,22 C16,22.5522847 15.5522847,23 15,23 C14.4477153,23 14,22.5522847 14,22 C14,21.4477153 14.4477153,21 15,21 Z" id="Shape" fill="#000000"></path>
                                    <path d="M26,25.184 L26,14 L24,14 L24,25.184 C22.6224533,25.6710363 21.7961279,27.0796662 22.0432043,28.5197331 C22.2902807,29.9597999 23.5388911,31.0124271 25,31.0124271 C26.4611089,31.0124271 27.7097193,29.9597999 27.9567957,28.5197331 C28.2038721,27.0796662 27.3775467,25.6710363 26,25.184 L26,25.184 Z M25,29 C24.4477153,29 24,28.5522847 24,28 C24,27.4477153 24.4477153,27 25,27 C25.5522847,27 26,27.4477153 26,28 C26,28.5522847 25.5522847,29 25,29 Z" id="Shape" fill="#000000"></path>
                                    <rect id="Rectangle" fill="#000000" x="31" y="14" width="8" height="2"></rect>
                                    <rect id="Rectangle" fill="#000000" x="31" y="18" width="8" height="2"></rect>
                                </g>
                            </g>
                        </g>
                    </g>
                </g>
            </g>
        </g>
    </g>
</svg>