<?xml version="1.0" encoding="UTF-8"?>
<svg width="83px" height="83px" viewBox="0 0 83 83" version="1.1" xmlns="http://www.w3.org/2000/svg" xmlns:xlink="http://www.w3.org/1999/xlink">
    <!-- Generator: Sketch 64 (93537) - https://sketch.com -->
    <title>Icon</title>
    <desc>Created with Sketch.</desc>
    <g id="Desktop" stroke="none" stroke-width="1" fill="none" fill-rule="evenodd">
        <g id="04-Services---App-Submission-Services-LP-" transform="translate(-1063.000000, -2484.000000)" fill-rule="nonzero">
            <g id="HIW" transform="translate(0.000000, 1374.000000)">
                <g id="Steps" transform="translate(179.000000, 508.000000)">
                    <g id="6" transform="translate(885.000000, 603.000000)">
                        <g id="Icon">
                            <path d="M26.35,57 L14.65,57 C14.2912,57 14,56.712 14,56.3571429 L14,48.6428571 C14,48.288 14.2912,48 14.65,48 C15.0088,48 15.3,48.288 15.3,48.6428571 L15.3,55.7142857 L26.35,55.7142857 C26.7088,55.7142857 27,56.0022857 27,56.3571429 C27,56.712 26.7088,57 26.35,57 Z" id="Path" stroke="#333333" fill="#333333"></path>
                            <path d="M76.3518519,57 L42.6481481,57 C42.2903704,57 42,56.7096296 42,56.3518519 C42,55.9940741 42.2903704,55.7037037 42.6481481,55.7037037 L75.7037037,55.7037037 L75.7037037,23.2962963 L43.9444444,23.2962963 C43.5866667,23.2962963 43.2962963,23.0059259 43.2962963,22.6481481 C43.2962963,22.2903704 43.5866667,22 43.9444444,22 L76.3518519,22 C76.7096296,22 77,22.2903704 77,22.6481481 L77,56.3518519 C77,56.7096296 76.7096296,57 76.3518519,57 Z" id="Path" stroke="#333333" fill="#333333"></path>
                            <path d="M34.666215,78 C34.6195558,78 34.5702305,77.9948001 34.5222382,77.9844002 C34.1622962,77.9064009 33.9369992,77.5593042 34.0156532,77.2083076 L36.6818901,65.5084202 C36.7618772,65.1587235 37.1138205,64.9403256 37.4777618,65.0144249 C37.8377038,65.0924242 38.0630008,65.4395208 37.9843468,65.7905175 L35.3181099,77.4904049 C35.2487878,77.793302 34.9714991,78 34.666215,78 Z" id="Path" stroke="#333333" fill="#333333"></path>
                            <path d="M56.3321828,78 C56.0269603,78 55.7497277,77.793302 55.6817524,77.4904049 L53.016054,65.7905175 C52.936083,65.4395208 53.1626674,65.0924242 53.5225367,65.0144249 C53.8864045,64.9403256 54.2382767,65.1587235 54.3182476,65.5084202 L56.983946,77.2083076 C57.063917,77.5593042 56.8373326,77.9064009 56.4774633,77.9844002 C56.4281479,77.9948001 56.3788325,78 56.3321828,78 Z" id="Path" stroke="#333333" fill="#333333"></path>
                            <path d="M62.3690476,66 L14.068381,66 C11.8247143,66 10,64.1151429 10,61.797 L10,48.6428571 C10,48.288 10.2826667,48 10.6309524,48 C10.9792381,48 11.2619048,48.288 11.2619048,48.6428571 L11.2619048,61.797 C11.2619048,63.4054286 12.5200238,64.7142857 14.068381,64.7142857 L62.3690476,64.7142857 C62.7173333,64.7142857 63,65.0022857 63,65.3571429 C63,65.712 62.7173333,66 62.3690476,66 Z" id="Path" stroke="#333333" fill="#333333"></path>
                            <path d="M76.8866207,66 L73.9827586,66 C73.6306207,66 73.3448276,65.7094054 73.3448276,65.3513514 C73.3448276,64.9932973 73.6306207,64.7027027 73.9827586,64.7027027 L76.8866207,64.7027027 C78.4521034,64.7027027 79.7241379,63.3820541 79.7241379,61.7591351 L79.7241379,22.2408649 C79.7241379,20.6179459 78.4521034,19.2972973 76.8866207,19.2972973 L44.637931,19.2972973 C44.2857931,19.2972973 44,19.0067027 44,18.6486486 C44,18.2905946 44.2857931,18 44.637931,18 L76.8866207,18 C79.1551034,18 81,19.9018378 81,22.2408649 L81,61.7591351 C81,64.0981622 79.1551034,66 76.8866207,66 Z" id="Path" stroke="#333333" fill="#333333"></path>
                            <path d="M70,80 L66,80 C63.7946667,80 62,78.2950667 62,76.2 L62,64.8 C62,62.7049333 63.7946667,61 66,61 L70,61 C72.2053333,61 74,62.7049333 74,64.8 L74,76.2 C74,78.2950667 72.2053333,80 70,80 Z M66,62.2666667 C64.5293333,62.2666667 63.3333333,63.4028667 63.3333333,64.8 L63.3333333,76.2 C63.3333333,77.5971333 64.5293333,78.7333333 66,78.7333333 L70,78.7333333 C71.4706667,78.7333333 72.6666667,77.5971333 72.6666667,76.2 L72.6666667,64.8 C72.6666667,63.4028667 71.4706667,62.2666667 70,62.2666667 L66,62.2666667 Z" id="Shape" stroke="#333333" fill="#333333"></path>
                            <path d="M68.5,68 C68.224,68 68,67.7013333 68,67.3333333 L68,64.6666667 C68,64.2986667 68.224,64 68.5,64 C68.776,64 69,64.2986667 69,64.6666667 L69,67.3333333 C69,67.7013333 68.776,68 68.5,68 Z" id="Path" stroke="#333333" fill="#333333"></path>
                            <path d="M59.0434783,81 L32.9565217,81 C31.8778261,81 31,80.1026667 31,79 C31,77.8973333 31.8778261,77 32.9565217,77 L59.0434783,77 C60.1221739,77 61,77.8973333 61,79 C61,80.1026667 60.1221739,81 59.0434783,81 Z M32.9565217,78.3333333 C32.5978261,78.3333333 32.3043478,78.632 32.3043478,79 C32.3043478,79.368 32.5978261,79.6666667 32.9565217,79.6666667 L59.0434783,79.6666667 C59.4021739,79.6666667 59.6956522,79.368 59.6956522,79 C59.6956522,78.632 59.4021739,78.3333333 59.0434783,78.3333333 L32.9565217,78.3333333 Z" id="Shape" stroke="#333333" fill="#333333"></path>
                            <path d="M43.3529412,49 L0.647058824,49 C0.289882353,49 0,48.7111579 0,48.3552632 L0,0.644736842 C0,0.288842105 0.289882353,0 0.647058824,0 L43.3529412,0 C43.7101176,0 44,0.288842105 44,0.644736842 L44,48.3552632 C44,48.7111579 43.7101176,49 43.3529412,49 Z M1.29411765,47.7105263 L42.7058824,47.7105263 L42.7058824,1.28947368 L1.29411765,1.28947368 L1.29411765,47.7105263 Z" id="Shape" stroke="#333333" fill="#333333"></path>
                            <path d="M74.3529412,16 L53.6470588,16 C53.2898824,16 53,15.7088 53,15.35 L53,3.65 C53,3.2912 53.2898824,3 53.6470588,3 L74.3529412,3 C74.7101176,3 75,3.2912 75,3.65 L75,15.35 C75,15.7088 74.7101176,16 74.3529412,16 Z M54.2941176,14.7 L73.7058824,14.7 L73.7058824,4.3 L54.2941176,4.3 L54.2941176,14.7 Z" id="Shape" stroke="#333333" fill="#333333"></path>
                            <path d="M72.35,32 L47.65,32 C47.2912,32 47,31.7312 47,31.4 L47,26.6 C47,26.2688 47.2912,26 47.65,26 L72.35,26 C72.7088,26 73,26.2688 73,26.6 L73,31.4 C73,31.7312 72.7088,32 72.35,32 Z M48.3,30.8 L71.7,30.8 L71.7,27.2 L48.3,27.2 L48.3,30.8 Z" id="Shape" stroke="#F36F21" fill="#F36F21"></path>
                            <path d="M55.3571429,45 L47.6428571,45 C47.288,45 47,44.7312 47,44.4 L47,39.6 C47,39.2688 47.288,39 47.6428571,39 L55.3571429,39 C55.712,39 56,39.2688 56,39.6 L56,44.4 C56,44.7312 55.712,45 55.3571429,45 Z M48.2857143,43.8 L54.7142857,43.8 L54.7142857,40.2 L48.2857143,40.2 L48.2857143,43.8 Z" id="Shape" stroke="#F36F21" fill="#F36F21"></path>
                            <path d="M72.3636364,45 L59.6363636,45 C59.2850909,45 59,44.7312 59,44.4 L59,39.6 C59,39.2688 59.2850909,39 59.6363636,39 L72.3636364,39 C72.7149091,39 73,39.2688 73,39.6 L73,44.4 C73,44.7312 72.7149091,45 72.3636364,45 Z M60.2727273,43.8 L71.7272727,43.8 L71.7272727,40.2 L60.2727273,40.2 L60.2727273,43.8 Z" id="Shape" stroke="#F36F21" fill="#F36F21"></path>
                            <path d="M72.3604651,53 L18.6395349,53 C18.2865116,53 18,52.776 18,52.5 C18,52.224 18.2865116,52 18.6395349,52 L72.3604651,52 C72.7134884,52 73,52.224 73,52.5 C73,52.776 72.7134884,53 72.3604651,53 Z" id="Path" stroke="#E8E6E6" fill="#E8E6E6"></path>
                            <path d="M72.35,49 L47.65,49 C47.2912,49 47,48.776 47,48.5 C47,48.224 47.2912,48 47.65,48 L72.35,48 C72.7088,48 73,48.224 73,48.5 C73,48.776 72.7088,49 72.35,49 Z" id="Path" stroke="#E8E6E6" fill="#E8E6E6"></path>
                            <path d="M72.35,36 L47.65,36 C47.2912,36 47,35.776 47,35.5 C47,35.224 47.2912,35 47.65,35 L72.35,35 C72.7088,35 73,35.224 73,35.5 C73,35.776 72.7088,36 72.35,36 Z" id="Path" stroke="#E8E6E6" fill="#E8E6E6"></path>
                            <path d="M8,11 C6.3452,11 5,9.6536 5,8 C5,6.3464 6.3452,5 8,5 C9.6548,5 11,6.3464 11,8 C11,9.6536 9.6548,11 8,11 Z M8,6.2 C7.0076,6.2 6.2,7.0076 6.2,8 C6.2,8.9924 7.0076,9.8 8,9.8 C8.9924,9.8 9.8,8.9924 9.8,8 C9.8,7.0076 8.9924,6.2 8,6.2 Z" id="Shape" stroke="#F36F21" fill="#F36F21"></path>
                            <path d="M35,11 C33.3452,11 32,9.6536 32,8 C32,6.3464 33.3452,5 35,5 C36.6548,5 38,6.3464 38,8 C38,9.6536 36.6548,11 35,11 Z M35,6.2 C34.0076,6.2 33.2,7.0076 33.2,8 C33.2,8.9924 34.0076,9.8 35,9.8 C35.9924,9.8 36.8,8.9924 36.8,8 C36.8,7.0076 35.9924,6.2 35,6.2 Z" id="Shape" stroke="#F36F21" fill="#F36F21"></path>
                            <path d="M10.4,19 L5.6,19 C5.2688,19 5,18.776 5,18.5 C5,18.224 5.2688,18 5.6,18 L10.4,18 C10.7312,18 11,18.224 11,18.5 C11,18.776 10.7312,19 10.4,19 Z" id="Path" stroke="#333333" fill="#333333"></path>
                            <path d="M25.3333333,19 L18.6666667,19 C18.2986667,19 18,18.776 18,18.5 C18,18.224 18.2986667,18 18.6666667,18 L25.3333333,18 C25.7013333,18 26,18.224 26,18.5 C26,18.776 25.7013333,19 25.3333333,19 Z" id="Path" stroke="#333333" fill="#333333"></path>
                            <path d="M37.4,19 L32.6,19 C32.2688,19 32,18.776 32,18.5 C32,18.224 32.2688,18 32.6,18 L37.4,18 C37.7312,18 38,18.224 38,18.5 C38,18.776 37.7312,19 37.4,19 Z" id="Path" stroke="#333333" fill="#333333"></path>
                            <path d="M25.3333333,11 L18.6666667,11 C18.2986667,11 18,10.7312 18,10.4 L18,5.6 C18,5.2688 18.2986667,5 18.6666667,5 L25.3333333,5 C25.7013333,5 26,5.2688 26,5.6 L26,10.4 C26,10.7312 25.7013333,11 25.3333333,11 Z M19.3333333,9.8 L24.6666667,9.8 L24.6666667,6.2 L19.3333333,6.2 L19.3333333,9.8 Z" id="Shape" stroke="#F36F21" fill="#F36F21"></path>
                            <path d="M38.3461538,28 L5.65384615,28 C5.29292308,28 5,27.776 5,27.5 C5,27.224 5.29292308,27 5.65384615,27 L38.3461538,27 C38.7070769,27 39,27.224 39,27.5 C39,27.776 38.7070769,28 38.3461538,28 Z" id="Path" stroke="#E8E6E6" fill="#E8E6E6"></path>
                            <path d="M38.3461538,36 L5.65384615,36 C5.29292308,36 5,35.776 5,35.5 C5,35.224 5.29292308,35 5.65384615,35 L38.3461538,35 C38.7070769,35 39,35.224 39,35.5 C39,35.776 38.7070769,36 38.3461538,36 Z" id="Path" stroke="#E8E6E6" fill="#E8E6E6"></path>
                            <path d="M38.3461538,44 L5.65384615,44 C5.29292308,44 5,43.776 5,43.5 C5,43.224 5.29292308,43 5.65384615,43 L38.3461538,43 C38.7070769,43 39,43.224 39,43.5 C39,43.776 38.7070769,44 38.3461538,44 Z" id="Path-Copy" stroke="#E8E6E6" fill="#E8E6E6"></path>
                            <path d="M69.3333333,8 L66.6666667,8 C66.2986667,8 66,7.776 66,7.5 C66,7.224 66.2986667,7 66.6666667,7 L69.3333333,7 C69.7013333,7 70,7.224 70,7.5 C70,7.776 69.7013333,8 69.3333333,8 Z" id="Path" stroke="#333333" fill="#333333"></path>
                            <path d="M71.4,11 L66.6,11 C66.2688,11 66,10.776 66,10.5 C66,10.224 66.2688,10 66.6,10 L71.4,10 C71.7312,10 72,10.224 72,10.5 C72,10.776 71.7312,11 71.4,11 Z" id="Path" stroke="#333333" fill="#333333"></path>
                            <path d="M62.4,12 L57.6,12 C57.2688,12 57,11.72 57,11.375 L57,7.625 C57,7.28 57.2688,7 57.6,7 L62.4,7 C62.7312,7 63,7.28 63,7.625 L63,11.375 C63,11.72 62.7312,12 62.4,12 Z M58.2,10.75 L61.8,10.75 L61.8,8.25 L58.2,8.25 L58.2,10.75 Z" id="Shape" stroke="#F36F21" fill="#F36F21"></path>
                            <path d="M36.3333333,57 L29.6666667,57 C29.2986667,57 29,56.776 29,56.5 C29,56.224 29.2986667,56 29.6666667,56 L36.3333333,56 C36.7013333,56 37,56.224 37,56.5 C37,56.776 36.7013333,57 36.3333333,57 Z" id="Path" stroke="#333333" fill="#333333"></path>
                        </g>
                    </g>
                </g>
            </g>
        </g>
    </g>
</svg>