<?xml version="1.0" encoding="UTF-8"?>
<svg width="109px" height="77px" viewBox="0 0 109 77" version="1.1" xmlns="http://www.w3.org/2000/svg" xmlns:xlink="http://www.w3.org/1999/xlink">
    <!-- Generator: Sketch 64 (93537) - https://sketch.com -->
    <title>Icon</title>
    <desc>Created with Sketch.</desc>
    <g id="Desktop" stroke="none" stroke-width="1" fill="none" fill-rule="evenodd">
        <g id="05-Services---App-Updation-Services-LP" transform="translate(-179.000000, -2519.000000)">
            <g id="HIW" transform="translate(0.000000, 1374.000000)">
                <g id="Steps" transform="translate(179.000000, 507.000000)">
                    <g id="3" transform="translate(0.000000, 638.000000)">
                        <g id="Icon">
                            <circle id="Oval" fill="#000000" fill-rule="nonzero" cx="92" cy="7" r="1"></circle>
                            <circle id="Oval" fill="#000000" fill-rule="nonzero" cx="86" cy="7" r="1"></circle>
                            <circle id="Oval" fill="#000000" fill-rule="nonzero" cx="81" cy="7" r="1"></circle>
                            <path d="M94.875,0 L15.125,0 C12.8468254,0 11,1.84682541 11,4.125 L11,61.875 C11,64.1531746 12.8468254,66 15.125,66 L46.75,66 L46.75,74.25 L33,74.25 L33,77 L77,77 L77,74.25 L63.25,74.25 L63.25,66 L94.875,66 C97.1531746,66 99,64.1531746 99,61.875 L99,4.125 C99,1.84682541 97.1531746,0 94.875,0 Z M96.25,61.875 C96.25,62.6343915 95.6343915,63.25 94.875,63.25 L15.125,63.25 C14.3656085,63.25 13.75,62.6343915 13.75,61.875 L13.75,4.125 C13.75,3.36560847 14.3656085,2.75 15.125,2.75 L94.875,2.75 C95.6343915,2.75 96.25,3.36560847 96.25,4.125 L96.25,61.875 Z" id="Shape" fill="#000000" fill-rule="nonzero"></path>
                            <g id="Group" transform="translate(54.500000, 46.500000) scale(-1, -1) translate(-54.500000, -46.500000) translate(0.000000, 16.000000)" fill="#E8E6E6">
                                <polygon id="Fill-23" points="105.144 3.05244444 108.196444 3.05244444 108.196444 3.79696274e-14 105.144 3.79696274e-14"></polygon>
                                <path d="M6.14666667,3.05244444 L9.24,3.05244444 L9.24,3.79696274e-14 L6.14666667,3.79696274e-14 L6.14666667,3.05244444 Z M12.3342222,3.05244444 L15.4275556,3.05244444 L15.4275556,3.79696274e-14 L12.3342222,3.79696274e-14 L12.3342222,3.05244444 Z M18.5217778,3.05244444 L21.6151111,3.05244444 L21.6151111,3.79696274e-14 L18.5217778,3.79696274e-14 L18.5217778,3.05244444 Z M86.5831111,3.05244444 L89.6764444,3.05244444 L89.6764444,3.79696274e-14 L86.5831111,3.79696274e-14 L86.5831111,3.05244444 Z M92.7697778,3.05244444 L95.8631111,3.05244444 L95.8631111,3.79696274e-14 L92.7697778,3.79696274e-14 L92.7697778,3.05244444 Z M98.9573333,3.05244444 L102.050667,3.05244444 L102.050667,3.79696274e-14 L98.9573333,3.79696274e-14 L98.9573333,3.05244444 Z" id="Fill-24"></path>
                                <polygon id="Fill-25" points="-4.18332036e-13 3.05244444 3.05244444 3.05244444 3.05244444 3.79696274e-14 -4.18332036e-13 3.79696274e-14"></polygon>
                                <path d="M-4.18332036e-13,9.45688889 L3.05244444,9.45688889 L3.05244444,6.25422222 L-4.18332036e-13,6.25422222 L-4.18332036e-13,9.45688889 Z M-4.18332036e-13,15.8604444 L3.05244444,15.8604444 L3.05244444,12.6577778 L-4.18332036e-13,12.6577778 L-4.18332036e-13,15.8604444 Z M-4.18332036e-13,22.264 L3.05244444,22.264 L3.05244444,19.0613333 L-4.18332036e-13,19.0613333 L-4.18332036e-13,22.264 Z M-4.18332036e-13,28.6684444 L3.05244444,28.6684444 L3.05244444,25.4657778 L-4.18332036e-13,25.4657778 L-4.18332036e-13,28.6684444 Z M-4.18332036e-13,35.0728889 L3.05244444,35.0728889 L3.05244444,31.8702222 L-4.18332036e-13,31.8702222 L-4.18332036e-13,35.0728889 Z M-4.18332036e-13,41.4764444 L3.05244444,41.4764444 L3.05244444,38.2746667 L-4.18332036e-13,38.2746667 L-4.18332036e-13,41.4764444 Z M-4.18332036e-13,47.88 L3.05244444,47.88 L3.05244444,44.6782222 L-4.18332036e-13,44.6782222 L-4.18332036e-13,47.88 Z M-4.18332036e-13,54.2844444 L3.05244444,54.2844444 L3.05244444,51.0817778 L-4.18332036e-13,51.0817778 L-4.18332036e-13,54.2844444 Z" id="Fill-26"></path>
                                <polygon id="Fill-27" points="-4.18332036e-13 60.5386667 3.05244444 60.5386667 3.05244444 57.4862222 -4.18332036e-13 57.4862222"></polygon>
                                <path d="M6.14666667,60.5386667 L9.24,60.5386667 L9.24,57.4862222 L6.14666667,57.4862222 L6.14666667,60.5386667 Z M98.9573333,60.5386667 L102.050667,60.5386667 L102.050667,57.4862222 L98.9573333,57.4862222 L98.9573333,60.5386667 Z" id="Fill-28"></path>
                                <polygon id="Fill-29" points="105.144 60.5386667 108.196444 60.5386667 108.196444 57.4862222 105.144 57.4862222"></polygon>
                                <path d="M105.144,9.45688889 L108.196444,9.45688889 L108.196444,6.25422222 L105.144,6.25422222 L105.144,9.45688889 Z M105.144,15.8604444 L108.196444,15.8604444 L108.196444,12.6577778 L105.144,12.6577778 L105.144,15.8604444 Z M105.144,22.264 L108.196444,22.264 L108.196444,19.0613333 L105.144,19.0613333 L105.144,22.264 Z M105.144,28.6684444 L108.196444,28.6684444 L108.196444,25.4657778 L105.144,25.4657778 L105.144,28.6684444 Z M105.144,35.0728889 L108.196444,35.0728889 L108.196444,31.8702222 L105.144,31.8702222 L105.144,35.0728889 Z M105.144,41.4764444 L108.196444,41.4764444 L108.196444,38.2746667 L105.144,38.2746667 L105.144,41.4764444 Z M105.144,47.88 L108.196444,47.88 L108.196444,44.6782222 L105.144,44.6782222 L105.144,47.88 Z M105.144,54.2844444 L108.196444,54.2844444 L108.196444,51.0817778 L105.144,51.0817778 L105.144,54.2844444 Z" id="Fill-30"></path>
                            </g>
                            <rect id="Rectangle" fill="#E8E6E6" fill-rule="nonzero" x="36" y="25" width="22" height="2"></rect>
                            <rect id="Rectangle" fill="#E8E6E6" fill-rule="nonzero" x="36" y="36" width="19" height="2"></rect>
                            <rect id="Rectangle" fill="#E8E6E6" fill-rule="nonzero" x="36" y="47" width="22" height="2"></rect>
                            <polygon id="Path" fill="#F36F21" fill-rule="nonzero" points="25.7571252 26.2235196 22.9287485 23.4545455 21 25.3427857 25.7571252 30 27.6858736 28.1117598 32 23.8882402 30.0712515 22"></polygon>
                            <polygon id="Path" fill="#F36F21" fill-rule="nonzero" points="25.7571252 37.2235196 22.9287485 34.4545455 21 36.3361134 23.8283767 39.1117598 25.7571252 41 27.6858736 39.1117598 27.6858736 39.1117598 32 34.8882402 30.0712515 33"></polygon>
                            <polygon id="Path" fill="#F36F21" fill-rule="nonzero" points="30.0712515 44 25.7571252 48.2235196 22.9287485 45.4545455 21 47.3361134 23.8283767 50.1117598 25.7571252 52 27.6858736 50.1117598 27.6858736 50.1117598 32 45.8882402"></polygon>
                            <circle id="Oval" fill="#333333" fill-rule="nonzero" cx="74.5" cy="35.5" r="5.5"></circle>
                            <path d="M87.106935,31.5746671 L86.1978466,30.8807656 C85.5935301,30.4340599 85.2595399,29.6982853 85.3158951,28.9378414 L85.4108745,27.7929039 C85.4613597,27.198477 85.2728307,26.6086759 84.888778,26.1595582 C84.5047254,25.7104406 83.9583175,25.440794 83.3756019,25.4128217 L82.2562019,25.3503706 C81.5220637,25.2914747 80.8688583,24.8513099 80.5262202,24.1846161 L80.0038335,23.1715199 C79.7339194,22.6469559 79.2678598,22.2565144 78.7118761,22.0891823 C78.1558923,21.9218502 77.5573584,21.9918854 77.0526882,22.2833259 L76.0757573,22.8453862 C75.4211309,23.2238654 74.6204845,23.2238654 73.965858,22.8453862 L72.9889272,22.2833259 C72.484257,21.9918854 71.885723,21.9218502 71.3297393,22.0891823 C70.7737556,22.2565144 70.307696,22.6469559 70.0377818,23.1715199 L69.5153952,24.1846161 C69.1640469,24.8653869 68.4894042,25.3078513 67.7379238,25.3503706 L66.6185238,25.4128217 C66.0358082,25.440794 65.4894003,25.7104406 65.1053476,26.1595582 C64.721295,26.6086759 64.532766,27.198477 64.5832512,27.7929039 L64.6850148,28.9378414 C64.7502239,29.7041135 64.4181187,30.4493068 63.8098476,30.9015826 L62.8871906,31.5746671 C62.4173146,31.9223759 62.1052192,32.4499649 62.022127,33.0370344 C61.9390349,33.6241039 62.0920362,34.2205593 62.4462149,34.6902848 L63.1246391,35.5992958 C63.5838884,36.2087796 63.697176,37.0198846 63.4231458,37.7365124 L63.0160912,38.8051207 C62.8064515,39.3566911 62.8236839,39.971513 63.0638731,40.5098936 C63.3040624,41.0482742 63.7468132,41.4644978 64.2915288,41.6639949 L65.3498705,42.0456408 C66.0485281,42.3110175 66.5623036,42.928476 66.706719,43.6763093 L66.9577359,44.6894055 L64.2440391,53.6546129 L68.5181116,52.2668099 L71.1978872,56 L73.6334302,47.8605354 C74.3772485,48.4981487 75.4483991,48.5409451 76.2385792,47.9646206 L78.8030227,56 L81.4692298,52.315383 L85.7433024,53.703186 L82.9821158,45.0224782 C82.9821158,44.9669661 83.0228213,44.911454 83.0296055,44.8559419 L83.2534855,43.7318214 C83.3979009,42.9839881 83.9116764,42.3665296 84.6103339,42.1011529 L85.6686757,41.7195071 C86.2133913,41.52001 86.6561421,41.1037863 86.8963313,40.5654057 C87.1365206,40.0270251 87.153753,39.4122033 86.9441132,38.8606329 L86.5370587,37.7920245 C86.2630284,37.0753967 86.3763161,36.2642917 86.8355654,35.6548079 L87.5139896,34.7457969 C87.889543,34.2773051 88.0588529,33.6707657 87.9817483,33.0700875 C87.9046436,32.4694094 87.5879964,31.9281273 87.106935,31.5746671 Z M75.0038471,43.3709926 C71.7451875,43.3737603 68.8066561,41.3659124 67.5615534,38.2858016 C66.3164507,35.2056908 67.0106597,31.6615778 69.3197472,29.309777 C71.6288346,26.9579763 75.0968014,26.2629219 78.1029196,27.5494421 C81.1090378,28.8359624 83.0596585,31.8499951 83.0432777,35.1829549 C83.0319618,39.7210707 79.4339698,43.39494 74.9970628,43.3987487 L75.0038471,43.3709926 Z" id="Shape" fill="#F36F21" fill-rule="nonzero"></path>
                        </g>
                    </g>
                </g>
            </g>
        </g>
    </g>
</svg>