<?xml version="1.0" encoding="UTF-8"?>
<svg width="62px" height="62px" viewBox="0 0 62 62" version="1.1" xmlns="http://www.w3.org/2000/svg" xmlns:xlink="http://www.w3.org/1999/xlink">
    <!-- Generator: Sketch 64 (93537) - https://sketch.com -->
    <title>Icon</title>
    <desc>Created with Sketch.</desc>
    <defs>
        <path d="M46.6203387,8.05527342 C32.7846218,-5.94287901 20.999575,0.423302016 18.9489049,11.0878962 C16.8982348,21.7524904 -2.15127202,23.8818449 0.200762019,36.4783084 C2.55279606,49.0747718 28.1727162,41.5956217 28.1727162,53.0111667 C28.1727162,64.4267117 57.7945484,64.0330722 57.7945484,49.0747718 C57.7945484,34.1164715 60.4560557,22.0534258 46.6203387,8.05527342 Z" id="path-1"></path>
    </defs>
    <g id="Desktop" stroke="none" stroke-width="1" fill="none" fill-rule="evenodd">
        <g id="05-Services---App-Updation-Services-LP" transform="translate(-490.000000, -1020.000000)">
            <g id="VP-1" transform="translate(-1.000000, 66.000000)">
                <g id="Key-Offerings" transform="translate(215.000000, 803.000000)">
                    <g id="Offering-2" transform="translate(276.000000, 151.000000)">
                        <g id="Icon">
                            <mask id="mask-2" fill="white">
                                <use xlink:href="#path-1"></use>
                            </mask>
                            <use id="bgicon" fill="#ECEDEE" xlink:href="#path-1"></use>
                            <g id="Group" transform="translate(12.000000, 7.000000)" fill-rule="nonzero">
                                <path d="M15.3636364,19 L9.63636364,19 C9.2849097,19 9,19.2849097 9,19.6363636 L9,25.3636364 C9,25.7150903 9.2849097,26 9.63636364,26 L15.3636364,26 C15.7150903,26 16,25.7150903 16,25.3636364 L16,19.6363636 C16,19.2849097 15.7150903,19 15.3636364,19 Z M10.2727273,20.2727273 L13.7981818,20.2727273 C13.5522792,20.2612182 13.3217952,20.3925693 13.2063636,20.61 L12.0036364,22.9136364 L11.4118182,22.1181818 C11.2754077,21.9363011 11.052327,21.8410106 10.8266085,21.8682052 C10.6008899,21.8953998 10.4068256,22.0409481 10.3175175,22.2500234 C10.2282095,22.4590987 10.2572259,22.6999375 10.3936364,22.8818182 L11.5963636,24.4854545 L11.5963636,24.4854545 C11.6513579,24.5564549 11.7207576,24.6150109 11.8,24.6572727 L11.8,24.6572727 L11.9145455,24.7018182 L10.2727273,24.7018182 L10.2727273,20.2727273 Z M14.7272727,24.7272727 L12.2327273,24.7272727 L12.2836364,24.7272727 L12.3409091,24.7272727 L12.4554545,24.6636364 L12.4554545,24.6636364 L12.4554545,24.6636364 C12.504618,24.6235725 12.5475163,24.5763844 12.5827273,24.5236364 L12.5827273,24.4854545 L12.5827273,24.4854545 L14.25,21.3036364 C14.3950694,21.1234408 14.4309242,20.8787126 14.3436425,20.6644756 C14.2563607,20.4502386 14.0596922,20.3002422 13.83,20.2727273 L14.7272727,20.2727273 L14.7272727,24.7272727 Z" id="Shape" fill="#221E1F"></path>
                                <path d="M15.3636364,28 L9.63636364,28 C9.2849097,28 9,28.2849097 9,28.6363636 L9,34.3636364 C9,34.7150903 9.2849097,35 9.63636364,35 L15.3636364,35 C15.7150903,35 16,34.7150903 16,34.3636364 L16,28.6363636 C16,28.2849097 15.7150903,28 15.3636364,28 Z M10.2727273,29.2727273 L13.7981818,29.2727273 C13.5522792,29.2612182 13.3217952,29.3925693 13.2063636,29.61 L12.0036364,31.9136364 L11.4118182,31.1181818 C11.2754077,30.9363011 11.052327,30.8410106 10.8266085,30.8682052 C10.6008899,30.8953998 10.4068256,31.0409481 10.3175175,31.2500234 C10.2282095,31.4590987 10.2572259,31.6999375 10.3936364,31.8818182 L11.5963636,33.4854545 L11.5963636,33.4854545 C11.6513579,33.5564549 11.7207576,33.6150109 11.8,33.6572727 L11.8,33.6572727 L11.9145455,33.7018182 L10.2727273,33.7018182 L10.2727273,29.2727273 Z M14.7272727,33.7272727 L12.2327273,33.7272727 L12.2836364,33.7272727 L12.3409091,33.7272727 L12.4554545,33.6636364 L12.4554545,33.6636364 L12.4554545,33.6636364 C12.504618,33.6235725 12.5475163,33.5763844 12.5827273,33.5236364 L12.5827273,33.4854545 L12.5827273,33.4854545 L14.25,30.3036364 C14.372069,30.1608681 14.4248272,29.9714635 14.3941457,29.7861469 C14.3634641,29.6008302 14.2524775,29.4385357 14.0909091,29.3427273 C14.0177152,29.3043238 13.9377407,29.2805476 13.8554545,29.2727273 L14.7272727,29.2727273 L14.7272727,33.7272727 Z" id="Shape" fill="#221E1F"></path>
                                <path d="M19.6315789,11 L30.3684211,11 C30.7172325,11 31,10.7761424 31,10.5 C31,10.2238576 30.7172325,10 30.3684211,10 L19.6315789,10 C19.2827675,10 19,10.2238576 19,10.5 C19,10.7761424 19.2827675,11 19.6315789,11 Z" id="Path" fill="#221E1F"></path>
                                <path d="M18.6875,13 L28.3125,13 C28.6921958,13 29,12.7761424 29,12.5 C29,12.2238576 28.6921958,12 28.3125,12 L18.6875,12 C18.3078042,12 18,12.2238576 18,12.5 C18,12.7761424 18.3078042,13 18.6875,13 Z" id="Path" fill="#221E1F"></path>
                                <path d="M19.6666667,21 L30.3333333,21 C30.7015232,21 31,20.7761424 31,20.5 C31,20.2238576 30.7015232,20 30.3333333,20 L19.6666667,20 C19.2984768,20 19,20.2238576 19,20.5 C19,20.7761424 19.2984768,21 19.6666667,21 Z" id="Path" fill="#221E1F"></path>
                                <path d="M18.6875,23 L28.3125,23 C28.6921958,23 29,22.7761424 29,22.5 C29,22.2238576 28.6921958,22 28.3125,22 L18.6875,22 C18.3078042,22 18,22.2238576 18,22.5 C18,22.7761424 18.3078042,23 18.6875,23 Z" id="Path" fill="#221E1F"></path>
                                <path d="M18,31.5 C18,31.7761424 18.3044464,32 18.68,32 L34.32,32 C34.6955536,32 35,31.7761424 35,31.5 C35,31.2238576 34.6955536,31 34.32,31 L18.68,31 C18.3044464,31 18,31.2238576 18,31.5 Z" id="Path" fill="#221E1F"></path>
                                <path d="M18.6875,34 L28.3125,34 C28.6921958,34 29,33.7761424 29,33.5 C29,33.2238576 28.6921958,33 28.3125,33 L18.6875,33 C18.3078042,33 18,33.2238576 18,33.5 C18,33.7761424 18.3078042,34 18.6875,34 Z" id="Path" fill="#221E1F"></path>
                                <path d="M34.32,41 L18.68,41 C18.3044464,41 18,41.2238576 18,41.5 C18,41.7761424 18.3044464,42 18.68,42 L34.32,42 C34.6955536,42 35,41.7761424 35,41.5 C35,41.2238576 34.6955536,41 34.32,41 Z" id="Path" fill="#221E1F"></path>
                                <path d="M28.3125,43 L18.6875,43 C18.3078042,43 18,43.2238576 18,43.5 C18,43.7761424 18.3078042,44 18.6875,44 L28.3125,44 C28.6921958,44 29,43.7761424 29,43.5 C29,43.2238576 28.6921958,43 28.3125,43 Z" id="Path" fill="#221E1F"></path>
                                <path d="M15.3636364,9 L9.63636364,9 C9.2849097,9 9,9.2849097 9,9.63636364 L9,15.3636364 C9,15.7150903 9.2849097,16 9.63636364,16 L15.3636364,16 C15.7150903,16 16,15.7150903 16,15.3636364 L16,9.63636364 C16,9.2849097 15.7150903,9 15.3636364,9 Z M10.2727273,10.2727273 L13.7981818,10.2727273 C13.5522792,10.2612182 13.3217952,10.3925693 13.2063636,10.61 L12.0036364,12.9136364 L11.4118182,12.1181818 C11.2754077,11.9363012 11.052327,11.8410106 10.8266085,11.8682052 C10.60089,11.8953999 10.4068256,12.0409481 10.3175176,12.2500234 C10.2282095,12.4590987 10.2572259,12.6999375 10.3936364,12.8818182 L11.5963636,14.4854545 L11.5963636,14.4854545 C11.6513579,14.5564549 11.7207576,14.6150109 11.8,14.6572727 L11.8,14.6572727 L11.9145455,14.7018182 L10.2727273,14.7018182 L10.2727273,10.2727273 Z M14.7272727,14.7272727 L12.2327273,14.7272727 L12.2836364,14.7272727 L12.3409091,14.7272727 L12.4554545,14.6636364 L12.4554545,14.6636364 L12.4554545,14.6636364 C12.504618,14.6235725 12.5475163,14.5763844 12.5827273,14.5236364 L12.5827273,14.4854545 L12.5827273,14.4854545 L14.25,11.3036364 C14.3950694,11.1234408 14.4309242,10.8787126 14.3436425,10.6644756 C14.2563607,10.4502386 14.0596922,10.3002422 13.83,10.2727273 L14.7272727,10.2727273 L14.7272727,14.7272727 Z" id="Shape" fill="#221E1F"></path>
                                <path d="M15.3636364,38 L9.63636364,38 C9.2849097,38 9,38.2849097 9,38.6363636 L9,44.3636364 C9,44.7150903 9.2849097,45 9.63636364,45 L15.3636364,45 C15.7150903,45 16,44.7150903 16,44.3636364 L16,38.6363636 C16,38.2849097 15.7150903,38 15.3636364,38 Z M10.2727273,39.2727273 L13.7981818,39.2727273 C13.5522792,39.2612182 13.3217952,39.3925693 13.2063636,39.61 L12.0036364,41.9136364 L11.4118182,41.1181818 C11.2754077,40.9363011 11.052327,40.8410106 10.8266085,40.8682052 C10.6008899,40.8953998 10.4068256,41.0409481 10.3175175,41.2500234 C10.2282095,41.4590987 10.2572259,41.6999375 10.3936364,41.8818182 L11.5963636,43.4854545 L11.5963636,43.4854545 C11.6513579,43.5564549 11.7207576,43.6150109 11.8,43.6572727 L11.8,43.6572727 L11.9145455,43.7018182 L10.2727273,43.7018182 L10.2727273,39.2727273 Z M14.7272727,43.7272727 L12.2327273,43.7272727 L12.2836364,43.7272727 L12.3409091,43.7272727 L12.4554545,43.6636364 L12.4554545,43.6636364 L12.4554545,43.6636364 C12.504618,43.6235725 12.5475163,43.5763844 12.5827273,43.5236364 L12.5827273,43.4854545 L12.5827273,43.4854545 L14.25,40.3036364 C14.3950694,40.1234408 14.4309242,39.8787126 14.3436425,39.6644756 C14.2563607,39.4502386 14.0596922,39.3002422 13.83,39.2727273 L14.7272727,39.2727273 L14.7272727,43.7272727 Z" id="Shape" fill="#221E1F"></path>
                                <path d="M48.0017974,26.325 L47.336329,26.325 L47.336329,5.4 L48.0017974,5.4 C48.5530895,5.4 49,4.94668831 49,4.3875 C49,3.82831169 48.5530895,3.375 48.0017974,3.375 L42.6780504,3.375 C42.4743055,1.45723016 40.8796798,0.00267456934 38.9780461,0 L5.13897886,0 C3.08601619,0.0037152053 1.42267334,1.6908824 1.4190106,3.77325 L1.4190106,6.20325 L0.314333085,6.87825 C0.00193425095,7.07582987 -0.093406659,7.49287662 0.101383202,7.80975 C0.296173063,8.12662338 0.707330737,8.22332987 1.01972957,8.02575 L1.4190106,7.776 L1.4190106,14.283 L0.314333085,14.958 C0.112246463,15.0858118 -0.00726537058,15.3132708 0.000342710954,15.5546956 C0.00889844464,15.7961204 0.143346259,16.0148326 0.353514788,16.1284456 C0.563683317,16.2420586 0.817642959,16.2333118 1.01972957,16.1055 L1.4190106,15.85575 L1.4190106,22.36275 L0.314333085,23.03775 C0.112246463,23.1655618 -0.00726537058,23.3930208 0.000342710954,23.6344456 C0.00889844464,23.8758704 0.143346259,24.0945826 0.353514788,24.2081956 C0.563683317,24.3218086 0.817642959,24.3130618 1.01972957,24.18525 L1.4190106,23.9355 L1.4190106,30.4425 L0.314333085,31.1175 C0.112246463,31.2453118 -0.00726537058,31.4727708 0.000342710954,31.7141956 C0.00889844464,31.9556204 0.143346259,32.1743326 0.353514788,32.2879456 C0.563683317,32.4015586 0.817642959,32.3928118 1.01972957,32.265 L1.4190106,32.01525 L1.4190106,38.52225 L0.314333085,39.19725 C0.00193425095,39.3948299 -0.093406659,39.8118766 0.101383202,40.12875 C0.296173063,40.4456234 0.707330737,40.5423299 1.01972957,40.34475 L1.4190106,40.095 L1.4190106,46.602 L0.314333085,47.277 C0.112246451,47.4048118 -0.00726539428,47.6322708 0.000342710954,47.8736956 C0.00889841392,48.1151204 0.143346233,48.3338326 0.353514771,48.4474456 C0.563683308,48.5610586 0.817642959,48.5523118 1.01972957,48.4245 L1.4190106,48.17475 L1.4190106,50.10525 C1.38843629,51.126329 1.76660515,52.1164868 2.46737785,52.8501851 C3.16815056,53.5838834 4.13185513,53.9986466 5.13897886,54 L38.9580821,54 C41.0110448,53.9962848 42.6743876,52.3091176 42.6780504,50.22675 L42.6780504,28.35 L48.0017974,28.35 C48.5530895,28.35 49,27.8966883 49,27.3375 C49,26.7783117 48.5530895,26.325 48.0017974,26.325 Z M46.0053923,26.325 L44.6744555,26.325 L44.6744555,20.37825 C44.7010375,18.3836204 43.5050751,16.5814655 41.6731931,15.85575 C43.5117736,15.100804 44.7040072,13.2774538 44.6744555,11.26575 L44.6744555,5.4 L46.0053923,5.4 L46.0053923,26.325 Z M35.3578981,5.4 L35.3578981,11.26575 C35.3184673,13.2756894 36.4998265,15.1039377 38.3325418,15.86925 C36.5169753,16.6034882 35.334535,18.3958452 35.3578981,20.37825 L35.3578981,26.325 L34.0269614,26.325 L34.0269614,5.4 L35.3578981,5.4 Z M43.3435187,5.4 L43.3435187,11.26575 C43.3388714,11.4490686 43.3210786,11.6318011 43.2902813,11.8125 C43.1026675,11.5984476 42.83398,11.4756837 42.5516114,11.475 L37.4807423,11.475 C37.1973298,11.4773941 36.9284745,11.6026916 36.7420724,11.81925 C36.7140737,11.6360489 36.6985095,11.451114 36.6954896,11.26575 L36.6954896,5.4 L43.3435187,5.4 Z M38.9580821,1.35 C40.1231672,1.35368331 41.1157138,2.20928928 41.3071855,3.375 L32.0305562,3.375 C31.4792642,3.375 31.0323537,3.82831169 31.0323537,4.3875 C31.0323537,4.94668831 31.4792642,5.4 32.0305562,5.4 L32.6960246,5.4 L32.6960246,26.325 L32.0305562,26.325 C31.4792642,26.325 31.0323537,26.7783117 31.0323537,27.3375 C31.0323537,27.8966883 31.4792642,28.35 32.0305562,28.35 L41.3471136,28.35 L41.3471136,50.22675 C41.3434578,51.563535 40.2759905,52.6462918 38.9580821,52.65 L5.13897886,52.65 C3.82107045,52.6462918 2.75360317,51.563535 2.74994737,50.22675 L2.74994737,47.4525 L4.26721528,46.494 C4.46930191,46.3661882 4.58881375,46.1387292 4.58073185,45.8973044 C4.57264994,45.6558796 4.43820213,45.4371674 4.22803359,45.3235544 C4.01786506,45.2099414 3.76390541,45.2186882 3.56181879,45.3465 L2.74994737,45.86625 L2.74994737,39.3525 L4.26721528,38.394 C4.46930189,38.2661882 4.58881372,38.0387292 4.58073181,37.7973044 C4.5726499,37.5558797 4.43820208,37.3371674 4.22803356,37.2235544 C4.01786504,37.1099414 3.76390541,37.1186882 3.56181879,37.2465 L2.74994737,37.76625 L2.74994737,31.2525 L4.26721528,30.294 C4.57961411,30.0964201 4.67495502,29.6793734 4.48016516,29.3625 C4.2853753,29.0456266 3.87421763,28.9489201 3.56181879,29.1465 L2.74994737,29.66625 L2.74994737,23.1525 L4.26721528,22.194 C4.57961411,21.9964201 4.67495502,21.5793734 4.48016516,21.2625 C4.2853753,20.9456266 3.87421763,20.8489201 3.56181879,21.0465 L2.74994737,21.56625 L2.74994737,15.0525 L4.26721528,14.094 C4.57961411,13.8964201 4.67495502,13.4793734 4.48016516,13.1625 C4.2853753,12.8456266 3.87421763,12.7489201 3.56181879,12.9465 L2.74994737,13.46625 L2.74994737,6.9525 L4.26721528,5.994 C4.57961411,5.79642013 4.67495502,5.37937338 4.48016516,5.0625 C4.2853753,4.74562662 3.87421763,4.64892013 3.56181879,4.8465 L2.74994737,5.36625 L2.74994737,3.77325 C2.75360317,2.43646496 3.82107045,1.35370816 5.13897886,1.35 L38.9580821,1.35 Z M40.0161768,17.00325 C41.853817,17.00325 43.3435187,18.514289 43.3435187,20.37825 L43.3435187,25.49475 C42.8597856,24.0487222 41.5216194,23.0759447 40.0161768,23.0759447 C38.5107342,23.0759447 37.1725681,24.0487222 36.6888349,25.49475 L36.6888349,20.37825 C36.6888349,18.514289 38.1785366,17.00325 40.0161768,17.00325 Z" id="Shape" stroke="#221E1F" stroke-width="0.5" fill="#000000"></path>
                                <path d="M42.6191189,2.99811469 C42.644724,3.12149164 42.6644747,3.24721756 42.6780504,3.375 L42.6780504,3.375 L48.0017974,3.375 C48.5530895,3.375 49,3.82831169 49,4.3875 C49,4.94668831 48.5530895,5.4 48.0017974,5.4 L48.0017974,5.4 L47.336329,5.4 L47.336329,26.325 L48.0017974,26.325 C48.5530895,26.325 49,26.7783117 49,27.3375 C49,27.8966883 48.5530895,28.35 48.0017974,28.35 L48.0017974,28.35 L42.6780504,28.35 L42.6773537,28.9991147 L41.3463537,28.9991147 L41.3471136,28.35 L32.0305562,28.35 C31.4792642,28.35 31.0323537,27.8966883 31.0323537,27.3375 C31.0323537,26.7783117 31.4792642,26.325 32.0305562,26.325 L32.0305562,26.325 L32.6960246,26.325 L32.6960246,5.4 L32.0305562,5.4 C31.4792642,5.4 31.0323537,4.94668831 31.0323537,4.3875 C31.0323537,3.82831169 31.4792642,3.375 32.0305562,3.375 L32.0305562,3.375 L41.3071855,3.375 C41.2859306,3.24559674 41.2548042,3.12001483 41.2146662,2.99899544 Z M46.0053923,5.4 L44.6744555,5.4 L44.6744555,11.26575 C44.7040072,13.2774538 43.5117736,15.100804 41.6731931,15.85575 C43.5050751,16.5814655 44.7010375,18.3836204 44.6744555,20.37825 L44.6744555,20.37825 L44.6744555,26.325 L46.0053923,26.325 L46.0053923,5.4 Z M35.3578981,5.4 L34.0269614,5.4 L34.0269614,26.325 L35.3578981,26.325 L35.3578981,20.37825 C35.334535,18.3958452 36.5169753,16.6034882 38.3325418,15.86925 C36.4998265,15.1039377 35.3184673,13.2756894 35.3578981,11.26575 L35.3578981,11.26575 L35.3578981,5.4 Z M40.0161768,17.00325 C38.1785366,17.00325 36.6888349,18.514289 36.6888349,20.37825 L36.6888349,20.37825 L36.6888349,25.49475 C37.1725681,24.0487222 38.5107342,23.0759447 40.0161768,23.0759447 C41.5216194,23.0759447 42.8597856,24.0487222 43.3435187,25.49475 L43.3435187,25.49475 L43.3435187,20.37825 C43.3435187,18.514289 41.853817,17.00325 40.0161768,17.00325 Z M43.3435187,5.4 L36.6954896,5.4 L36.6954896,11.26575 C36.6985095,11.451114 36.7140737,11.6360489 36.7420724,11.81925 C36.9284745,11.6026916 37.1973298,11.4773941 37.4807423,11.475 L37.4807423,11.475 L42.5516114,11.475 C42.83398,11.4756837 43.1026675,11.5984476 43.2902813,11.8125 C43.3210786,11.6318011 43.3388714,11.4490686 43.3435187,11.26575 L43.3435187,11.26575 L43.3435187,5.4 Z" id="Combined-Shape" stroke="#F36F21" stroke-width="0.5" fill="#F36F21"></path>
                            </g>
                        </g>
                    </g>
                </g>
            </g>
        </g>
    </g>
</svg>