<?xml version="1.0" encoding="UTF-8"?>
<svg width="109px" height="80px" viewBox="0 0 109 80" version="1.1" xmlns="http://www.w3.org/2000/svg" xmlns:xlink="http://www.w3.org/1999/xlink">
    <!-- Generator: Sketch 64 (93537) - https://sketch.com -->
    <title>Icon</title>
    <desc>Created with Sketch.</desc>
    <defs>
        <polygon id="path-1" points="0 79.3588444 108.196444 79.3588444 108.196444 -0.000266666667 0 -0.000266666667"></polygon>
    </defs>
    <g id="Desktop" stroke="none" stroke-width="1" fill="none" fill-rule="evenodd">
        <g id="04-Services---App-Submission-Services-LP-" transform="translate(-1065.000000, -2189.000000)">
            <g id="HIW" transform="translate(0.000000, 1374.000000)">
                <g id="Steps" transform="translate(179.000000, 508.000000)">
                    <g id="5" transform="translate(886.000000, 307.000000)">
                        <g id="Icon">
                            <g id="Group-31">
                                <path d="M97.3736,71.9325333 L10.8233778,71.9325333 L10.8233778,22.8534222 C10.8233778,21.7040889 11.2722667,20.6223111 12.0864889,19.8080889 C12.8776,19.0080889 13.9896,18.5449778 15.1318222,18.5449778 L27.0891556,18.5449778 L27.0891556,21.5974222 L15.1318222,21.5974222 C14.7949333,21.5974222 14.4820444,21.7272 14.2509333,21.9609778 C14.0064889,22.2045333 13.8758222,22.5192 13.8758222,22.8534222 L13.8758222,68.8792 L94.3211556,68.8792 L94.3211556,22.8534222 C94.3211556,22.5183111 94.1896,22.2018667 93.9513778,21.9600889 C93.7193778,21.7307556 93.4002667,21.5974222 93.0651556,21.5974222 L81.1069333,21.5974222 L81.1069333,18.5449778 L93.0651556,18.5449778 C94.2091556,18.5449778 95.2909333,18.9912 96.1104889,19.8027556 C96.9291556,20.6312 97.3736,21.7103111 97.3736,22.8534222 L97.3736,71.9325333 Z" id="Fill-1" fill="#333333"></path>
                                <polygon id="Fill-3" fill="#333333" points="91.9031111 71.9325333 16.2933333 71.9325333 16.2933333 24.0160889 27.0888889 24.0160889 27.0888889 27.0676444 19.3466667 27.0676444 19.3466667 68.8792 88.8506667 68.8792 88.8506667 27.0676444 81.1066667 27.0676444 81.1066667 24.0160889 91.9031111 24.0160889"></polygon>
                                <path d="M3.05244444,71.9316444 L3.05244444,74.1192 C3.05244444,74.7032 3.28,75.2516444 3.69333333,75.6658667 C4.10666667,76.0783111 4.656,76.3067556 5.24,76.3067556 L102.957333,76.3067556 C103.541333,76.3067556 104.090667,76.0792 104.503111,75.6658667 C104.917333,75.2525333 105.144,74.7032 105.144,74.1192 L105.144,71.9316444 L3.05244444,71.9316444 Z M102.957333,79.3583111 L5.24,79.3583111 C3.84,79.3583111 2.52444444,78.8134222 1.53511111,77.8240889 C0.544888889,76.8347556 0,75.5183111 0,74.1192 L0,68.8783111 L108.196444,68.8783111 L108.196444,74.1192 C108.196444,75.5192 107.651556,76.8356444 106.661333,77.8249778 C105.673778,78.8134222 104.357333,79.3583111 102.957333,79.3583111 L102.957333,79.3583111 Z" id="Fill-5" fill="#333333"></path>
                                <mask id="mask-2" fill="white">
                                    <use xlink:href="#path-1"></use>
                                </mask>
                                <g id="Clip-8"></g>
                                <path d="M28.6151111,68.8788444 L79.5804444,68.8788444 L79.5804444,8.61573333 L28.6151111,8.61573333 L28.6151111,68.8788444 Z M25.5626667,71.9312889 L82.6337778,71.9312889 L82.6337778,5.56328889 L25.5626667,5.56328889 L25.5626667,71.9312889 Z" id="Fill-7" fill="#333333" mask="url(#mask-2)"></path>
                                <path d="M28.6151111,5.56328889 L79.5804444,5.56328889 L79.5804444,3.05217778 L28.6151111,3.05217778 L28.6151111,5.56328889 Z M25.5626667,8.61573333 L82.6337778,8.61573333 L82.6337778,0.000622222222 L25.5626667,0.000622222222 L25.5626667,8.61573333 Z" id="Fill-9" fill="#F36F21" mask="url(#mask-2)"></path>
                                <path d="M36,30 L72,30 L72,21 L36,21 L36,30 Z M33,32 L75,32 L75,19 L33,19 L33,32 Z" id="Fill-10" fill="#E8E6E6" mask="url(#mask-2)"></path>
                                <path d="M36.1537778,50.9952889 L41.7555556,50.9952889 L41.7555556,45.3944 L36.1537778,45.3944 L36.1537778,50.9952889 Z M33.1013333,54.0477333 L44.808,54.0477333 L44.808,42.3410667 L33.1013333,42.3410667 L33.1013333,54.0477333 Z" id="Fill-11" fill="#E8E6E6" mask="url(#mask-2)"></path>
                                <path d="M51.2977778,50.9952889 L56.8995556,50.9952889 L56.8995556,45.3944 L51.2977778,45.3944 L51.2977778,50.9952889 Z M48.2453333,54.0477333 L59.952,54.0477333 L59.952,42.3410667 L48.2453333,42.3410667 L48.2453333,54.0477333 Z" id="Fill-12" fill="#E8E6E6" mask="url(#mask-2)"></path>
                                <path d="M66.4426667,50.9952889 L72.0435556,50.9952889 L72.0435556,45.3944 L66.4426667,45.3944 L66.4426667,50.9952889 Z M63.3902222,54.0477333 L75.096,54.0477333 L75.096,42.3410667 L63.3902222,42.3410667 L63.3902222,54.0477333 Z" id="Fill-13" fill="#E8E6E6" mask="url(#mask-2)"></path>
                                <polygon id="Fill-14" fill="#E8E6E6" mask="url(#mask-2)" points="35.2648889 66.1019556 42.6444444 66.1019556 42.6444444 63.0495111 35.2648889 63.0495111"></polygon>
                                <polygon id="Fill-15" fill="#E8E6E6" mask="url(#mask-2)" points="33.1013333 60.5384 44.808 60.5384 44.808 57.4859556 33.1013333 57.4859556"></polygon>
                                <polygon id="Fill-16" fill="#E8E6E6" mask="url(#mask-2)" points="50.4088889 66.1019556 57.7884444 66.1019556 57.7884444 63.0495111 50.4088889 63.0495111"></polygon>
                                <polygon id="Fill-17" fill="#E8E6E6" mask="url(#mask-2)" points="48.2453333 60.5384 59.952 60.5384 59.952 57.4859556 48.2453333 57.4859556"></polygon>
                                <polygon id="Fill-18" fill="#E8E6E6" mask="url(#mask-2)" points="65.5528889 66.1019556 72.9324444 66.1019556 72.9324444 63.0495111 65.5528889 63.0495111"></polygon>
                                <polygon id="Fill-19" fill="#E8E6E6" mask="url(#mask-2)" points="63.3902222 60.5384 75.096 60.5384 75.096 57.4859556 63.3902222 57.4859556"></polygon>
                                <polygon id="Fill-20" fill="#E8E6E6" mask="url(#mask-2)" points="33.1013333 15.1064 44.808 15.1064 44.808 12.0530667 33.1013333 12.0530667"></polygon>
                                <polygon id="Fill-21" fill="#E8E6E6" mask="url(#mask-2)" points="48.2453333 15.1064 59.952 15.1064 59.952 12.0530667 48.2453333 12.0530667"></polygon>
                                <polygon id="Fill-22" fill="#E8E6E6" mask="url(#mask-2)" points="63.3902222 15.1064 75.096 15.1064 75.096 12.0530667 63.3902222 12.0530667"></polygon>
                                <polygon id="Fill-23" fill="#E8E6E6" mask="url(#mask-2)" points="105.144 3.05217778 108.196444 3.05217778 108.196444 -0.000266666667 105.144 -0.000266666667"></polygon>
                                <path d="M6.14666667,3.05217778 L9.24,3.05217778 L9.24,-0.000266666667 L6.14666667,-0.000266666667 L6.14666667,3.05217778 Z M12.3342222,3.05217778 L15.4275556,3.05217778 L15.4275556,-0.000266666667 L12.3342222,-0.000266666667 L12.3342222,3.05217778 Z M18.5217778,3.05217778 L21.6151111,3.05217778 L21.6151111,-0.000266666667 L18.5217778,-0.000266666667 L18.5217778,3.05217778 Z M86.5831111,3.05217778 L89.6764444,3.05217778 L89.6764444,-0.000266666667 L86.5831111,-0.000266666667 L86.5831111,3.05217778 Z M92.7697778,3.05217778 L95.8631111,3.05217778 L95.8631111,-0.000266666667 L92.7697778,-0.000266666667 L92.7697778,3.05217778 Z M98.9573333,3.05217778 L102.050667,3.05217778 L102.050667,-0.000266666667 L98.9573333,-0.000266666667 L98.9573333,3.05217778 Z" id="Fill-24" fill="#E8E6E6" mask="url(#mask-2)"></path>
                                <polygon id="Fill-25" fill="#E8E6E6" mask="url(#mask-2)" points="0 3.05217778 3.05244444 3.05217778 3.05244444 -0.000266666667 0 -0.000266666667"></polygon>
                                <path d="M0,9.45662222 L3.05244444,9.45662222 L3.05244444,6.25395556 L0,6.25395556 L0,9.45662222 Z M0,15.8601778 L3.05244444,15.8601778 L3.05244444,12.6575111 L0,12.6575111 L0,15.8601778 Z M0,22.2637333 L3.05244444,22.2637333 L3.05244444,19.0610667 L0,19.0610667 L0,22.2637333 Z M0,28.6681778 L3.05244444,28.6681778 L3.05244444,25.4655111 L0,25.4655111 L0,28.6681778 Z M0,35.0726222 L3.05244444,35.0726222 L3.05244444,31.8699556 L0,31.8699556 L0,35.0726222 Z M0,41.4761778 L3.05244444,41.4761778 L3.05244444,38.2744 L0,38.2744 L0,41.4761778 Z M0,47.8797333 L3.05244444,47.8797333 L3.05244444,44.6779556 L0,44.6779556 L0,47.8797333 Z M0,54.2841778 L3.05244444,54.2841778 L3.05244444,51.0815111 L0,51.0815111 L0,54.2841778 Z" id="Fill-26" fill="#E8E6E6" mask="url(#mask-2)"></path>
                                <polygon id="Fill-27" fill="#E8E6E6" mask="url(#mask-2)" points="0 60.5384 3.05244444 60.5384 3.05244444 57.4859556 0 57.4859556"></polygon>
                                <path d="M6.14666667,60.5384 L9.24,60.5384 L9.24,57.4859556 L6.14666667,57.4859556 L6.14666667,60.5384 Z M98.9573333,60.5384 L102.050667,60.5384 L102.050667,57.4859556 L98.9573333,57.4859556 L98.9573333,60.5384 Z" id="Fill-28" fill="#E8E6E6" mask="url(#mask-2)"></path>
                                <polygon id="Fill-29" fill="#E8E6E6" mask="url(#mask-2)" points="105.144 60.5384 108.196444 60.5384 108.196444 57.4859556 105.144 57.4859556"></polygon>
                                <path d="M105.144,9.45662222 L108.196444,9.45662222 L108.196444,6.25395556 L105.144,6.25395556 L105.144,9.45662222 Z M105.144,15.8601778 L108.196444,15.8601778 L108.196444,12.6575111 L105.144,12.6575111 L105.144,15.8601778 Z M105.144,22.2637333 L108.196444,22.2637333 L108.196444,19.0610667 L105.144,19.0610667 L105.144,22.2637333 Z M105.144,28.6681778 L108.196444,28.6681778 L108.196444,25.4655111 L105.144,25.4655111 L105.144,28.6681778 Z M105.144,35.0726222 L108.196444,35.0726222 L108.196444,31.8699556 L105.144,31.8699556 L105.144,35.0726222 Z M105.144,41.4761778 L108.196444,41.4761778 L108.196444,38.2744 L105.144,38.2744 L105.144,41.4761778 Z M105.144,47.8797333 L108.196444,47.8797333 L108.196444,44.6779556 L105.144,44.6779556 L105.144,47.8797333 Z M105.144,54.2841778 L108.196444,54.2841778 L108.196444,51.0815111 L105.144,51.0815111 L105.144,54.2841778 Z" id="Fill-30" fill="#E8E6E6" mask="url(#mask-2)"></path>
                            </g>
                            <path d="M75.6495091,44 L69.3499742,44 C69.1567884,44 69,43.832 69,43.625 L69,41.375 C69,41.168 69.1567884,41 69.3499742,41 C69.5431599,41 69.6999483,41.168 69.6999483,41.375 L69.6999483,43.25 L74.8851655,43.25 L72.0601741,39.74525 C71.9467824,39.60425 71.9467824,39.39575 72.0601741,39.2555 L74.8851655,35.75 L70.7498708,35.75 C70.5566851,35.75 70.3998966,35.582 70.3998966,35.375 C70.3998966,35.168 70.5566851,35 70.7498708,35 L75.6495091,35 C75.7866989,35 75.9105898,35.0855 75.9679856,35.219 C76.0253813,35.3525 76.0043829,35.50925 75.9147895,35.62025 L72.7874204,39.5 L75.9147895,43.37975 C76.0043829,43.49075 76.0253813,43.6475 75.9679856,43.781 C75.9105898,43.9145 75.7866989,44 75.6495091,44 Z" id="Path" stroke="#F36F21" fill="#000000" fill-rule="nonzero"></path>
                            <path d="M39.6000295,44 L32.4005611,44 C32.2437726,44 32.1021831,43.9145 32.0365879,43.781 C31.9709928,43.6475 31.994991,43.49075 32.0973834,43.37975 L35.6715196,39.5 L32.0973834,35.62025 C31.994991,35.50925 31.9709928,35.3525 32.0365879,35.219 C32.1021831,35.0855 32.2437726,35 32.4005611,35 L37.0001476,35 C37.2209313,35 37.4001181,35.168 37.4001181,35.375 C37.4001181,35.582 37.2209313,35.75 37.0001476,35.75 L33.2740966,35.75 L36.5026582,39.25475 C36.6322486,39.39575 36.6322486,39.60425 36.5026582,39.7445 L33.2740966,43.25 L39.2000591,43.25 L39.2000591,41.375 C39.2000591,41.168 39.3792458,41 39.6000295,41 C39.8208132,41 40,41.168 40,41.375 L40,43.625 C40,43.832 39.8208132,44 39.6000295,44 Z" id="Path" stroke="#F36F21" fill="#000000" fill-rule="nonzero"></path>
                            <g id="Review2" transform="translate(37.000000, 20.000000)">
                                <path d="M31.6410575,11 C31.4842767,11 31.3403819,10.900284 31.2967124,10.7483469 C29.5828618,4.82486237 23.9094005,0.6874982 17.5,0.6874982 C11.0898836,0.6874982 5.41713825,4.82486237 3.70328761,10.7483469 C3.65031144,10.9312214 3.45272465,11.0377836 3.26229681,10.9875962 C3.07186896,10.9367214 2.96018947,10.7469719 3.01316563,10.5640973 C4.81292357,4.34430113 10.7698789,0 17.5,0 C24.2294052,0 30.1870764,4.34430113 31.9868344,10.5640973 C32.0398105,10.7469719 31.928131,10.9367214 31.7377032,10.9875962 C31.705488,10.9958462 31.6732727,11 31.6410575,11 Z" id="Path" stroke="#333333" fill="#000000" fill-rule="nonzero"></path>
                                <path d="M17.5,32 C10.7705948,32 4.81292357,27.6556046 3.01316563,21.4356733 C2.96018947,21.2527948 3.07186896,21.0630412 3.26229681,21.0121652 C3.45272465,20.9626643 3.65031144,21.0685413 3.70328761,21.2514198 C5.41713825,27.1750329 11.0905995,31.3124869 17.5,31.3124869 C23.9094005,31.3124869 29.5828618,27.1750329 31.2967124,21.2514198 C31.3496886,21.0685413 31.5472753,20.9626643 31.7377032,21.0121652 C31.928131,21.0630412 32.0398105,21.2527948 31.9868344,21.4356733 C30.1870764,27.6556046 24.2294052,32 17.5,32 Z" id="Path" stroke="#333333" fill="#000000" fill-rule="nonzero"></path>
                                <path d="M17.4996499,29 C12.8742665,29 8.66338921,25.983487 7.02286949,21.4928969 C6.95425194,21.3052739 7.04527522,21.095107 7.22592144,21.0238393 C7.40656766,20.9525716 7.60891943,21.0463832 7.67753698,21.2347334 C9.21583055,25.4446162 13.1634405,28.2727789 17.4996499,28.2727789 C21.8358593,28.2727789 25.7834693,25.4446162 27.322463,21.2354606 C27.3910806,21.0471104 27.5941325,20.9532989 27.7740786,21.0245665 C27.9547248,21.0958342 28.0457481,21.3060011 27.9771305,21.4936241 C26.3359106,25.983487 22.1250333,29 17.4996499,29 Z" id="Path" stroke="#F36F21" fill="#F36F21" fill-rule="nonzero"></path>
                                <path d="M27.6501469,10.9995667 C27.5087107,10.9995667 27.3756766,10.910117 27.3231632,10.7646703 C25.7841695,6.55544376 21.8365595,3.72723333 17.5003501,3.72723333 C13.1641407,3.72723333 9.21653073,6.55544376 7.67753698,10.7646703 C7.60891943,10.9530237 7.40656766,11.0482913 7.22592144,10.975568 C7.04527522,10.9042991 6.95425194,10.6941287 7.02286949,10.5065025 C8.66408939,6.01656386 12.8749667,3 17.5003501,3 C22.1257335,3 26.3366108,6.01656386 27.9771305,10.5072297 C28.0457481,10.6948559 27.9547248,10.9050263 27.7740786,10.9762952 C27.7334682,10.9922943 27.6914574,10.9995667 27.6501469,10.9995667 Z" id="Path" stroke="#F36F21" fill="#F36F21" fill-rule="nonzero"></path>
                                <path d="M33.6458333,21 L0.354166667,21 C0.158666667,21 0,20.8133333 0,20.5833333 L0,11.4166667 C0,11.1866667 0.158666667,11 0.354166667,11 L24.5208333,11 C24.7163333,11 24.875,11.1866667 24.875,11.4166667 C24.875,11.6466667 24.7163333,11.8333333 24.5208333,11.8333333 L0.708333333,11.8333333 L0.708333333,20.1666667 L33.2916667,20.1666667 L33.2916667,11.8333333 L23.7291667,11.8333333 C23.5336667,11.8333333 23.375,11.6466667 23.375,11.4166667 C23.375,11.1866667 23.5336667,11 23.7291667,11 L33.6458333,11 C33.8413333,11 34,11.1866667 34,11.4166667 L34,20.5833333 C34,20.8133333 33.8413333,21 33.6458333,21 Z" id="Path" stroke="#333333" fill="#000000" fill-rule="nonzero"></path>
                                <path d="M18.249148,18 C18.1844909,18 18.1205004,17.981227 18.0645087,17.9436809 L16.9993334,17.2296346 L15.9341582,17.9436809 C15.8161757,18.0227958 15.6601988,18.0181026 15.5468823,17.930942 C15.4342323,17.8437814 15.3882392,17.6942675 15.4335658,17.5581629 L15.784847,16.4974858 L15.0976156,15.8055649 C15.0022964,15.7096882 14.973634,15.565538 15.0256263,15.4401609 C15.076952,15.3147838 15.1989339,15.2329869 15.3335806,15.2329869 L16.3434308,15.2329869 L16.6840469,14.2051626 C16.7747001,13.9316125 17.2252999,13.9316125 17.3159531,14.2051626 L17.6565692,15.2329869 L18.6664194,15.2329869 C18.8010661,15.2329869 18.923048,15.3147838 18.9743737,15.4401609 C19.026366,15.565538 18.9977036,15.7096882 18.9023844,15.8055649 L18.215153,16.4974858 L18.5664342,17.5581629 C18.6117608,17.6942675 18.5657677,17.8437814 18.4531177,17.930942 C18.39246,17.9765337 18.3204707,18 18.249148,18 Z M16.9993334,16.4914516 C17.0639905,16.4914516 17.127981,16.5102246 17.1839727,16.5477707 L17.6259071,16.8434462 L17.51659,16.5135769 C17.4765959,16.3928931 17.5079246,16.2601408 17.5972447,16.1702984 L17.8612055,15.9047938 L17.4159383,15.9047938 C17.2726262,15.9047938 17.1453118,15.8122695 17.0999852,15.6754945 L16.9993334,15.3724438 L16.8986817,15.6754945 C16.8533551,15.8122695 16.7260407,15.9047938 16.5827286,15.9047938 L16.1374613,15.9047938 L16.4014222,16.1702984 C16.4907422,16.2601408 16.5220709,16.3928931 16.4820769,16.5135769 L16.3727597,16.8434462 L16.8146942,16.5477707 C16.8706859,16.5095541 16.9353429,16.4914516 16.9993334,16.4914516 Z" id="Shape" fill="#F36F21" fill-rule="nonzero"></path>
                                <path d="M11.249148,18 C11.1844909,18 11.1205004,17.981227 11.0645087,17.9436809 L9.99933343,17.2296346 L8.93415816,17.9436809 C8.81617567,18.0227958 8.66019882,18.0181026 8.5468823,17.930942 C8.43423235,17.8437814 8.38823917,17.6942675 8.43356578,17.5581629 L8.78484699,16.4974858 L8.09761563,15.8055649 C8.00229644,15.7096882 7.97363403,15.565538 8.02562631,15.4401609 C8.07695203,15.3147838 8.19893393,15.2329869 8.33358062,15.2329869 L9.34343076,15.2329869 L9.68404688,14.2051626 C9.7747001,13.9316125 10.2252999,13.9316125 10.3159531,14.2051626 L10.6565692,15.2329869 L11.6664194,15.2329869 C11.8010661,15.2329869 11.923048,15.3147838 11.9743737,15.4401609 C12.026366,15.565538 11.9977036,15.7096882 11.9023844,15.8055649 L11.215153,16.4974858 L11.5664342,17.5581629 C11.6117608,17.6942675 11.5657677,17.8437814 11.4531177,17.930942 C11.39246,17.9765337 11.3204707,18 11.249148,18 Z M9.99933343,16.4914516 C10.0639905,16.4914516 10.127981,16.5102246 10.1839727,16.5477707 L10.6259071,16.8434462 L10.51659,16.5135769 C10.4765959,16.3928931 10.5079246,16.2601408 10.5972447,16.1702984 L10.8612055,15.9047938 L10.4159383,15.9047938 C10.2726262,15.9047938 10.1453118,15.8122695 10.0999852,15.6754945 L9.99933343,15.3724438 L9.8986817,15.6754945 C9.85335509,15.8122695 9.72604065,15.9047938 9.58272859,15.9047938 L9.13746133,15.9047938 L9.40142216,16.1702984 C9.49074224,16.2601408 9.52207092,16.3928931 9.48207686,16.5135769 L9.37275974,16.8434462 L9.81469416,16.5477707 C9.87068586,16.5095541 9.93534293,16.4914516 9.99933343,16.4914516 Z" id="Shape" fill="#F36F21" fill-rule="nonzero"></path>
                                <path d="M5.24914797,18 C5.1844909,18 5.12050039,17.981227 5.0645087,17.9436809 L3.99933343,17.2296346 L2.93415816,17.9436809 C2.81617567,18.0227958 2.66019882,18.0181026 2.5468823,17.930942 C2.43423235,17.8437814 2.38823917,17.6942675 2.43356578,17.5581629 L2.78484699,16.4974858 L2.09761563,15.8055649 C2.00229644,15.7096882 1.97363403,15.565538 2.02562631,15.4401609 C2.07695203,15.3147838 2.19893393,15.2329869 2.33358062,15.2329869 L3.34343076,15.2329869 L3.68404688,14.2051626 C3.7747001,13.9316125 4.2252999,13.9316125 4.31595312,14.2051626 L4.65656924,15.2329869 L5.66641938,15.2329869 C5.80106607,15.2329869 5.92304797,15.3147838 5.97437369,15.4401609 C6.02636597,15.565538 5.99770356,15.7096882 5.90238437,15.8055649 L5.21515301,16.4974858 L5.56643422,17.5581629 C5.61176083,17.6942675 5.56576765,17.8437814 5.4531177,17.930942 C5.39246004,17.9765337 5.32047072,18 5.24914797,18 Z M3.99933343,16.4914516 C4.0639905,16.4914516 4.12798101,16.5102246 4.1839727,16.5477707 L4.62590712,16.8434462 L4.51659001,16.5135769 C4.47659594,16.3928931 4.50792463,16.2601408 4.59724471,16.1702984 L4.86120554,15.9047938 L4.41593828,15.9047938 C4.27262621,15.9047938 4.14531177,15.8122695 4.09998516,15.6754945 L3.99933343,15.3724438 L3.8986817,15.6754945 C3.85335509,15.8122695 3.72604065,15.9047938 3.58272859,15.9047938 L3.13746133,15.9047938 L3.40142216,16.1702984 C3.49074224,16.2601408 3.52207092,16.3928931 3.48207686,16.5135769 L3.37275974,16.8434462 L3.81469416,16.5477707 C3.87068586,16.5095541 3.93534293,16.4914516 3.99933343,16.4914516 Z" id="Shape" fill="#F36F21" fill-rule="nonzero"></path>
                                <path d="M25.249148,18 C25.1844909,18 25.1205004,17.981227 25.0645087,17.9436809 L23.9993334,17.2296346 L22.9341582,17.9436809 C22.8161757,18.0227958 22.6601988,18.0181026 22.5468823,17.930942 C22.4342323,17.8437814 22.3882392,17.6942675 22.4335658,17.5581629 L22.784847,16.4974858 L22.0976156,15.8055649 C22.0022964,15.7096882 21.973634,15.565538 22.0256263,15.4401609 C22.076952,15.3147838 22.1989339,15.2329869 22.3335806,15.2329869 L23.3434308,15.2329869 L23.6840469,14.2051626 C23.7747001,13.9316125 24.2252999,13.9316125 24.3159531,14.2051626 L24.6565692,15.2329869 L25.6664194,15.2329869 C25.8010661,15.2329869 25.923048,15.3147838 25.9743737,15.4401609 C26.026366,15.565538 25.9977036,15.7096882 25.9023844,15.8055649 L25.215153,16.4974858 L25.5664342,17.5581629 C25.6117608,17.6942675 25.5657677,17.8437814 25.4531177,17.930942 C25.39246,17.9765337 25.3204707,18 25.249148,18 Z M23.9993334,16.4914516 C24.0639905,16.4914516 24.127981,16.5102246 24.1839727,16.5477707 L24.6259071,16.8434462 L24.51659,16.5135769 C24.4765959,16.3928931 24.5079246,16.2601408 24.5972447,16.1702984 L24.8612055,15.9047938 L24.4159383,15.9047938 C24.2726262,15.9047938 24.1453118,15.8122695 24.0999852,15.6754945 L23.9993334,15.3724438 L23.8986817,15.6754945 C23.8533551,15.8122695 23.7260407,15.9047938 23.5827286,15.9047938 L23.1374613,15.9047938 L23.4014222,16.1702984 C23.4907422,16.2601408 23.5220709,16.3928931 23.4820769,16.5135769 L23.3727597,16.8434462 L23.8146942,16.5477707 C23.8706859,16.5095541 23.9353429,16.4914516 23.9993334,16.4914516 Z" id="Shape" fill="#F36F21" fill-rule="nonzero"></path>
                                <path d="M31.249148,18 C31.1844909,18 31.1205004,17.981227 31.0645087,17.9436809 L29.9993334,17.2296346 L28.9341582,17.9436809 C28.8168422,18.0227958 28.6601988,18.0181026 28.5468823,17.930942 C28.4342323,17.8437814 28.3882392,17.6942675 28.4335658,17.5581629 L28.784847,16.4974858 L28.0976156,15.8055649 C28.0022964,15.7096882 27.973634,15.565538 28.0256263,15.4401609 C28.076952,15.3147838 28.1989339,15.2329869 28.3335806,15.2329869 L29.3434308,15.2329869 L29.6840469,14.2051626 C29.7747001,13.9316125 30.2252999,13.9316125 30.3159531,14.2051626 L30.6565692,15.2329869 L31.6664194,15.2329869 C31.8010661,15.2329869 31.923048,15.3147838 31.9743737,15.4401609 C32.026366,15.565538 31.9977036,15.7096882 31.9023844,15.8055649 L31.215153,16.4974858 L31.5664342,17.5581629 C31.6117608,17.6942675 31.5657677,17.8437814 31.4531177,17.930942 C31.39246,17.9765337 31.3204707,18 31.249148,18 Z M29.9993334,16.4914516 C30.0639905,16.4914516 30.127981,16.5102246 30.1839727,16.5477707 L30.6259071,16.8434462 L30.51659,16.5135769 C30.4765959,16.3928931 30.5079246,16.2601408 30.5972447,16.1702984 L30.8612055,15.9047938 L30.4159383,15.9047938 C30.2726262,15.9047938 30.1453118,15.8122695 30.0999852,15.6754945 L29.9993334,15.3724438 L29.8986817,15.6754945 C29.8533551,15.8122695 29.7260407,15.9047938 29.5827286,15.9047938 L29.1374613,15.9047938 L29.4014222,16.1702984 C29.4907422,16.2601408 29.5220709,16.3928931 29.4820769,16.5135769 L29.3727597,16.8434462 L29.8146942,16.5477707 C29.8706859,16.5095541 29.9353429,16.4914516 29.9993334,16.4914516 Z" id="Shape" fill="#F36F21" fill-rule="nonzero"></path>
                                <circle id="Oval" stroke="#F36F21" cx="4" cy="16" r="1"></circle>
                                <circle id="Oval-Copy" stroke="#F36F21" cx="10" cy="16" r="1"></circle>
                                <circle id="Oval-Copy-2" stroke="#F36F21" cx="17" cy="16" r="1"></circle>
                                <circle id="Oval-Copy-3" stroke="#F36F21" cx="24" cy="16" r="1"></circle>
                            </g>
                        </g>
                    </g>
                </g>
            </g>
        </g>
    </g>
</svg>